<?xml version="1.0" encoding="UTF-8" standalone="no"?>
<!-- Generator: Adobe Illustrator 23.0.3, SVG Export Plug-In . SVG Version: 6.00 Build 0)  -->

<svg
   xmlns:dc="http://purl.org/dc/elements/1.1/"
   xmlns:cc="http://creativecommons.org/ns#"
   xmlns:rdf="http://www.w3.org/1999/02/22-rdf-syntax-ns#"
   xmlns:svg="http://www.w3.org/2000/svg"
   xmlns="http://www.w3.org/2000/svg"
   xmlns:sodipodi="http://sodipodi.sourceforge.net/DTD/sodipodi-0.dtd"
   xmlns:inkscape="http://www.inkscape.org/namespaces/inkscape"
   version="1.1"
   id="Calque_1"
   x="0px"
   y="0px"
   viewBox="0 0 260.43087 345.3313"
   xml:space="preserve"
   sodipodi:docname="Y1.svg"
   width="260.43088"
   height="345.3313"
   inkscape:version="0.92.2 5c3e80d, 2017-08-06"
   inkscape:export-filename="/Users/Shared/espace de travail yacka/logos_yacka/Y1.png"
   inkscape:export-xdpi="200"
   inkscape:export-ydpi="200"><metadata
     id="metadata29"><rdf:RDF><cc:Work
         rdf:about=""><dc:format>image/svg+xml</dc:format><dc:type
           rdf:resource="http://purl.org/dc/dcmitype/StillImage" /><dc:title></dc:title></cc:Work></rdf:RDF></metadata><defs
     id="defs27" /><sodipodi:namedview
     pagecolor="#ffffff"
     bordercolor="#666666"
     borderopacity="1"
     objecttolerance="10"
     gridtolerance="10"
     guidetolerance="10"
     inkscape:pageopacity="0"
     inkscape:pageshadow="2"
     inkscape:window-width="1311"
     inkscape:window-height="881"
     id="namedview25"
     showgrid="false"
     fit-margin-top="0"
     fit-margin-left="0"
     fit-margin-right="0"
     fit-margin-bottom="0"
     inkscape:zoom="0.3475"
     inkscape:cx="-153.04218"
     inkscape:cy="-272.46234"
     inkscape:window-x="126"
     inkscape:window-y="110"
     inkscape:window-maximized="0"
     inkscape:current-layer="Calque_1" /><style
     type="text/css"
     id="style2">
	.st0{fill:#FEFEFE;}
	.st1{fill:#7ED857;}
</style><path
     class="st1"
     d="m 144.35348,184.69371 c 0,2.21 0,4.19 0,6.17 0,46.66 0.01,93.32 -0.01,139.98 0,7.77 -2.94,11.78 -10,13.87 -5.85,1.73 -12.2,-0.22 -15.05,-5.28 -1.3,-2.3 -1.86,-5.3 -1.86,-7.99 -0.11,-46.99 -0.08,-93.98 -0.08,-140.98 0,-1.95 0,-3.91 0,-5.98 -22.430003,-2.67 -43.290003,-8.57 -62.560003,-19.7 -22.36,-12.91 -39.52,-30.74 -48.8299999,-54.79 -10.33,-26.709986 -7,-52.739988 8.1299999,-77.129988 2.18,-3.52 4.43,-7.07 7.18,-10.12 1.24,-1.37 3.8,-1.55 5.77,-2.27 -0.04,1.9 0.61,4.19 -0.23,5.62 -4.89,8.39 -7.73,17.41 -9.48,26.89 -1.97,10.620002 -1.14,21.000002 1.6,31.370002 6.18,23.429986 20.49,40.689986 40.31,53.909986 25.09,16.74 53.010003,21.65 82.400003,18.83 33.25,-3.18 61.19,-17.07 81.47,-44.24 13.03,-17.459986 17.18,-37.229986 14.46,-58.919988 -2.4,-19.14 -11.05,-34.62 -24.36,-47.9899997 -1.5,-1.51 -4.46,-3.32 -1.62,-5.54999997 1.12,-0.87 4.46,-0.18 5.96,0.91999997 13.14,9.5899997 24.25,21.1499997 31.86,35.6499997 10.26,19.56 13.87,40.120002 8.63,61.950002 -6.41,26.699986 -22.41,46.309986 -44.74,61.329986 -18.99,12.77 -40.06,19.9 -62.64,22.89 -1.94,0.26 -3.83,0.94 -6.31,1.56 z"
     id="path6"
     inkscape:connector-curvature="0"
     style="fill:#7ed857" /></svg>