<?xml version="1.0" encoding="UTF-8" standalone="no"?>
<!-- Generator: Adobe Illustrator 23.0.3, SVG Export Plug-In . SVG Version: 6.00 Build 0)  -->

<svg
   xmlns:dc="http://purl.org/dc/elements/1.1/"
   xmlns:cc="http://creativecommons.org/ns#"
   xmlns:rdf="http://www.w3.org/1999/02/22-rdf-syntax-ns#"
   xmlns:svg="http://www.w3.org/2000/svg"
   xmlns="http://www.w3.org/2000/svg"
   xmlns:sodipodi="http://sodipodi.sourceforge.net/DTD/sodipodi-0.dtd"
   xmlns:inkscape="http://www.inkscape.org/namespaces/inkscape"
   version="1.1"
   id="Calque_1"
   x="-100px"
   y="-100px"
   viewBox="190 50 782.36285 346.32846"
   xml:space="preserve"
   sodipodi:docname="logowithoutpadding.svg"
   width="782.36285"
   height="346.32846"
   inkscape:version="0.92.2 5c3e80d, 2017-08-06"><metadata
     id="metadata23"><rdf:RDF><cc:Work
         rdf:about=""><dc:format>image/svg+xml</dc:format><dc:type
           rdf:resource="http://purl.org/dc/dcmitype/StillImage" /><dc:title></dc:title></cc:Work></rdf:RDF></metadata><defs
     id="defs21" /><sodipodi:namedview
     pagecolor="#ffffff"
     bordercolor="#666666"
     borderopacity="1"
     objecttolerance="10"
     gridtolerance="10"
     guidetolerance="10"
     inkscape:pageopacity="0"
     inkscape:pageshadow="2"
     inkscape:window-width="1028"
     inkscape:window-height="644"
     id="namedview19"
     showgrid="false"
     fit-margin-top="0"
     fit-margin-left="0"
     fit-margin-right="0"
     fit-margin-bottom="0"
     inkscape:zoom="0.52125"
     inkscape:cx="392.35348"
     inkscape:cy="171.12473"
     inkscape:window-x="172"
     inkscape:window-y="37"
     inkscape:window-maximized="0"
     inkscape:current-layer="Calque_1" /><style
     type="text/css"
     id="style2">
	.st1{fill:#FFFFFF;}
</style><g
     id="g16"
     transform="translate(-7.6465229,-9.7962777)"><g
       id="g14"><path
         class="st1"
         d="m 342,244.49 c 0,2.21 0,4.19 0,6.17 0,46.66 0.01,93.32 -0.01,139.98 0,7.77 -2.94,11.78 -10,13.87 -5.85,1.73 -12.2,-0.22 -15.05,-5.28 -1.3,-2.3 -1.86,-5.3 -1.86,-7.99 -0.11,-46.99 -0.08,-93.98 -0.08,-140.98 0,-1.95 0,-3.91 0,-5.98 -22.43,-2.67 -43.29,-8.57 -62.56,-19.7 -22.36,-12.91 -39.52,-30.74 -48.83,-54.79 -10.33,-26.71 -7,-52.74 8.13,-77.13 2.18,-3.52 4.43,-7.07 7.18,-10.12 1.24,-1.37 3.8,-1.55 5.77,-2.27 -0.04,1.9 0.61,4.19 -0.23,5.62 -4.89,8.39 -7.73,17.41 -9.48,26.89 -1.97,10.62 -1.14,21 1.6,31.37 6.18,23.43 20.49,40.69 40.31,53.91 25.09,16.74 53.01,21.65 82.4,18.83 33.25,-3.18 61.19,-17.07 81.47,-44.24 13.03,-17.46 17.18,-37.23 14.46,-58.92 -2.4,-19.14 -11.05,-34.62 -24.36,-47.99 -1.5,-1.51 -4.46,-3.32 -1.62,-5.55 1.12,-0.87 4.46,-0.18 5.96,0.92 13.14,9.59 24.25,21.15 31.86,35.65 10.26,19.56 13.87,40.12 8.63,61.95 -6.41,26.7 -22.41,46.31 -44.74,61.33 -18.99,12.77 -40.06,19.9 -62.64,22.89 -1.94,0.26 -3.83,0.94 -6.31,1.56 z"
         id="path4"
         inkscape:connector-curvature="0"
         style="fill:#ffffff" /><path
         class="st1"
         d="m 484.26,405 c -12.16,0 -24.33,0.2 -36.49,-0.05 -15.38,-0.32 -28.48,-6.39 -40.41,-15.95 -14.78,-11.85 -22.72,-27.65 -25.93,-45.59 -4.31,-24.1 -0.36,-46.74 15.23,-66.67 12.88,-16.46 29.96,-25.49 50.11,-28.58 21.91,-3.36 42.36,1.95 59.84,15.36 15.23,11.69 25.01,27.63 28.26,46.81 1.48,8.74 1.9,17.72 2.05,26.6 0.3,17.49 0.04,34.99 0.11,52.49 0.04,9.52 -5.74,16.25 -15.78,15.73 C 508.94,404.51 496.59,405 484.26,405 Z m 24.98,-81.61 c 0.83,-6.84 -1.83,-16.32 -6.59,-24.75 -10.3,-18.26 -30.53,-30 -53,-25.7 -11.42,2.19 -21.11,7.39 -28.76,15.87 -7.35,8.15 -11.56,17.81 -13.15,29 -2.74,19.21 2.5,35.62 15.87,49.12 13.88,14.02 38.75,17.32 56.02,8.73 20.13,-10.02 29.34,-26.88 29.61,-52.27 z"
         id="path6"
         inkscape:connector-curvature="0"
         style="fill:#ffffff" /><path
         class="st1"
         d="m 928.2,405 c -12,0 -24,0.11 -36,-0.03 -14.84,-0.17 -27.82,-5.61 -39.38,-14.66 -20.47,-16.02 -28.36,-37.65 -28.97,-63.03 -0.46,-19.15 5.12,-36.13 16.62,-50.92 11.3,-14.53 26.67,-23.47 44.68,-27.21 21.88,-4.54 42.5,-0.77 61.17,11.64 18.05,12 28.51,29.28 32.53,50.35 1.2,6.27 1.05,12.84 1.09,19.28 0.12,20.5 0.05,41 0.04,61.49 0,8.24 -4.93,13.09 -13.3,13.09 -12.82,0 -25.65,0 -38.48,0 z m -77.19,-78.48 c -0.63,14.32 4.19,26.97 13.77,37.69 19.94,22.3 60.38,22.44 79.16,-6.2 10.42,-15.9 11.74,-33.22 5.94,-51.01 -8.44,-25.85 -36.07,-41.27 -63.05,-32.44 -20.95,6.86 -36.63,27.15 -35.82,51.96 z"
         id="path8"
         inkscape:connector-curvature="0"
         style="fill:#ffffff" /><path
         class="st1"
         d="m 741.83,333.42 c -4.85,4.28 -9.61,8.29 -14.09,12.6 -0.83,0.8 -0.71,2.78 -0.71,4.22 -0.05,13.5 0.05,27 -0.06,40.49 -0.06,6.9 -3.32,10.87 -10.06,12.83 -5.74,1.67 -12.24,-0.41 -15.05,-5.41 -1.22,-2.17 -1.78,-5 -1.79,-7.52 -0.09,-65.15 0,-130.31 -0.17,-195.46 -0.02,-7.81 5.09,-13.11 12.98,-13.86 7.33,-0.7 13.79,5.66 14.07,13.45 0.21,5.99 0.04,12 0.04,17.99 0,32.81 0,65.62 0,99.42 6.26,-5.43 11.99,-10.27 17.57,-15.28 16.99,-15.24 33.83,-30.66 50.92,-45.79 9.62,-8.51 19.17,-5.91 22.92,5.66 1.75,5.38 -1.01,9.01 -4.4,12.1 -13.93,12.71 -28.06,25.2 -42.14,37.75 -3.32,2.96 -6.72,5.83 -10.43,9.05 8.11,9.91 15.9,19.45 23.7,28.98 10.75,13.13 21.68,26.13 32.19,39.45 4.25,5.39 4.53,13.11 -2.68,18.81 -5.77,4.55 -12.36,4.48 -17.57,-1.46 -8.03,-9.16 -15.61,-18.71 -23.28,-28.19 -10.55,-13.04 -21,-26.16 -31.96,-39.83 z"
         id="path10"
         inkscape:connector-curvature="0"
         style="fill:#ffffff" /><path
         class="st1"
         d="m 627.79,405.38 c -23.56,-0.35 -43.56,-8.74 -59.12,-26.39 -10.06,-11.4 -15.97,-24.85 -17.83,-40.27 -2.28,-18.89 -0.19,-36.85 9.18,-53.49 11.04,-19.59 27.85,-31.64 49.91,-36.24 18.36,-3.83 36.17,-2.04 52.41,7.39 7.38,4.29 13.65,10.65 19.99,16.53 5.32,4.93 2.78,11.71 -0.16,15.18 -3.88,4.58 -11.53,5.43 -16.64,1.82 -4.82,-3.4 -8.88,-8 -13.93,-10.93 -27.73,-16.06 -63.67,-3.46 -72.39,29.98 -4.74,18.2 -2.99,35.96 8.65,51.67 8.96,12.09 21.15,18.49 36.13,19.32 10.64,0.59 21.07,-0.38 30.6,-5.86 4.37,-2.51 8.61,-5.36 13.21,-7.34 4.67,-2.01 10.18,0.87 13.52,6.2 2.63,4.2 2.16,8.92 -1.45,12.62 -10.26,10.54 -23.11,15.97 -37.35,18.36 -4.84,0.83 -9.81,0.99 -14.73,1.45 z"
         id="path12"
         inkscape:connector-curvature="0"
         style="fill:#ffffff" /></g></g></svg>