<?xml version="1.0" encoding="utf-8"?>
<!-- Generator: Adobe Illustrator 23.0.3, SVG Export Plug-In . SVG Version: 6.00 Build 0)  -->
<svg version="1.1" id="Calque_1" xmlns="http://www.w3.org/2000/svg" xmlns:xlink="http://www.w3.org/1999/xlink" x="-100px" y="-100px"
	 viewBox="190 50 800 370" style="enable-background:new 0 0 1000 450;" xml:space="preserve">
<style type="text/css">
	.st1{fill:#FFFFFF;}
</style>
<g>
	<g>
		<path class="st1" d="M342,244.49c0,2.21,0,4.19,0,6.17c0,46.66,0.01,93.32-0.01,139.98c0,7.77-2.94,11.78-10,13.87
			c-5.85,1.73-12.2-0.22-15.05-5.28c-1.3-2.3-1.86-5.3-1.86-7.99c-0.11-46.99-0.08-93.98-0.08-140.98c0-1.95,0-3.91,0-5.98
			c-22.43-2.67-43.29-8.57-62.56-19.7c-22.36-12.91-39.52-30.74-48.83-54.79c-10.33-26.71-7-52.74,8.13-77.13
			c2.18-3.52,4.43-7.07,7.18-10.12c1.24-1.37,3.8-1.55,5.77-2.27c-0.04,1.9,0.61,4.19-0.23,5.62c-4.89,8.39-7.73,17.41-9.48,26.89
			c-1.97,10.62-1.14,21,1.6,31.37c6.18,23.43,20.49,40.69,40.31,53.91c25.09,16.74,53.01,21.65,82.4,18.83
			c33.25-3.18,61.19-17.07,81.47-44.24c13.03-17.46,17.18-37.23,14.46-58.92c-2.4-19.14-11.05-34.62-24.36-47.99
			c-1.5-1.51-4.46-3.32-1.62-5.55c1.12-0.87,4.46-0.18,5.96,0.92c13.14,9.59,24.25,21.15,31.86,35.65
			c10.26,19.56,13.87,40.12,8.63,61.95c-6.41,26.7-22.41,46.31-44.74,61.33c-18.99,12.77-40.06,19.9-62.64,22.89
			C346.37,243.19,344.48,243.87,342,244.49z"/>
		<path class="st1" d="M484.26,405c-12.16,0-24.33,0.2-36.49-0.05c-15.38-0.32-28.48-6.39-40.41-15.95
			c-14.78-11.85-22.72-27.65-25.93-45.59c-4.31-24.1-0.36-46.74,15.23-66.67c12.88-16.46,29.96-25.49,50.11-28.58
			c21.91-3.36,42.36,1.95,59.84,15.36c15.23,11.69,25.01,27.63,28.26,46.81c1.48,8.74,1.9,17.72,2.05,26.6
			c0.3,17.49,0.04,34.99,0.11,52.49c0.04,9.52-5.74,16.25-15.78,15.73C508.94,404.51,496.59,405,484.26,405z M509.24,323.39
			c0.83-6.84-1.83-16.32-6.59-24.75c-10.3-18.26-30.53-30-53-25.7c-11.42,2.19-21.11,7.39-28.76,15.87
			c-7.35,8.15-11.56,17.81-13.15,29c-2.74,19.21,2.5,35.62,15.87,49.12c13.88,14.02,38.75,17.32,56.02,8.73
			C499.76,365.64,508.97,348.78,509.24,323.39z"/>
		<path class="st1" d="M928.2,405c-12,0-24,0.11-36-0.03c-14.84-0.17-27.82-5.61-39.38-14.66c-20.47-16.02-28.36-37.65-28.97-63.03
			c-0.46-19.15,5.12-36.13,16.62-50.92c11.3-14.53,26.67-23.47,44.68-27.21c21.88-4.54,42.5-0.77,61.17,11.64
			c18.05,12,28.51,29.28,32.53,50.35c1.2,6.27,1.05,12.84,1.09,19.28c0.12,20.5,0.05,41,0.04,61.49c0,8.24-4.93,13.09-13.3,13.09
			C953.86,405,941.03,405,928.2,405z M851.01,326.52c-0.63,14.32,4.19,26.97,13.77,37.69c19.94,22.3,60.38,22.44,79.16-6.2
			c10.42-15.9,11.74-33.22,5.94-51.01c-8.44-25.85-36.07-41.27-63.05-32.44C865.88,281.42,850.2,301.71,851.01,326.52z"/>
		<path class="st1" d="M741.83,333.42c-4.85,4.28-9.61,8.29-14.09,12.6c-0.83,0.8-0.71,2.78-0.71,4.22
			c-0.05,13.5,0.05,27-0.06,40.49c-0.06,6.9-3.32,10.87-10.06,12.83c-5.74,1.67-12.24-0.41-15.05-5.41c-1.22-2.17-1.78-5-1.79-7.52
			c-0.09-65.15,0-130.31-0.17-195.46c-0.02-7.81,5.09-13.11,12.98-13.86c7.33-0.7,13.79,5.66,14.07,13.45
			c0.21,5.99,0.04,12,0.04,17.99c0,32.81,0,65.62,0,99.42c6.26-5.43,11.99-10.27,17.57-15.28c16.99-15.24,33.83-30.66,50.92-45.79
			c9.62-8.51,19.17-5.91,22.92,5.66c1.75,5.38-1.01,9.01-4.4,12.1c-13.93,12.71-28.06,25.2-42.14,37.75
			c-3.32,2.96-6.72,5.83-10.43,9.05c8.11,9.91,15.9,19.45,23.7,28.98c10.75,13.13,21.68,26.13,32.19,39.45
			c4.25,5.39,4.53,13.11-2.68,18.81c-5.77,4.55-12.36,4.48-17.57-1.46c-8.03-9.16-15.61-18.71-23.28-28.19
			C763.24,360.21,752.79,347.09,741.83,333.42z"/>
		<path class="st1" d="M627.79,405.38c-23.56-0.35-43.56-8.74-59.12-26.39c-10.06-11.4-15.97-24.85-17.83-40.27
			c-2.28-18.89-0.19-36.85,9.18-53.49c11.04-19.59,27.85-31.64,49.91-36.24c18.36-3.83,36.17-2.04,52.41,7.39
			c7.38,4.29,13.65,10.65,19.99,16.53c5.32,4.93,2.78,11.71-0.16,15.18c-3.88,4.58-11.53,5.43-16.64,1.82
			c-4.82-3.4-8.88-8-13.93-10.93c-27.73-16.06-63.67-3.46-72.39,29.98c-4.74,18.2-2.99,35.96,8.65,51.67
			c8.96,12.09,21.15,18.49,36.13,19.32c10.64,0.59,21.07-0.38,30.6-5.86c4.37-2.51,8.61-5.36,13.21-7.34
			c4.67-2.01,10.18,0.87,13.52,6.2c2.63,4.2,2.16,8.92-1.45,12.62c-10.26,10.54-23.11,15.97-37.35,18.36
			C637.68,404.76,632.71,404.92,627.79,405.38z"/>
	</g>
</g>
</svg>
