<?xml version="1.0" encoding="UTF-8" standalone="no"?>
<svg
   xmlns:dc="http://purl.org/dc/elements/1.1/"
   xmlns:cc="http://creativecommons.org/ns#"
   xmlns:rdf="http://www.w3.org/1999/02/22-rdf-syntax-ns#"
   xmlns:svg="http://www.w3.org/2000/svg"
   xmlns="http://www.w3.org/2000/svg"
   xmlns:sodipodi="http://sodipodi.sourceforge.net/DTD/sodipodi-0.dtd"
   xmlns:inkscape="http://www.inkscape.org/namespaces/inkscape"
   width="23.6111in"
   height="23.6111in"
   viewBox="0 0 1700 1700"
   version="1.1"
   id="svg3"
   sodipodi:docname="add-event-2-white.svg"
   inkscape:version="0.92.2 5c3e80d, 2017-08-06">
  <metadata
     id="metadata9">
    <rdf:RDF>
      <cc:Work
         rdf:about="">
        <dc:format>image/svg+xml</dc:format>
        <dc:type
           rdf:resource="http://purl.org/dc/dcmitype/StillImage" />
        <dc:title></dc:title>
      </cc:Work>
    </rdf:RDF>
  </metadata>
  <defs
     id="defs7" />
  <sodipodi:namedview
     pagecolor="#ffffff"
     bordercolor="#666666"
     borderopacity="1"
     objecttolerance="10"
     gridtolerance="10"
     guidetolerance="10"
     inkscape:pageopacity="0"
     inkscape:pageshadow="2"
     inkscape:window-width="1443"
     inkscape:window-height="893"
     id="namedview5"
     showgrid="false"
     inkscape:zoom="0.1041177"
     inkscape:cx="1133.3328"
     inkscape:cy="1133.3328"
     inkscape:window-x="0"
     inkscape:window-y="0"
     inkscape:window-maximized="0"
     inkscape:current-layer="svg3" />
  <path
     id="Copie de add-event"
     fill="none"
     stroke="black"
     stroke-width="1"
     d="M 1134.00,1600.50            C 1134.00,1600.50 931.50,1600.50 931.50,1600.50              931.50,1600.50 934.50,1539.00 934.50,1539.00              934.50,1539.00 1071.00,1540.50 1071.00,1540.50              1071.00,1540.50 1075.50,1195.50 1075.50,1195.50              1075.50,1195.50 1408.50,1191.00 1408.50,1191.00              1408.50,1191.00 1410.00,1059.00 1410.00,1059.00              1410.00,1059.00 1465.50,1059.00 1465.50,1059.00              1465.50,1059.00 1462.50,1254.00 1462.50,1254.00              1462.50,1254.00 1134.00,1255.00 1134.00,1255.00              1134.00,1255.00 1134.00,1600.50 1134.00,1600.50 Z            M 1669.50,594.00            C 1482.11,781.39 1461.00,802.50 1461.00,802.50              1461.00,802.50 912.00,253.50 912.00,253.50              912.00,253.50 957.85,206.15 1117.50,46.50              1161.00,86.50 1212.12,136.37 1263.00,189.00              1113.50,373.00 1351.00,596.00 1523.50,451.00              1523.50,451.00 1629.50,555.50 1669.50,594.00 Z            M 911.00,1352.00            C 788.23,1474.60 659.56,1605.94 603.00,1662.50              538.00,1601.50 506.88,1570.63 456.00,1518.00              605.50,1334.00 368.00,1111.00 195.50,1256.00              195.50,1256.00 105.00,1167.00 50.00,1112.00              237.39,924.61 868.50,294.50 868.50,294.50              868.50,294.50 1418.50,845.50 1418.50,845.50              1418.50,845.50 1334.20,925.64 1212.28,1047.37              1121.05,1043.86 1077.00,1046.00 1077.00,1046.00              1077.00,1046.00 1077.19,696.49 1077.19,696.49              1077.19,696.49 917.54,694.74 917.54,694.74              917.54,694.74 914.04,1043.86 914.04,1043.86              914.04,1043.86 582.46,1045.61 582.46,1045.61              582.46,1045.61 580.70,1200.00 580.70,1200.00              580.70,1200.00 912.28,1198.25 912.28,1198.25              912.28,1198.25 911.47,1257.88 911.00,1352.00 Z" />
  <path
     style="fill:#ffffff;fill-opacity:1;fill-rule:evenodd;stroke:#ffffff;stroke-width:9.60451508;stroke-linecap:round;stroke-linejoin:miter;stroke-miterlimit:4;stroke-dasharray:none;stroke-opacity:1"
     d="m 707.17051,2115.4437 -92.62327,-93.6933 22.94985,-33.7998 c 12.62241,-18.59 26.99939,-55.3272 31.94885,-81.6384 25.8995,-137.6812 -68.90568,-270.6142 -211.41665,-296.4422 -45.83282,-8.3066 -124.90048,9.3464 -165.61456,36.9757 l -32.70766,22.1961 -92.32608,-92.6739 -92.326071,-92.6738 543.352271,-542.55336 543.35221,-542.55337 359.2575,364.97157 359.2575,364.97156 -131.7886,132.0621 -131.7886,132.0621 h -88.9704 -88.9705 V 1157.3441 922.03343 h -110.4519 -110.4519 v 229.33367 229.3337 l -218.50272,7.0745 c -145.32077,4.705 -220.86605,10.7278 -225.55903,17.9825 -3.88097,5.9995 -7.12249,53.048 -7.20338,104.5522 l -0.14708,93.644 H 987.34414 1208.248 v 98.53 98.5301 l -204.2271,204.0614 -204.22711,204.0614 z"
     id="path11"
     inkscape:connector-curvature="0"
     transform="scale(0.75000038)" />
  <path
     style="fill:#ffffff;fill-opacity:1;fill-rule:evenodd;stroke:#ffffff;stroke-width:9.60451508;stroke-linecap:round;stroke-linejoin:miter;stroke-miterlimit:4;stroke-dasharray:none;stroke-opacity:1"
     d="m 1582.8644,696.3677 -360.0329,-360.12894 134.2247,-134.48202 134.2246,-134.482017 92.9906,92.641637 92.9905,92.64164 -23.0434,34.821 c -44.1942,66.78189 -48.0689,165.13446 -9.4894,240.86932 66.2016,129.95924 239.2845,179.35884 354.4934,101.17598 l 32.7077,-22.19602 92.3744,92.72229 92.3743,92.72229 -132.1648,131.9119 c -72.6907,72.55153 -134.2915,131.91184 -136.8908,131.91184 -2.5993,0 -166.7408,-162.05798 -364.7589,-360.1289 z"
     id="path13"
     inkscape:connector-curvature="0"
     transform="scale(0.75000038)" />
  <path
     style="fill:#ffffff;fill-opacity:1;fill-rule:evenodd;stroke:#ffffff;stroke-width:9.60451508;stroke-linecap:round;stroke-linejoin:miter;stroke-miterlimit:4;stroke-dasharray:none;stroke-opacity:1"
     d="m 1246.666,2093.7843 v -38.4181 h 89.9051 89.9051 l 6.0566,-50.4237 c 3.3311,-27.733 6.0941,-131.4618 6.1401,-230.5084 l 0.083,-180.0846 h 220.9039 220.9038 v -86.4407 -86.4406 h 33.6158 33.6158 v 124.8587 124.8587 h -220.9038 -220.9039 v 230.5084 230.5083 H 1376.327 1246.666 Z"
     id="path15"
     inkscape:connector-curvature="0"
     transform="scale(0.75000038)" />
</svg>
