<?xml version="1.0" encoding="UTF-8" standalone="no"?>
<svg
   xmlns:dc="http://purl.org/dc/elements/1.1/"
   xmlns:cc="http://creativecommons.org/ns#"
   xmlns:rdf="http://www.w3.org/1999/02/22-rdf-syntax-ns#"
   xmlns:svg="http://www.w3.org/2000/svg"
   xmlns="http://www.w3.org/2000/svg"
   xmlns:sodipodi="http://sodipodi.sourceforge.net/DTD/sodipodi-0.dtd"
   xmlns:inkscape="http://www.inkscape.org/namespaces/inkscape"
   width="23.6111in"
   height="23.6111in"
   viewBox="0 0 1700 1700"
   version="1.1"
   id="svg3"
   sodipodi:docname="add-event-white.svg"
   inkscape:version="0.92.2 5c3e80d, 2017-08-06">
  <metadata
     id="metadata9">
    <rdf:RDF>
      <cc:Work
         rdf:about="">
        <dc:format>image/svg+xml</dc:format>
        <dc:type
           rdf:resource="http://purl.org/dc/dcmitype/StillImage" />
        <dc:title></dc:title>
      </cc:Work>
    </rdf:RDF>
  </metadata>
  <defs
     id="defs7" />
  <sodipodi:namedview
     pagecolor="#ffffff"
     bordercolor="#666666"
     borderopacity="1"
     objecttolerance="10"
     gridtolerance="10"
     guidetolerance="10"
     inkscape:pageopacity="0"
     inkscape:pageshadow="2"
     inkscape:window-width="1137"
     inkscape:window-height="867"
     id="namedview5"
     showgrid="false"
     inkscape:zoom="0.1041177"
     inkscape:cx="1133.3328"
     inkscape:cy="1133.3328"
     inkscape:window-x="0"
     inkscape:window-y="0"
     inkscape:window-maximized="0"
     inkscape:current-layer="svg3" />
  <path
     id="Copie de bas du plus"
     fill="none"
     stroke="black"
     stroke-width="1"
     d="M 1134.00,1600.50            C 1134.00,1600.50 931.50,1600.50 931.50,1600.50              931.50,1600.50 934.50,1539.00 934.50,1539.00              934.50,1539.00 1071.00,1540.50 1071.00,1540.50              1071.00,1540.50 1075.50,1195.50 1075.50,1195.50              1075.50,1195.50 1408.50,1191.00 1408.50,1191.00              1408.50,1191.00 1410.00,1059.00 1410.00,1059.00              1410.00,1059.00 1465.50,1059.00 1465.50,1059.00              1465.50,1059.00 1462.50,1254.00 1462.50,1254.00              1462.50,1254.00 1134.00,1255.00 1134.00,1255.00              1134.00,1255.00 1134.00,1600.50 1134.00,1600.50 Z            M 1629.00,633.00            C 1441.61,820.39 1461.00,802.50 1461.00,802.50              1461.00,802.50 912.00,253.50 912.00,253.50              912.00,253.50 912.35,250.65 1072.00,91.00              1091.50,66.00 1128.00,62.50 1157.50,84.50              1173.50,101.00 1212.12,136.37 1263.00,189.00              1113.50,373.00 1351.00,596.00 1523.50,451.00              1523.50,451.00 1630.50,557.50 1630.50,557.50              1634.00,561.50 1658.00,600.00 1629.00,633.00 Z            M 910.53,1349.12            C 787.76,1471.73 703.56,1559.44 647.00,1616.00              627.50,1641.00 591.00,1644.50 561.50,1622.50              545.50,1606.00 506.88,1570.63 456.00,1518.00              605.50,1334.00 368.00,1111.00 195.50,1256.00              195.50,1256.00 88.50,1149.50 88.50,1149.50              85.00,1145.50 61.00,1107.00 90.00,1074.00              277.39,886.61 868.50,294.50 868.50,294.50              868.50,294.50 1418.50,845.50 1418.50,845.50              1418.50,845.50 1334.20,925.64 1212.28,1047.37              1121.05,1043.86 1077.00,1046.00 1077.00,1046.00              1077.00,1046.00 1077.19,696.49 1077.19,696.49              1077.19,696.49 917.54,694.74 917.54,694.74              917.54,694.74 914.04,1043.86 914.04,1043.86              914.04,1043.86 582.46,1045.61 582.46,1045.61              582.46,1045.61 580.70,1200.00 580.70,1200.00              580.70,1200.00 912.28,1198.25 912.28,1198.25              912.28,1198.25 911.00,1255.00 910.53,1349.12 Z" />
  <path
     style="fill:#ffffff;fill-opacity:1;fill-rule:evenodd;stroke:#ffffff;stroke-width:9.60451508;stroke-linecap:round;stroke-linejoin:miter;stroke-miterlimit:4;stroke-dasharray:none;stroke-opacity:1"
     d="m 759.71713,2160.1363 c -15.84745,-9.9528 -54.44379,-44.3444 -85.76963,-76.426 l -56.95609,-58.3301 24.89918,-45.9956 c 34.32619,-63.41 41.68567,-123.0166 23.0875,-186.992 C 621.10603,1641.478 450.84011,1567.7522 310.11491,1638.7354 l -53.72182,27.0979 -67.1777,-67.9171 c -71.7177,-72.507 -89.490742,-103.8007 -77.37314,-136.2342 4.17029,-11.1621 241.19801,-255.3568 526.72826,-542.65507 l 519.14589,-522.36046 228.4013,230.60808 c 125.6207,126.83445 288.1065,291.66467 361.0796,366.28938 l 132.6783,135.68127 -132.6783,130.4746 -132.6783,130.4747 -88.8418,0.2696 -88.8418,0.2697 V 1155.4231 920.11253 h -110.4519 -110.4519 v 235.31057 235.3107 H 995.02775 774.1239 v 90.4573 c 0,49.7516 -2.62342,97.2939 -5.82983,105.6497 -5.21363,13.5865 17.88159,15.1902 218.50271,15.172 l 224.33252,-0.019 -2.9894,99.3684 -2.9895,99.3684 -189.6482,188.7873 c -116.2711,115.7423 -196.86862,188.7724 -208.30986,188.7504 -10.26392,-0.02 -31.62776,-8.179 -47.47521,-18.1318 z"
     id="path11"
     inkscape:connector-curvature="0"
     transform="scale(0.75000038)" />
  <path
     style="fill:#ffffff;fill-opacity:1;fill-rule:evenodd;stroke:#ffffff;stroke-width:9.60451508;stroke-linecap:round;stroke-linejoin:miter;stroke-miterlimit:4;stroke-dasharray:none;stroke-opacity:1"
     d="M 1583.2088,696.71271 1225.4412,338.84967 1327.525,230.52553 c 56.1461,-59.57827 114.272,-114.62687 129.1686,-122.33021 39.2896,-20.317449 69.03,-5.67028 148.9063,73.33646 l 67.917,67.1777 -27.0978,53.72182 c -84.9042,168.32356 34.4148,362.53593 223.0208,363.00524 50.3622,0.12534 73.1827,-5.21447 114.9962,-26.90813 l 52.1657,-27.06449 74.6929,76.21096 c 57.1784,58.3405 74.6929,82.50297 74.6929,103.04412 0,21.4314 -23.5861,50.69071 -117.1632,145.34495 -64.4398,65.18145 -119.5673,118.51175 -122.5056,118.51175 -2.9383,0 -166.3378,-161.03832 -363.11,-357.86299 z"
     id="path13"
     inkscape:connector-curvature="0"
     transform="scale(0.75000038)" />
  <path
     style="fill:#ffffff;fill-opacity:1;fill-rule:evenodd;stroke:#ffffff;stroke-width:9.60451508;stroke-linecap:round;stroke-linejoin:miter;stroke-miterlimit:4;stroke-dasharray:none;stroke-opacity:1"
     d="m 1244.8763,2113.4735 c 0.072,-9.2443 2.8235,-26.8623 6.1141,-39.1511 5.7903,-21.6234 8.8029,-22.2423 93.5129,-19.209 l 87.5299,3.1342 2.5715,-226.6496 2.5715,-226.6495 107.8804,-6.2163 c 59.3342,-3.4189 158.124,-6.2359 219.5329,-6.2599 l 111.6525,-0.044 6.0028,-30.0141 c 3.3016,-16.5078 6.0028,-55.4061 6.0028,-86.4407 0,-56.2931 0.068,-56.4265 28.8136,-56.4265 h 28.8135 v 124.8587 124.8587 H 1724.9709 1504.067 v 230.5084 230.5083 h -129.6609 c -117.1336,0 -129.6483,-1.6239 -129.5298,-16.8079 z"
     id="path15"
     inkscape:connector-curvature="0"
     transform="scale(0.75000038)" />
</svg>
