<?xml version="1.0" encoding="UTF-8" standalone="no"?>
<svg
   xmlns:dc="http://purl.org/dc/elements/1.1/"
   xmlns:cc="http://creativecommons.org/ns#"
   xmlns:rdf="http://www.w3.org/1999/02/22-rdf-syntax-ns#"
   xmlns:svg="http://www.w3.org/2000/svg"
   xmlns="http://www.w3.org/2000/svg"
   xmlns:sodipodi="http://sodipodi.sourceforge.net/DTD/sodipodi-0.dtd"
   xmlns:inkscape="http://www.inkscape.org/namespaces/inkscape"
   width="23.6111in"
   height="23.6111in"
   viewBox="0 0 1700 1700"
   version="1.1"
   id="svg3"
   sodipodi:docname="add-event-2-dark.svg"
   inkscape:version="0.92.2 5c3e80d, 2017-08-06">
  <metadata
     id="metadata9">
    <rdf:RDF>
      <cc:Work
         rdf:about="">
        <dc:format>image/svg+xml</dc:format>
        <dc:type
           rdf:resource="http://purl.org/dc/dcmitype/StillImage" />
        <dc:title></dc:title>
      </cc:Work>
    </rdf:RDF>
  </metadata>
  <defs
     id="defs7" />
  <sodipodi:namedview
     pagecolor="#ffffff"
     bordercolor="#666666"
     borderopacity="1"
     objecttolerance="10"
     gridtolerance="10"
     guidetolerance="10"
     inkscape:pageopacity="0"
     inkscape:pageshadow="2"
     inkscape:window-width="1120"
     inkscape:window-height="822"
     id="namedview5"
     showgrid="false"
     inkscape:zoom="0.1041177"
     inkscape:cx="1133.3328"
     inkscape:cy="1133.3328"
     inkscape:window-x="0"
     inkscape:window-y="0"
     inkscape:window-maximized="0"
     inkscape:current-layer="svg3" />
  <path
     id="Copie de add-event"
     fill="none"
     stroke="black"
     stroke-width="1"
     d="M 1134.00,1600.50            C 1134.00,1600.50 931.50,1600.50 931.50,1600.50              931.50,1600.50 934.50,1539.00 934.50,1539.00              934.50,1539.00 1071.00,1540.50 1071.00,1540.50              1071.00,1540.50 1075.50,1195.50 1075.50,1195.50              1075.50,1195.50 1408.50,1191.00 1408.50,1191.00              1408.50,1191.00 1410.00,1059.00 1410.00,1059.00              1410.00,1059.00 1465.50,1059.00 1465.50,1059.00              1465.50,1059.00 1462.50,1254.00 1462.50,1254.00              1462.50,1254.00 1134.00,1255.00 1134.00,1255.00              1134.00,1255.00 1134.00,1600.50 1134.00,1600.50 Z            M 1669.50,594.00            C 1482.11,781.39 1461.00,802.50 1461.00,802.50              1461.00,802.50 912.00,253.50 912.00,253.50              912.00,253.50 957.85,206.15 1117.50,46.50              1161.00,86.50 1212.12,136.37 1263.00,189.00              1113.50,373.00 1351.00,596.00 1523.50,451.00              1523.50,451.00 1629.50,555.50 1669.50,594.00 Z            M 911.00,1352.00            C 788.23,1474.60 659.56,1605.94 603.00,1662.50              538.00,1601.50 506.88,1570.63 456.00,1518.00              605.50,1334.00 368.00,1111.00 195.50,1256.00              195.50,1256.00 105.00,1167.00 50.00,1112.00              237.39,924.61 868.50,294.50 868.50,294.50              868.50,294.50 1418.50,845.50 1418.50,845.50              1418.50,845.50 1334.20,925.64 1212.28,1047.37              1121.05,1043.86 1077.00,1046.00 1077.00,1046.00              1077.00,1046.00 1077.19,696.49 1077.19,696.49              1077.19,696.49 917.54,694.74 917.54,694.74              917.54,694.74 914.04,1043.86 914.04,1043.86              914.04,1043.86 582.46,1045.61 582.46,1045.61              582.46,1045.61 580.70,1200.00 580.70,1200.00              580.70,1200.00 912.28,1198.25 912.28,1198.25              912.28,1198.25 911.47,1257.88 911.00,1352.00 Z" />
  <path
     style="fill:#0c2231;fill-opacity:1;fill-rule:evenodd;stroke:#0c2231;stroke-width:9.60451508;stroke-linecap:round;stroke-linejoin:miter;stroke-miterlimit:4;stroke-dasharray:none;stroke-opacity:1"
     d="m 709.95204,2118.1483 -93.94586,-88.7143 29.11538,-56.5794 c 49.65434,-96.4925 37.1766,-194.3452 -35.02174,-274.6471 -80.33577,-89.3527 -196.03208,-112.985 -299.85372,-61.2485 l -50.81345,25.3214 -90.41703,-90.0411 -90.417015,-90.041 540.293845,-540.35734 540.29385,-540.35733 363.2828,362.56299 363.2828,362.56298 -136.5492,132.0621 -136.5492,132.0621 h -85.0277 -85.0277 V 1155.4231 920.11253 h -108.9844 -108.9845 l -6.226,108.05077 c -3.4244,59.428 -6.2457,165.3177 -6.2697,235.3106 l -0.044,127.2599 H 991.18594 770.2821 v 105.6496 105.6497 h 220.90384 220.90386 v 98.53 98.5301 l -204.096,203.8847 -204.0959,203.8847 z"
     id="path3700"
     inkscape:connector-curvature="0"
     transform="scale(0.75000038)" />
  <path
     style="fill:#0c2231;fill-opacity:1;fill-rule:evenodd;stroke:#0c2231;stroke-width:9.60451508;stroke-linecap:round;stroke-linejoin:miter;stroke-miterlimit:4;stroke-dasharray:none;stroke-opacity:1"
     d="m 1250.5078,2090.7212 v -39.5602 l 89.9366,6.7428 89.9366,6.7428 4.5003,-226.4969 c 2.4751,-124.5733 6.867,-228.8638 9.7598,-231.7565 2.8927,-2.8928 103.0232,-7.899 222.5121,-11.125 l 217.2526,-5.8655 v -84.9277 -84.9277 h 35.0644 35.0644 l -6.2011,93.644 c -3.4107,51.5042 -6.2236,107.6907 -6.2509,124.8587 l -0.05,31.2147 H 1725.931 1509.8294 v 230.5084 230.5083 h -129.6609 -129.661 z"
     id="path4507"
     inkscape:connector-curvature="0"
     transform="scale(0.75000038)" />
  <path
     style="fill:#0c2231;fill-opacity:1;fill-rule:evenodd;stroke:#0c2231;stroke-width:9.60451508;stroke-linecap:round;stroke-linejoin:miter;stroke-miterlimit:4;stroke-dasharray:none;stroke-opacity:1"
     d="m 1584.14,701.48569 -362.5277,-362.62185 134.5378,-134.2803 134.5378,-134.280276 91.6144,91.614386 91.6144,91.61438 -26.8175,47.55593 c -22.2997,39.54441 -26.8066,58.88211 -26.7526,114.78754 0.055,56.28271 4.6473,75.52246 28.2035,118.14162 33.5675,60.73228 87.4671,102.92555 157.5466,123.32944 62.0111,18.05474 116.1167,11.82982 180.5042,-20.76725 l 45.8903,-23.23263 77.2284,73.60403 c 42.4757,40.48222 84.7599,80.41878 93.965,88.7479 15.6313,14.14385 7.698,24.16634 -120.1402,151.7764 l -136.8767,136.63249 z"
     id="path4509"
     inkscape:connector-curvature="0"
     transform="scale(0.75000038)" />
</svg>
