<?xml version="1.0" encoding="UTF-8" standalone="no"?>
<svg
   xmlns:dc="http://purl.org/dc/elements/1.1/"
   xmlns:cc="http://creativecommons.org/ns#"
   xmlns:rdf="http://www.w3.org/1999/02/22-rdf-syntax-ns#"
   xmlns:svg="http://www.w3.org/2000/svg"
   xmlns="http://www.w3.org/2000/svg"
   xmlns:sodipodi="http://sodipodi.sourceforge.net/DTD/sodipodi-0.dtd"
   xmlns:inkscape="http://www.inkscape.org/namespaces/inkscape"
   width="23.6111in"
   height="23.6111in"
   viewBox="0 0 1700 1700"
   version="1.1"
   id="svg3"
   sodipodi:docname="add-event-dark.svg"
   inkscape:version="0.92.2 5c3e80d, 2017-08-06">
  <metadata
     id="metadata9">
    <rdf:RDF>
      <cc:Work
         rdf:about="">
        <dc:format>image/svg+xml</dc:format>
        <dc:type
           rdf:resource="http://purl.org/dc/dcmitype/StillImage" />
        <dc:title></dc:title>
      </cc:Work>
    </rdf:RDF>
  </metadata>
  <defs
     id="defs7" />
  <sodipodi:namedview
     pagecolor="#ffffff"
     bordercolor="#666666"
     borderopacity="1"
     objecttolerance="10"
     gridtolerance="10"
     guidetolerance="10"
     inkscape:pageopacity="0"
     inkscape:pageshadow="2"
     inkscape:window-width="1176"
     inkscape:window-height="845"
     id="namedview5"
     showgrid="false"
     inkscape:zoom="0.1041177"
     inkscape:cx="1133.3328"
     inkscape:cy="1133.3328"
     inkscape:window-x="0"
     inkscape:window-y="0"
     inkscape:window-maximized="0"
     inkscape:current-layer="svg3" />
  <path
     id="Copie de bas du plus"
     fill="none"
     stroke="black"
     stroke-width="1"
     d="M 1134.00,1600.50            C 1134.00,1600.50 931.50,1600.50 931.50,1600.50              931.50,1600.50 934.50,1539.00 934.50,1539.00              934.50,1539.00 1071.00,1540.50 1071.00,1540.50              1071.00,1540.50 1075.50,1195.50 1075.50,1195.50              1075.50,1195.50 1408.50,1191.00 1408.50,1191.00              1408.50,1191.00 1410.00,1059.00 1410.00,1059.00              1410.00,1059.00 1465.50,1059.00 1465.50,1059.00              1465.50,1059.00 1462.50,1254.00 1462.50,1254.00              1462.50,1254.00 1134.00,1255.00 1134.00,1255.00              1134.00,1255.00 1134.00,1600.50 1134.00,1600.50 Z            M 1629.00,633.00            C 1441.61,820.39 1461.00,802.50 1461.00,802.50              1461.00,802.50 912.00,253.50 912.00,253.50              912.00,253.50 912.35,250.65 1072.00,91.00              1091.50,66.00 1128.00,62.50 1157.50,84.50              1173.50,101.00 1212.12,136.37 1263.00,189.00              1113.50,373.00 1351.00,596.00 1523.50,451.00              1523.50,451.00 1630.50,557.50 1630.50,557.50              1634.00,561.50 1658.00,600.00 1629.00,633.00 Z            M 910.53,1349.12            C 787.76,1471.73 703.56,1559.44 647.00,1616.00              627.50,1641.00 591.00,1644.50 561.50,1622.50              545.50,1606.00 506.88,1570.63 456.00,1518.00              605.50,1334.00 368.00,1111.00 195.50,1256.00              195.50,1256.00 88.50,1149.50 88.50,1149.50              85.00,1145.50 61.00,1107.00 90.00,1074.00              277.39,886.61 868.50,294.50 868.50,294.50              868.50,294.50 1418.50,845.50 1418.50,845.50              1418.50,845.50 1334.20,925.64 1212.28,1047.37              1121.05,1043.86 1077.00,1046.00 1077.00,1046.00              1077.00,1046.00 1077.19,696.49 1077.19,696.49              1077.19,696.49 917.54,694.74 917.54,694.74              917.54,694.74 914.04,1043.86 914.04,1043.86              914.04,1043.86 582.46,1045.61 582.46,1045.61              582.46,1045.61 580.70,1200.00 580.70,1200.00              580.70,1200.00 912.28,1198.25 912.28,1198.25              912.28,1198.25 911.00,1255.00 910.53,1349.12 Z" />
  <path
     style="fill:#0c2231;fill-opacity:1;fill-rule:evenodd;stroke:#0c2231;stroke-width:9.60451508;stroke-linecap:round;stroke-linejoin:miter;stroke-miterlimit:4;stroke-dasharray:none;stroke-opacity:1"
     d="m 693.52179,2099.8518 -76.12674,-74.6105 25.24429,-45.1668 c 93.30196,-166.9354 -31.44494,-372.2787 -226.16085,-372.2787 -30.96017,0 -62.5745,8.9645 -101.5376,28.7917 l -56.57944,28.7917 -74.43499,-75.537 c -63.12162,-64.0562 -74.43499,-80.4476 -74.43499,-107.8456 0,-29.8738 39.44051,-71.7662 523.40064,-555.9379 l 523.40059,-523.62952 362.5412,362.51161 362.5411,362.51161 -129.4528,129.7198 -129.4527,129.7198 h -88.9753 -88.9752 V 1156.3836 925.87524 H 1329.2649 1214.0107 V 1156.3836 1386.892 H 993.10685 772.203 v 111.1011 111.1012 l 221.91345,-3.0504 221.91345,-3.0504 -3.6592,98.6025 -3.6591,98.6025 -186.9472,187.1318 C 793.22629,2216.094 807.22886,2211.294 693.52179,2099.8518 Z"
     id="path3700"
     inkscape:connector-curvature="0"
     transform="scale(0.75000038)" />
  <path
     style="fill:#0c2231;fill-opacity:1;fill-rule:evenodd;stroke:#0c2231;stroke-width:9.60451508;stroke-linecap:round;stroke-linejoin:miter;stroke-miterlimit:4;stroke-dasharray:none;stroke-opacity:1"
     d="M 1585.9618,697.65928 1223.1674,334.65613 1341.9031,217.27154 C 1492.0128,68.86996 1490.3269,69.152016 1598.6143,174.32195 l 76.6413,74.43499 -28.9276,56.57944 c -22.1551,43.33291 -28.8783,69.19221 -28.7167,110.45192 0.7724,197.285 228.5005,320.26092 387.6319,209.32592 l 27.6736,-19.29204 75.5749,77.11092 c 107.3245,109.5056 107.5006,108.42075 -42.0803,259.16161 l -117.6553,118.56769 z"
     id="path3702"
     inkscape:connector-curvature="0"
     transform="scale(0.75000038)" />
  <path
     style="fill:#0c2231;fill-opacity:1;fill-rule:evenodd;stroke:#0c2231;stroke-width:9.60451508;stroke-linecap:round;stroke-linejoin:miter;stroke-miterlimit:4;stroke-dasharray:none;stroke-opacity:1"
     d="m 1252.4287,2092.8238 v -33.6158 h 91.2429 91.2429 v -230.5084 -230.5083 l 204.096,-0.1311 c 112.2527,-0.072 213.8205,-2.7372 225.7061,-5.9225 20.3541,-5.4547 21.6101,-10.7502 21.6101,-91.1118 v -85.3204 h 28.8136 28.8135 v 124.6784 124.6784 l -218.5027,2.5814 -218.5027,2.5814 -2.575,228.1073 -2.5749,228.1072 h -124.6849 -124.6849 z"
     id="path3704"
     inkscape:connector-curvature="0"
     transform="scale(0.75000038)" />
</svg>
