<svg id="svg" version="1.1" xmlns="http://www.w3.org/2000/svg" xmlns:xlink="http://www.w3.org/1999/xlink" width="400" height="375.1605995717345" viewBox="0, 0, 400,375.1605995717345">
   <g id="svgg">
      <path id="path0" d="M278.503 117.275 C 278.232 117.583,277.366 117.824,276.533 117.824 C 275.716 117.824,275.047 117.992,275.047 118.199 C 275.047 118.405,274.550 118.574,273.943 118.574 C 273.336 118.574,272.735 118.743,272.608 118.949 C 272.480 119.156,272.088 119.325,271.737 119.325 C 271.385 119.325,270.780 119.747,270.393 120.263 C 270.006 120.779,269.462 121.201,269.185 121.201 C 268.909 121.201,250.370 139.522,227.989 161.914 C 205.607 184.306,187.046 202.627,186.743 202.627 C 186.439 202.627,178.269 194.690,168.587 184.991 C 158.906 175.291,150.700 167.355,150.352 167.355 C 150.003 167.355,149.719 167.186,149.719 166.979 C 149.719 166.773,149.376 166.604,148.956 166.604 C 148.537 166.604,148.097 166.351,147.978 166.041 C 147.859 165.732,147.442 165.478,147.052 165.478 C 146.661 165.478,146.341 165.310,146.341 165.103 C 146.341 164.897,145.592 164.728,144.675 164.728 C 143.759 164.728,142.904 164.559,142.777 164.353 C 142.649 164.146,141.204 163.977,139.565 163.977 C 137.829 163.977,136.585 164.134,136.585 164.353 C 136.585 164.559,135.994 164.728,135.272 164.728 C 134.550 164.728,133.959 164.897,133.959 165.103 C 133.959 165.310,133.386 165.478,132.686 165.478 C 131.900 165.478,131.330 165.694,131.196 166.041 C 131.078 166.351,130.739 166.604,130.443 166.604 C 130.148 166.604,129.315 167.195,128.593 167.917 C 127.871 168.640,127.082 169.231,126.840 169.231 C 126.264 169.231,125.328 170.178,125.328 170.761 C 125.328 171.013,124.737 171.793,124.015 172.494 C 123.293 173.196,122.702 174.005,122.702 174.292 C 122.702 174.580,122.533 174.919,122.326 175.047 C 122.120 175.174,121.951 175.775,121.951 176.382 C 121.951 176.989,121.782 177.486,121.576 177.486 C 121.370 177.486,121.195 178.035,121.189 178.705 C 121.182 179.376,120.929 180.253,120.626 180.653 C 119.850 181.679,119.859 186.328,120.638 186.627 C 121.008 186.769,121.201 187.355,121.201 188.334 C 121.201 189.154,121.370 189.929,121.576 190.056 C 121.782 190.184,121.951 190.616,121.951 191.017 C 121.951 191.417,122.120 191.745,122.326 191.745 C 122.533 191.745,122.702 192.021,122.702 192.358 C 122.702 192.696,123.124 193.363,123.640 193.841 C 124.156 194.320,124.578 194.913,124.578 195.160 C 124.578 195.861,175.407 246.529,176.110 246.529 C 176.454 246.529,176.735 246.698,176.735 246.904 C 176.735 247.111,176.963 247.280,177.241 247.280 C 177.993 247.280,180.113 248.408,180.113 248.808 C 180.113 248.999,180.704 249.156,181.426 249.156 C 182.148 249.156,182.739 249.325,182.739 249.531 C 182.739 249.757,184.295 249.906,186.657 249.906 C 188.864 249.906,190.676 249.742,190.807 249.531 C 190.934 249.325,191.517 249.156,192.102 249.156 C 192.701 249.156,193.260 248.910,193.381 248.593 C 193.500 248.283,193.940 248.030,194.360 248.030 C 194.779 248.030,195.122 247.861,195.122 247.655 C 195.122 247.448,195.450 247.280,195.850 247.280 C 196.251 247.280,196.683 247.111,196.811 246.904 C 196.938 246.698,197.268 246.529,197.544 246.529 C 198.197 246.529,296.060 148.670,296.060 148.018 C 296.060 147.745,296.482 147.190,296.998 146.784 C 297.514 146.378,297.936 145.690,297.936 145.256 C 297.936 144.821,298.105 144.465,298.311 144.465 C 298.518 144.465,298.687 143.969,298.687 143.362 C 298.687 142.755,298.856 142.154,299.062 142.026 C 299.268 141.899,299.437 141.139,299.437 140.338 C 299.437 139.537,299.606 138.777,299.812 138.649 C 300.019 138.522,300.188 137.593,300.188 136.585 C 300.188 135.578,300.019 134.649,299.812 134.522 C 299.606 134.394,299.437 133.465,299.437 132.458 C 299.437 131.450,299.268 130.522,299.062 130.394 C 298.856 130.266,298.687 129.834,298.687 129.434 C 298.687 129.033,298.518 128.705,298.311 128.705 C 298.105 128.705,297.936 128.368,297.936 127.955 C 297.936 127.542,297.779 127.205,297.586 127.205 C 297.394 127.205,297.120 126.838,296.978 126.390 C 296.608 125.224,291.503 120.075,290.716 120.075 C 290.353 120.075,290.056 119.906,290.056 119.700 C 290.056 119.493,289.719 119.325,289.306 119.325 C 288.893 119.325,288.555 119.156,288.555 118.949 C 288.555 118.743,288.228 118.574,287.827 118.574 C 287.426 118.574,286.994 118.405,286.867 118.199 C 286.739 117.992,285.821 117.824,284.827 117.824 C 283.677 117.824,282.849 117.619,282.552 117.261 C 281.946 116.531,279.150 116.541,278.503 117.275 " stroke="none" fill="#fcfcfc" fill-rule="evenodd"></path>
      
      
      <path id="path3" d="M198.124 10.319 C 198.124 10.694,197.749 10.882,196.998 10.882 C 196.379 10.882,195.872 11.051,195.872 11.257 C 195.872 11.463,195.527 11.632,195.105 11.632 C 194.683 11.632,193.921 12.048,193.413 12.557 C 192.847 13.123,192.254 13.392,191.886 13.251 C 191.387 13.060,191.328 13.213,191.535 14.157 C 191.754 15.156,191.669 15.322,190.827 15.534 C 190.300 15.666,189.869 16.024,189.869 16.330 C 189.869 16.635,189.692 16.886,189.476 16.886 C 188.793 16.886,187.242 18.697,187.242 19.495 C 187.242 19.917,187.065 20.263,186.850 20.263 C 186.340 20.263,184.615 21.988,184.615 22.497 C 184.615 22.713,184.447 22.889,184.240 22.889 C 184.034 22.889,183.865 23.227,183.865 23.640 C 183.865 24.053,183.684 24.390,183.463 24.390 C 182.984 24.390,181.989 25.329,181.989 25.782 C 181.989 25.957,181.651 26.344,181.238 26.642 C 180.826 26.939,180.488 27.392,180.488 27.647 C 180.488 28.214,177.670 31.144,177.126 31.144 C 176.911 31.144,176.735 31.499,176.735 31.932 C 176.735 32.365,176.229 33.193,175.610 33.771 C 174.991 34.349,174.484 35.008,174.484 35.235 C 174.484 35.462,174.303 35.647,174.082 35.647 C 173.474 35.647,172.608 36.640,172.608 37.336 C 172.608 37.936,171.768 39.024,171.304 39.024 C 170.815 39.024,169.231 40.896,169.231 41.473 C 169.231 42.161,168.361 43.152,167.757 43.152 C 167.536 43.152,167.355 43.368,167.355 43.632 C 167.355 43.896,167.017 44.355,166.604 44.653 C 166.191 44.950,165.854 45.411,165.854 45.676 C 165.854 45.941,165.094 46.907,164.165 47.823 C 163.236 48.738,162.477 49.666,162.477 49.884 C 162.477 50.103,162.092 50.281,161.621 50.281 C 161.151 50.281,160.523 50.619,160.225 51.032 C 159.873 51.520,159.254 51.782,158.454 51.782 C 157.777 51.782,157.223 51.951,157.223 52.158 C 157.223 52.380,155.847 52.533,153.846 52.533 C 151.845 52.533,150.469 52.380,150.469 52.158 C 150.469 51.951,149.878 51.782,149.156 51.782 C 148.433 51.782,147.842 51.614,147.842 51.407 C 147.842 51.201,147.083 51.032,146.154 51.032 C 145.225 51.032,144.465 50.863,144.465 50.657 C 144.465 50.450,143.621 50.281,142.589 50.281 C 141.172 50.281,140.713 50.144,140.713 49.719 C 140.713 49.302,140.275 49.156,139.024 49.156 C 138.096 49.156,137.336 48.987,137.336 48.780 C 137.336 48.574,136.829 48.405,136.210 48.405 C 135.591 48.405,135.084 48.236,135.084 48.030 C 135.084 47.824,134.240 47.655,133.208 47.655 C 131.791 47.655,131.332 47.517,131.332 47.092 C 131.332 46.675,130.894 46.529,129.644 46.529 C 128.638 46.529,127.955 46.357,127.955 46.105 C 127.955 45.823,127.378 45.746,126.238 45.875 C 124.983 46.016,124.468 45.928,124.322 45.548 C 124.212 45.262,123.634 45.028,123.037 45.028 C 122.440 45.028,121.951 44.859,121.951 44.653 C 121.951 44.447,121.191 44.278,120.263 44.278 C 119.012 44.278,118.574 44.132,118.574 43.715 C 118.574 43.298,118.136 43.152,116.886 43.152 C 115.957 43.152,115.197 42.983,115.197 42.777 C 115.197 42.570,114.606 42.402,113.884 42.402 C 113.161 42.402,112.570 42.233,112.570 42.026 C 112.570 41.818,111.570 41.651,110.319 41.651 C 108.192 41.651,107.288 41.159,108.724 40.784 C 109.085 40.690,107.946 40.612,106.191 40.612 C 104.437 40.612,103.297 40.690,103.659 40.784 C 105.225 41.193,104.301 41.915,102.439 41.736 C 101.191 41.616,100.563 41.697,100.563 41.979 C 100.563 42.211,100.225 42.402,99.812 42.402 C 99.400 42.402,99.062 42.570,99.062 42.777 C 99.062 42.983,98.640 43.152,98.124 43.152 C 97.608 43.152,97.186 43.329,97.186 43.544 C 97.186 44.054,95.461 45.779,94.951 45.779 C 94.736 45.779,94.559 46.201,94.559 46.717 C 94.559 47.233,94.390 47.655,94.184 47.655 C 93.977 47.655,93.809 47.992,93.809 48.405 C 93.809 48.818,93.640 49.156,93.433 49.156 C 93.227 49.156,93.058 49.747,93.058 50.469 C 93.058 51.386,92.888 51.782,92.495 51.782 C 92.014 51.782,91.932 52.846,91.932 59.099 C 91.932 64.031,91.802 66.417,91.532 66.417 C 91.257 66.417,91.169 69.165,91.251 75.235 C 91.343 82.103,91.266 84.053,90.901 84.053 C 90.543 84.053,90.432 85.616,90.432 90.619 C 90.432 94.747,90.292 97.186,90.056 97.186 C 89.850 97.186,89.681 98.030,89.681 99.062 C 89.681 100.183,89.514 100.938,89.266 100.938 C 89.037 100.938,88.947 100.685,89.066 100.375 C 89.185 100.066,89.106 99.812,88.889 99.812 C 88.664 99.812,88.549 100.411,88.620 101.220 C 88.689 102.009,88.578 102.606,88.368 102.579 C 87.812 102.508,83.865 106.662,83.865 107.317 C 83.865 107.685,83.573 107.839,83.021 107.763 C 82.556 107.698,82.176 107.825,82.176 108.044 C 82.176 108.263,81.501 108.443,80.675 108.443 C 79.850 108.443,79.174 108.612,79.174 108.818 C 79.174 109.024,78.583 109.193,77.861 109.193 C 77.139 109.193,76.548 109.362,76.548 109.568 C 76.548 109.775,76.210 109.944,75.797 109.944 C 75.380 109.944,75.047 110.194,75.047 110.507 C 75.047 110.900,74.651 111.069,73.734 111.069 C 73.011 111.069,72.420 111.238,72.420 111.445 C 72.420 111.651,72.073 111.820,71.648 111.820 C 71.223 111.820,70.979 111.989,71.107 112.195 C 71.570 112.945,70.909 113.252,69.762 112.819 C 68.776 112.447,68.537 112.479,68.127 113.039 C 67.863 113.401,67.201 113.696,66.657 113.696 C 66.112 113.696,65.666 113.865,65.666 114.071 C 65.666 114.278,65.244 114.447,64.728 114.447 C 64.212 114.447,63.790 114.615,63.790 114.822 C 63.790 115.028,63.199 115.197,62.477 115.197 C 61.754 115.197,61.163 115.366,61.163 115.572 C 61.163 115.779,60.572 115.947,59.850 115.947 C 58.933 115.947,58.537 116.117,58.537 116.510 C 58.537 116.823,58.203 117.073,57.786 117.073 C 57.373 117.073,57.036 117.242,57.036 117.448 C 57.036 117.655,56.445 117.824,55.722 117.824 C 55.000 117.824,54.409 117.992,54.409 118.199 C 54.409 118.405,53.987 118.574,53.471 118.574 C 52.955 118.574,52.533 118.743,52.533 118.949 C 52.533 119.156,52.105 119.325,51.583 119.325 C 51.061 119.325,50.536 119.578,50.417 119.887 C 50.284 120.235,49.714 120.450,48.928 120.450 C 48.228 120.450,47.655 120.619,47.655 120.826 C 47.655 121.032,47.233 121.201,46.717 121.201 C 46.201 121.201,45.779 121.370,45.779 121.576 C 45.779 121.782,45.188 121.951,44.465 121.951 C 43.548 121.951,43.152 122.121,43.152 122.514 C 43.152 122.827,42.818 123.077,42.402 123.077 C 41.989 123.077,41.651 123.246,41.651 123.452 C 41.651 123.659,41.229 123.827,40.713 123.827 C 40.197 123.827,39.775 123.996,39.775 124.203 C 39.775 124.409,39.508 124.578,39.183 124.578 C 38.328 124.578,35.647 127.412,35.647 128.316 C 35.647 128.746,35.401 129.081,35.084 129.081 C 34.772 129.081,34.522 129.414,34.522 129.831 C 34.522 130.244,34.353 130.582,34.146 130.582 C 33.940 130.582,33.771 131.341,33.771 132.270 C 33.771 133.199,33.602 133.959,33.396 133.959 C 33.187 133.959,33.021 134.959,33.021 136.210 C 33.021 137.461,33.187 138.462,33.396 138.462 C 33.602 138.462,33.771 139.221,33.771 140.150 C 33.771 141.079,33.940 141.839,34.146 141.839 C 34.353 141.839,34.522 142.176,34.522 142.589 C 34.522 143.006,34.772 143.340,35.084 143.340 C 35.420 143.340,35.647 143.685,35.647 144.195 C 35.647 144.665,35.985 145.293,36.398 145.591 C 36.811 145.888,37.148 146.517,37.148 146.987 C 37.148 147.458,37.329 147.842,37.550 147.842 C 38.185 147.842,39.024 148.848,39.024 149.609 C 39.024 149.991,39.362 150.547,39.775 150.844 C 40.188 151.142,40.525 151.662,40.525 152.000 C 40.525 152.339,40.947 152.932,41.463 153.320 C 41.979 153.707,42.402 154.322,42.402 154.686 C 42.402 155.049,42.570 155.347,42.777 155.347 C 42.983 155.347,43.152 155.600,43.152 155.910 C 43.152 156.220,43.405 156.473,43.715 156.473 C 44.024 156.473,44.278 156.738,44.278 157.062 C 44.278 157.641,45.091 158.673,45.671 158.831 C 45.834 158.876,45.918 159.292,45.858 159.756 C 45.799 160.220,45.925 160.600,46.140 160.600 C 46.354 160.600,46.529 161.023,46.529 161.538 C 46.529 162.054,46.710 162.477,46.931 162.477 C 47.529 162.477,48.405 163.464,48.405 164.138 C 48.405 164.463,48.574 164.728,48.780 164.728 C 48.987 164.728,49.156 164.981,49.156 165.291 C 49.156 165.600,49.409 165.854,49.719 165.854 C 50.031 165.854,50.281 166.187,50.281 166.604 C 50.281 167.017,50.450 167.355,50.657 167.355 C 50.863 167.355,51.032 167.608,51.032 167.917 C 51.032 168.227,51.201 168.480,51.407 168.480 C 51.614 168.480,51.782 168.746,51.782 169.070 C 51.782 169.744,52.659 170.732,53.256 170.732 C 53.478 170.732,53.659 171.117,53.659 171.587 C 53.659 172.057,53.996 172.686,54.409 172.983 C 54.822 173.281,55.159 173.909,55.159 174.379 C 55.159 174.850,55.340 175.235,55.562 175.235 C 56.224 175.235,57.036 176.253,57.036 177.084 C 57.036 177.511,57.205 177.861,57.411 177.861 C 57.617 177.861,57.786 178.199,57.786 178.612 C 57.786 179.024,57.955 179.362,58.161 179.362 C 58.368 179.362,58.537 179.615,58.537 179.925 C 58.537 180.235,58.790 180.488,59.099 180.488 C 59.475 180.488,59.662 180.863,59.662 181.614 C 59.662 182.233,59.831 182.739,60.038 182.739 C 60.261 182.739,60.413 184.178,60.413 186.304 C 60.413 188.430,60.261 189.869,60.038 189.869 C 59.831 189.869,59.662 190.460,59.662 191.182 C 59.662 192.107,59.494 192.495,59.092 192.495 C 58.672 192.495,58.584 192.741,58.758 193.433 C 58.895 193.981,58.832 194.371,58.605 194.371 C 58.391 194.371,58.139 194.076,58.045 193.715 C 57.916 193.221,57.862 193.267,57.830 193.902 C 57.806 194.367,57.617 194.747,57.411 194.747 C 57.205 194.747,57.036 195.096,57.036 195.524 C 57.036 196.355,56.224 197.373,55.562 197.373 C 55.340 197.373,55.159 197.758,55.159 198.229 C 55.159 198.699,54.822 199.327,54.409 199.625 C 53.996 199.922,53.659 200.551,53.659 201.021 C 53.659 201.491,53.478 201.876,53.256 201.876 C 52.621 201.876,51.782 202.881,51.782 203.643 C 51.782 204.025,51.445 204.581,51.032 204.878 C 50.619 205.176,50.281 205.719,50.281 206.087 C 50.281 206.454,50.028 206.754,49.719 206.754 C 49.409 206.754,49.156 207.008,49.156 207.317 C 49.156 207.627,48.987 207.880,48.780 207.880 C 48.574 207.880,48.405 208.218,48.405 208.630 C 48.405 209.043,48.217 209.381,47.986 209.381 C 47.738 209.381,47.643 209.777,47.753 210.354 C 47.908 211.165,47.759 211.391,46.859 211.704 C 46.114 211.964,45.779 212.335,45.779 212.899 C 45.779 213.350,45.441 213.961,45.028 214.259 C 44.615 214.556,44.278 215.024,44.278 215.298 C 44.278 215.572,43.856 216.187,43.340 216.665 C 42.824 217.143,42.402 217.811,42.402 218.148 C 42.402 218.486,42.233 218.762,42.026 218.762 C 41.820 218.762,41.651 219.015,41.651 219.325 C 41.651 219.634,41.398 219.887,41.088 219.887 C 40.779 219.887,40.525 220.188,40.525 220.555 C 40.525 220.922,40.188 221.466,39.775 221.764 C 39.362 222.061,39.024 222.617,39.024 222.999 C 39.024 223.760,38.185 224.765,37.550 224.765 C 37.329 224.765,37.148 225.188,37.148 225.704 C 37.148 226.220,36.961 226.642,36.732 226.642 C 36.473 226.642,36.408 227.005,36.559 227.607 C 36.766 228.434,36.638 228.634,35.661 229.003 C 34.980 229.260,34.522 229.701,34.522 230.101 C 34.522 230.469,34.353 230.769,34.146 230.769 C 33.940 230.769,33.771 231.529,33.771 232.458 C 33.771 233.386,33.602 234.146,33.396 234.146 C 33.187 234.146,33.021 235.147,33.021 236.398 C 33.021 237.649,33.187 238.649,33.396 238.649 C 33.602 238.649,33.771 239.409,33.771 240.338 C 33.771 241.266,33.940 242.026,34.146 242.026 C 34.353 242.026,34.522 242.369,34.522 242.789 C 34.522 243.208,34.775 243.648,35.084 243.767 C 35.394 243.886,35.647 244.265,35.647 244.610 C 35.647 244.955,35.985 245.481,36.398 245.779 C 36.811 246.076,37.148 246.536,37.148 246.800 C 37.148 247.064,37.402 247.280,37.711 247.280 C 38.021 247.280,38.274 247.448,38.274 247.655 C 38.274 247.861,38.572 248.030,38.935 248.030 C 39.299 248.030,39.914 248.452,40.301 248.968 C 40.765 249.586,41.372 249.906,42.079 249.906 C 42.669 249.906,43.152 250.075,43.152 250.281 C 43.152 250.488,43.743 250.657,44.465 250.657 C 45.188 250.657,45.779 250.826,45.779 251.032 C 45.779 251.238,46.201 251.407,46.717 251.407 C 47.233 251.407,47.655 251.576,47.655 251.782 C 47.655 251.989,48.246 252.158,48.968 252.158 C 49.932 252.158,50.281 252.320,50.281 252.770 C 50.281 253.259,50.544 253.339,51.595 253.168 C 52.585 253.008,52.908 253.088,52.908 253.495 C 52.908 253.791,53.246 254.034,53.659 254.034 C 54.071 254.034,54.409 254.203,54.409 254.409 C 54.409 254.615,55.000 254.784,55.722 254.784 C 56.640 254.784,57.036 254.954,57.036 255.347 C 57.036 255.660,57.369 255.910,57.786 255.910 C 58.199 255.910,58.537 256.079,58.537 256.285 C 58.537 256.492,59.128 256.660,59.850 256.660 C 60.577 256.660,61.163 256.850,61.163 257.085 C 61.163 257.364,61.679 257.441,62.664 257.308 C 63.799 257.156,64.165 257.236,64.165 257.634 C 64.165 257.924,64.503 258.161,64.916 258.161 C 65.332 258.161,65.666 258.412,65.666 258.724 C 65.666 259.099,66.041 259.287,66.792 259.287 C 67.411 259.287,67.917 259.456,67.917 259.662 C 67.917 259.869,68.340 260.038,68.856 260.038 C 69.371 260.038,69.794 260.206,69.794 260.413 C 69.794 260.619,70.385 260.788,71.107 260.788 C 71.829 260.788,72.420 260.957,72.420 261.163 C 72.420 261.370,73.011 261.538,73.734 261.538 C 74.651 261.538,75.047 261.708,75.047 262.101 C 75.047 262.414,75.380 262.664,75.797 262.664 C 76.210 262.664,76.548 262.833,76.548 263.039 C 76.548 263.246,77.139 263.415,77.861 263.415 C 78.583 263.415,79.174 263.583,79.174 263.790 C 79.174 263.996,79.597 264.165,80.113 264.165 C 80.696 264.165,81.051 264.378,81.051 264.728 C 81.051 265.041,81.384 265.291,81.801 265.291 C 82.214 265.291,82.552 265.460,82.552 265.666 C 82.552 265.872,82.897 266.041,83.319 266.041 C 84.118 266.041,85.929 267.592,85.929 268.276 C 85.929 268.491,86.110 268.668,86.331 268.668 C 86.993 268.668,87.805 269.687,87.805 270.517 C 87.805 270.945,87.974 271.295,88.180 271.295 C 88.386 271.295,88.555 271.632,88.555 272.045 C 88.555 272.462,88.806 272.795,89.118 272.795 C 89.511 272.795,89.681 273.192,89.681 274.109 C 89.681 274.831,89.850 275.422,90.056 275.422 C 90.292 275.422,90.432 277.851,90.432 281.957 C 90.432 286.395,90.565 288.537,90.846 288.631 C 91.135 288.727,91.243 291.407,91.203 297.480 C 91.165 303.342,91.274 306.191,91.539 306.191 C 91.800 306.191,91.932 308.655,91.932 313.508 C 91.932 319.762,92.014 320.826,92.495 320.826 C 92.888 320.826,93.058 321.222,93.058 322.139 C 93.058 322.861,93.227 323.452,93.433 323.452 C 93.640 323.452,93.809 323.790,93.809 324.203 C 93.809 324.615,93.977 324.953,94.184 324.953 C 94.390 324.953,94.559 325.375,94.559 325.891 C 94.559 326.407,94.740 326.829,94.961 326.829 C 95.398 326.829,96.435 327.753,96.435 328.143 C 96.435 328.665,97.549 329.456,98.285 329.456 C 98.712 329.456,99.062 329.625,99.062 329.831 C 99.062 330.038,99.400 330.206,99.812 330.206 C 100.225 330.206,100.563 330.375,100.563 330.582 C 100.563 330.788,101.154 330.957,101.876 330.957 C 102.793 330.957,103.189 331.127,103.189 331.520 C 103.189 331.973,103.773 332.083,106.191 332.083 C 108.610 332.083,109.193 331.973,109.193 331.520 C 109.193 331.103,109.631 330.957,110.882 330.957 C 111.811 330.957,112.570 330.788,112.570 330.582 C 112.570 330.375,113.330 330.206,114.259 330.206 C 115.188 330.206,115.947 330.038,115.947 329.831 C 115.947 329.625,116.538 329.456,117.261 329.456 C 117.983 329.456,118.574 329.287,118.574 329.081 C 118.574 328.874,119.334 328.705,120.263 328.705 C 121.513 328.705,121.951 328.560,121.951 328.143 C 121.951 327.726,122.389 327.580,123.640 327.580 C 124.568 327.580,125.328 327.411,125.328 327.205 C 125.328 326.998,125.835 326.829,126.454 326.829 C 127.188 326.829,127.580 326.640,127.580 326.284 C 127.580 325.850,127.963 325.784,129.456 325.961 C 131.035 326.148,131.332 326.086,131.332 325.568 C 131.332 325.080,131.720 324.953,133.208 324.953 C 134.240 324.953,135.084 324.784,135.084 324.578 C 135.084 324.371,135.844 324.203,136.773 324.203 C 137.702 324.203,138.462 324.034,138.462 323.827 C 138.462 323.621,138.968 323.452,139.587 323.452 C 140.206 323.452,140.713 323.283,140.713 323.077 C 140.713 322.871,141.557 322.702,142.589 322.702 C 144.007 322.702,144.465 322.564,144.465 322.139 C 144.465 321.722,144.903 321.576,146.154 321.576 C 147.083 321.576,147.842 321.407,147.842 321.201 C 147.842 320.994,148.250 320.826,148.749 320.826 C 149.248 320.826,149.727 320.614,149.813 320.356 C 149.997 319.803,156.953 319.928,157.161 320.488 C 157.230 320.674,157.790 320.826,158.407 320.826 C 159.530 320.826,160.600 321.545,160.600 322.300 C 160.600 322.521,160.944 322.702,161.363 322.702 C 162.146 322.702,164.728 324.996,164.728 325.691 C 164.728 325.904,164.981 326.079,165.291 326.079 C 165.604 326.079,165.854 326.412,165.854 326.829 C 165.854 327.242,166.023 327.580,166.229 327.580 C 166.435 327.580,166.604 327.761,166.604 327.982 C 166.604 328.419,167.528 329.456,167.917 329.456 C 168.386 329.456,169.231 330.536,169.231 331.135 C 169.231 331.808,170.850 333.583,171.465 333.583 C 171.681 333.583,171.857 333.837,171.857 334.146 C 171.857 334.456,172.026 334.709,172.233 334.709 C 172.439 334.709,172.608 334.975,172.608 335.299 C 172.608 335.973,173.484 336.961,174.082 336.961 C 174.303 336.961,174.484 337.177,174.484 337.441 C 174.484 337.705,174.822 338.164,175.235 338.462 C 175.647 338.759,175.985 339.315,175.985 339.697 C 175.985 340.360,176.799 341.463,177.289 341.463 C 177.859 341.463,179.366 343.389,179.406 344.167 C 179.438 344.802,179.494 344.856,179.621 344.371 C 179.879 343.384,180.488 343.582,180.488 344.653 C 180.488 345.169,180.657 345.591,180.863 345.591 C 181.069 345.591,181.238 345.768,181.238 345.983 C 181.238 346.493,182.963 348.218,183.473 348.218 C 183.688 348.218,183.865 348.561,183.865 348.981 C 183.865 349.763,186.159 352.345,186.854 352.345 C 187.068 352.345,187.242 352.730,187.242 353.200 C 187.242 353.671,187.580 354.299,187.992 354.597 C 188.405 354.894,188.743 355.354,188.743 355.618 C 188.743 355.882,188.924 356.098,189.145 356.098 C 189.743 356.098,190.619 357.085,190.619 357.759 C 190.619 358.084,190.788 358.349,190.994 358.349 C 191.201 358.349,191.370 358.584,191.370 358.872 C 191.370 359.159,191.623 359.492,191.932 359.610 C 192.242 359.729,192.495 359.663,192.495 359.463 C 192.495 359.263,192.664 359.099,192.871 359.099 C 193.077 359.099,193.246 359.280,193.246 359.501 C 193.246 360.164,194.264 360.976,195.095 360.976 C 195.536 360.976,195.872 361.219,195.872 361.538 C 195.872 361.914,196.248 362.101,196.998 362.101 C 197.617 362.101,198.124 362.270,198.124 362.477 C 198.124 362.699,199.500 362.852,201.501 362.852 C 204.297 362.852,204.878 362.752,204.878 362.272 C 204.878 361.813,205.151 361.743,206.187 361.938 C 207.199 362.128,207.549 362.046,207.728 361.579 C 207.856 361.247,208.207 360.976,208.510 360.976 C 209.150 360.976,210.131 360.084,210.131 359.501 C 210.131 359.280,210.300 359.099,210.507 359.099 C 210.713 359.099,210.882 359.365,210.882 359.689 C 210.882 360.213,210.944 360.216,211.445 359.716 C 211.754 359.406,212.008 358.972,212.008 358.751 C 212.008 358.530,212.176 358.349,212.383 358.349 C 212.589 358.349,212.758 358.011,212.758 357.598 C 212.758 357.186,212.939 356.848,213.160 356.848 C 213.639 356.848,214.634 355.909,214.634 355.457 C 214.634 355.281,214.972 354.894,215.385 354.597 C 215.797 354.299,216.135 353.671,216.135 353.200 C 216.135 352.730,216.321 352.345,216.547 352.345 C 216.774 352.345,217.433 351.839,218.011 351.220 C 218.590 350.600,219.248 350.094,219.475 350.094 C 219.702 350.094,219.887 349.739,219.887 349.306 C 219.887 348.873,220.394 348.046,221.013 347.467 C 221.632 346.889,222.139 346.230,222.139 346.003 C 222.139 345.777,222.320 345.591,222.541 345.591 C 223.145 345.591,224.015 344.600,224.015 343.912 C 224.015 343.335,225.600 341.463,226.089 341.463 C 226.552 341.463,227.392 340.375,227.392 339.775 C 227.392 339.079,228.258 338.086,228.866 338.086 C 229.087 338.086,229.268 337.870,229.268 337.606 C 229.268 337.342,229.606 336.883,230.019 336.585 C 230.432 336.288,230.769 335.744,230.769 335.377 C 230.769 335.010,230.938 334.709,231.144 334.709 C 231.351 334.709,231.520 334.456,231.520 334.146 C 231.520 333.837,231.696 333.583,231.912 333.583 C 232.596 333.583,234.146 331.773,234.146 330.974 C 234.146 330.552,234.323 330.206,234.539 330.206 C 235.048 330.206,236.773 328.481,236.773 327.972 C 236.773 327.756,236.942 327.580,237.148 327.580 C 237.355 327.580,237.523 327.158,237.523 326.642 C 237.523 326.126,237.709 325.704,237.936 325.704 C 238.163 325.704,238.821 325.197,239.400 324.578 C 239.978 323.959,240.637 323.452,240.863 323.452 C 241.090 323.452,241.276 323.283,241.276 323.077 C 241.276 322.871,241.576 322.702,241.944 322.702 C 242.340 322.702,242.783 322.249,243.031 321.593 C 243.413 320.579,243.564 320.503,244.801 320.704 C 245.687 320.848,246.154 320.777,246.154 320.499 C 246.154 319.880,252.033 319.922,252.284 320.544 C 252.397 320.824,252.486 320.749,252.503 320.356 C 252.539 319.558,253.659 319.468,253.659 320.263 C 253.659 320.613,254.013 320.826,254.597 320.826 C 255.113 320.826,255.535 320.994,255.535 321.201 C 255.535 321.407,256.379 321.576,257.411 321.576 C 258.828 321.576,259.287 321.714,259.287 322.139 C 259.287 322.556,259.725 322.702,260.976 322.702 C 261.904 322.702,262.664 322.871,262.664 323.077 C 262.664 323.283,263.171 323.452,263.790 323.452 C 264.409 323.452,264.916 323.621,264.916 323.827 C 264.916 324.034,265.760 324.203,266.792 324.203 C 267.824 324.203,268.668 324.371,268.668 324.578 C 268.668 324.784,269.428 324.953,270.356 324.953 C 271.650 324.953,272.045 325.093,272.045 325.550 C 272.045 326.029,272.395 326.121,273.827 326.019 C 275.105 325.927,275.583 326.024,275.516 326.360 C 275.455 326.664,275.885 326.829,276.735 326.829 C 277.458 326.829,278.049 326.998,278.049 327.205 C 278.049 327.411,278.809 327.580,279.737 327.580 C 280.988 327.580,281.426 327.726,281.426 328.143 C 281.426 328.560,281.864 328.705,283.114 328.705 C 284.043 328.705,284.803 328.874,284.803 329.081 C 284.803 329.287,285.394 329.456,286.116 329.456 C 286.839 329.456,287.430 329.625,287.430 329.831 C 287.430 330.038,288.189 330.206,289.118 330.206 C 290.047 330.206,290.807 330.375,290.807 330.582 C 290.807 330.788,291.567 330.957,292.495 330.957 C 293.746 330.957,294.184 331.103,294.184 331.520 C 294.184 331.973,294.768 332.083,297.186 332.083 C 299.604 332.083,300.188 331.973,300.188 331.520 C 300.188 331.127,300.584 330.957,301.501 330.957 C 302.223 330.957,302.814 330.788,302.814 330.582 C 302.814 330.375,303.152 330.206,303.565 330.206 C 303.977 330.206,304.315 330.038,304.315 329.831 C 304.315 329.625,304.665 329.456,305.092 329.456 C 305.923 329.456,306.942 328.644,306.942 327.982 C 306.942 327.761,307.123 327.580,307.344 327.580 C 308.006 327.580,308.818 326.561,308.818 325.730 C 308.818 325.303,308.987 324.953,309.193 324.953 C 309.400 324.953,309.568 324.615,309.568 324.203 C 309.568 323.790,309.737 323.452,309.944 323.452 C 310.150 323.452,310.319 322.861,310.319 322.139 C 310.319 321.201,310.486 320.826,310.902 320.826 C 311.412 320.826,311.477 319.897,311.420 313.430 C 311.373 308.120,311.477 305.993,311.788 305.889 C 312.099 305.786,312.210 303.510,312.180 297.816 C 312.151 292.454,312.269 289.844,312.542 289.753 C 312.811 289.663,312.946 287.255,312.946 282.520 C 312.946 276.461,313.028 275.422,313.508 275.422 C 313.902 275.422,314.071 275.026,314.071 274.109 C 314.071 273.386,314.240 272.795,314.447 272.795 C 314.653 272.795,314.822 272.458,314.822 272.045 C 314.822 271.632,314.991 271.295,315.197 271.295 C 315.403 271.295,315.572 270.945,315.572 270.517 C 315.572 269.687,316.384 268.668,317.046 268.668 C 317.267 268.668,317.448 268.491,317.448 268.276 C 317.448 267.592,319.259 266.041,320.058 266.041 C 320.480 266.041,320.826 265.872,320.826 265.666 C 320.826 265.460,321.163 265.291,321.576 265.291 C 321.993 265.291,322.326 265.041,322.326 264.728 C 322.326 264.378,322.681 264.165,323.265 264.165 C 323.780 264.165,324.203 263.996,324.203 263.790 C 324.203 263.583,324.794 263.415,325.516 263.415 C 326.238 263.415,326.829 263.246,326.829 263.039 C 326.829 262.833,327.148 262.664,327.538 262.664 C 327.979 262.664,328.227 262.420,328.195 262.018 C 328.152 261.494,328.410 261.393,329.550 261.484 C 330.374 261.549,330.957 261.429,330.957 261.192 C 330.957 260.970,331.548 260.788,332.270 260.788 C 332.992 260.788,333.583 260.619,333.583 260.413 C 333.583 260.206,334.006 260.038,334.522 260.038 C 335.038 260.038,335.460 259.869,335.460 259.662 C 335.460 259.456,335.972 259.287,336.597 259.287 C 337.262 259.287,337.824 259.053,337.951 258.724 C 338.069 258.415,338.402 258.161,338.689 258.161 C 338.977 258.161,339.212 257.992,339.212 257.786 C 339.212 257.580,339.887 257.411,340.713 257.411 C 341.538 257.411,342.214 257.242,342.214 257.036 C 342.214 256.829,342.805 256.660,343.527 256.660 C 344.250 256.660,344.841 256.492,344.841 256.285 C 344.841 256.079,345.178 255.910,345.591 255.910 C 346.008 255.910,346.341 255.660,346.341 255.347 C 346.341 254.954,346.738 254.784,347.655 254.784 C 348.377 254.784,348.968 254.615,348.968 254.409 C 348.968 254.203,349.559 254.034,350.281 254.034 C 351.004 254.034,351.595 253.865,351.595 253.659 C 351.595 253.452,352.017 253.283,352.533 253.283 C 353.117 253.283,353.471 253.071,353.471 252.720 C 353.471 252.345,353.846 252.158,354.597 252.158 C 355.216 252.158,355.722 251.989,355.722 251.782 C 355.722 251.576,356.144 251.407,356.660 251.407 C 357.176 251.407,357.598 251.238,357.598 251.032 C 357.598 250.826,358.189 250.657,358.912 250.657 C 359.634 250.657,360.225 250.488,360.225 250.281 C 360.225 250.075,360.816 249.906,361.538 249.906 C 362.261 249.906,362.852 249.725,362.852 249.504 C 362.852 248.896,363.844 248.030,364.540 248.030 C 365.193 248.030,366.229 247.176,366.229 246.639 C 366.229 246.463,366.567 246.076,366.979 245.779 C 367.392 245.481,367.730 244.937,367.730 244.570 C 367.730 244.203,367.983 243.902,368.293 243.902 C 368.643 243.902,368.856 243.548,368.856 242.964 C 368.856 242.448,369.037 242.026,369.259 242.026 C 369.505 242.026,369.620 241.340,369.555 240.270 C 369.485 239.144,369.610 238.460,369.902 238.363 C 370.456 238.178,370.533 234.146,369.981 234.146 C 369.775 234.146,369.606 233.386,369.606 232.458 C 369.606 231.529,369.437 230.769,369.231 230.769 C 369.024 230.769,368.856 230.432,368.856 230.019 C 368.856 229.602,368.605 229.268,368.293 229.268 C 367.957 229.268,367.730 228.923,367.730 228.413 C 367.730 227.943,367.392 227.314,366.979 227.017 C 366.567 226.719,366.229 226.163,366.229 225.782 C 366.229 225.020,365.390 224.015,364.755 224.015 C 364.534 224.015,364.353 223.630,364.353 223.160 C 364.353 222.689,364.015 222.061,363.602 221.764 C 363.189 221.466,362.852 220.922,362.852 220.555 C 362.852 220.188,362.598 219.887,362.289 219.887 C 361.979 219.887,361.726 219.634,361.726 219.325 C 361.726 219.015,361.557 218.762,361.351 218.762 C 361.144 218.762,360.976 218.501,360.976 218.183 C 360.976 217.865,360.638 217.242,360.225 216.799 C 359.812 216.356,359.475 215.688,359.475 215.314 C 359.475 214.940,359.294 214.634,359.073 214.634 C 358.410 214.634,357.598 213.616,357.598 212.785 C 357.598 212.357,357.430 212.008,357.223 212.008 C 357.017 212.008,356.848 211.660,356.848 211.235 C 356.848 210.783,356.682 210.565,356.448 210.710 C 356.227 210.846,355.954 210.603,355.841 210.169 C 355.728 209.736,355.486 209.381,355.303 209.381 C 355.121 209.381,354.972 209.043,354.972 208.630 C 354.972 208.218,354.803 207.880,354.597 207.880 C 354.390 207.880,354.221 207.627,354.221 207.317 C 354.221 207.008,354.053 206.754,353.846 206.754 C 353.640 206.754,353.471 206.417,353.471 206.004 C 353.471 205.591,353.290 205.253,353.069 205.253 C 352.461 205.253,351.595 204.261,351.595 203.565 C 351.595 202.869,350.728 201.876,350.121 201.876 C 349.899 201.876,349.719 201.491,349.719 201.021 C 349.719 200.551,349.381 199.922,348.968 199.625 C 348.555 199.327,348.218 198.771,348.218 198.389 C 348.218 197.628,347.379 196.623,346.744 196.623 C 346.522 196.623,346.341 196.201,346.341 195.685 C 346.341 195.169,346.173 194.747,345.966 194.747 C 345.760 194.747,345.591 194.481,345.591 194.157 C 345.591 193.483,344.715 192.495,344.117 192.495 C 343.896 192.495,343.715 191.904,343.715 191.182 C 343.715 190.460,343.546 189.869,343.340 189.869 C 343.116 189.869,342.964 188.430,342.964 186.304 C 342.964 184.178,343.116 182.739,343.340 182.739 C 343.546 182.739,343.715 182.233,343.715 181.614 C 343.715 180.863,343.902 180.488,344.278 180.488 C 344.587 180.488,344.841 180.235,344.841 179.925 C 344.841 179.615,345.009 179.362,345.216 179.362 C 345.422 179.362,345.591 179.024,345.591 178.612 C 345.591 178.199,345.772 177.861,345.993 177.861 C 346.214 177.861,346.341 177.412,346.275 176.862 C 346.138 175.732,346.934 175.204,347.205 176.246 C 347.343 176.781,347.389 176.746,347.424 176.079 C 347.448 175.614,347.636 175.235,347.842 175.235 C 348.049 175.235,348.218 174.850,348.218 174.379 C 348.218 173.909,348.555 173.281,348.968 172.983 C 349.381 172.686,349.719 172.057,349.719 171.587 C 349.719 171.117,349.899 170.732,350.121 170.732 C 350.718 170.732,351.595 169.744,351.595 169.070 C 351.595 168.746,351.764 168.480,351.970 168.480 C 352.176 168.480,352.345 168.227,352.345 167.917 C 352.345 167.608,352.598 167.355,352.908 167.355 C 353.221 167.355,353.471 167.021,353.471 166.604 C 353.471 166.191,353.640 165.854,353.846 165.854 C 354.053 165.854,354.221 165.600,354.221 165.291 C 354.221 164.981,354.390 164.728,354.597 164.728 C 354.803 164.728,354.972 164.463,354.972 164.138 C 354.972 163.464,355.848 162.477,356.446 162.477 C 356.667 162.477,356.848 162.092,356.848 161.621 C 356.848 161.151,357.186 160.523,357.598 160.225 C 358.011 159.928,358.349 159.299,358.349 158.829 C 358.349 158.319,358.576 157.974,358.912 157.974 C 359.225 157.974,359.475 157.640,359.475 157.223 C 359.475 156.811,359.644 156.473,359.850 156.473 C 360.056 156.473,360.225 156.220,360.225 155.910 C 360.225 155.600,360.394 155.347,360.600 155.347 C 360.807 155.347,360.976 155.082,360.976 154.757 C 360.976 154.084,361.852 153.096,362.450 153.096 C 362.671 153.096,362.852 152.711,362.852 152.240 C 362.852 151.770,363.189 151.142,363.602 150.844 C 364.015 150.547,364.353 149.919,364.353 149.448 C 364.353 148.978,364.534 148.593,364.755 148.593 C 365.390 148.593,366.229 147.588,366.229 146.826 C 366.229 146.444,366.567 145.888,366.979 145.591 C 367.392 145.293,367.730 144.665,367.730 144.195 C 367.730 143.685,367.957 143.340,368.293 143.340 C 368.605 143.340,368.856 143.006,368.856 142.589 C 368.856 142.176,369.024 141.839,369.231 141.839 C 369.437 141.839,369.606 141.079,369.606 140.150 C 369.606 139.221,369.775 138.462,369.981 138.462 C 370.574 138.462,370.446 134.824,369.846 134.593 C 369.472 134.450,369.384 133.885,369.518 132.490 C 369.641 131.216,369.561 130.582,369.279 130.582 C 369.046 130.582,368.856 130.244,368.856 129.831 C 368.856 129.414,368.605 129.081,368.293 129.081 C 367.979 129.081,367.730 128.747,367.730 128.327 C 367.730 127.912,367.223 127.043,366.604 126.395 C 365.985 125.747,365.478 125.073,365.478 124.897 C 365.478 124.722,365.056 124.578,364.540 124.578 C 364.024 124.578,363.602 124.409,363.602 124.203 C 363.602 123.996,363.180 123.827,362.664 123.827 C 362.148 123.827,361.726 123.659,361.726 123.452 C 361.726 123.246,361.388 123.077,360.976 123.077 C 360.559 123.077,360.225 122.827,360.225 122.514 C 360.225 122.121,359.829 121.951,358.912 121.951 C 358.189 121.951,357.598 121.782,357.598 121.576 C 357.598 121.370,357.176 121.201,356.660 121.201 C 356.144 121.201,355.722 121.032,355.722 120.826 C 355.722 120.619,355.288 120.450,354.757 120.450 C 354.227 120.450,353.539 120.197,353.230 119.887 C 352.920 119.578,352.257 119.325,351.756 119.325 C 351.254 119.325,350.844 119.156,350.844 118.949 C 350.844 118.743,350.422 118.574,349.906 118.574 C 349.390 118.574,348.968 118.405,348.968 118.199 C 348.968 117.992,348.377 117.824,347.655 117.824 C 346.932 117.824,346.341 117.655,346.341 117.448 C 346.341 117.242,346.004 117.073,345.591 117.073 C 345.174 117.073,344.841 116.823,344.841 116.510 C 344.841 116.117,344.444 115.947,343.527 115.947 C 342.805 115.947,342.214 115.779,342.214 115.572 C 342.214 115.366,341.623 115.197,340.901 115.197 C 340.178 115.197,339.587 115.028,339.587 114.822 C 339.587 114.615,339.250 114.447,338.837 114.447 C 338.424 114.447,338.086 114.278,338.086 114.071 C 338.086 113.865,337.495 113.696,336.773 113.696 C 335.810 113.696,335.460 113.533,335.460 113.085 C 335.460 112.583,335.193 112.517,333.959 112.714 C 332.764 112.906,332.458 112.839,332.458 112.387 C 332.458 112.070,332.127 111.820,331.707 111.820 C 331.295 111.820,330.957 111.651,330.957 111.445 C 330.957 111.238,330.366 111.069,329.644 111.069 C 328.726 111.069,328.330 110.900,328.330 110.507 C 328.330 110.194,327.997 109.944,327.580 109.944 C 327.167 109.944,326.829 109.775,326.829 109.568 C 326.829 109.362,326.238 109.193,325.516 109.193 C 324.791 109.193,324.203 109.004,324.203 108.770 C 324.203 108.486,323.707 108.426,322.702 108.587 C 321.507 108.778,321.201 108.711,321.201 108.260 C 321.201 107.942,320.870 107.692,320.450 107.692 C 319.526 107.692,319.458 107.060,320.356 106.825 C 320.841 106.699,320.787 106.642,320.152 106.610 C 319.267 106.565,317.448 105.033,317.448 104.332 C 317.448 104.116,317.272 103.940,317.056 103.940 C 316.368 103.940,314.794 102.139,315.301 101.934 C 315.655 101.790,315.653 101.741,315.291 101.718 C 315.033 101.702,314.822 101.266,314.822 100.750 C 314.822 100.235,314.653 99.812,314.447 99.812 C 314.240 99.812,314.071 99.221,314.071 98.499 C 314.071 97.582,313.902 97.186,313.508 97.186 C 313.028 97.186,312.946 96.143,312.946 90.056 C 312.946 84.603,312.835 82.927,312.477 82.927 C 312.112 82.927,312.032 81.122,312.116 74.860 C 312.201 68.473,312.123 66.792,311.740 66.792 C 311.358 66.792,311.283 65.222,311.379 59.287 C 311.487 52.656,311.432 51.782,310.910 51.782 C 310.485 51.782,310.319 51.414,310.319 50.469 C 310.319 49.747,310.150 49.156,309.944 49.156 C 309.737 49.156,309.568 48.818,309.568 48.405 C 309.568 47.992,309.400 47.655,309.193 47.655 C 308.987 47.655,308.818 47.305,308.818 46.878 C 308.818 46.142,308.027 45.028,307.505 45.028 C 307.115 45.028,306.191 43.991,306.191 43.554 C 306.191 43.333,305.769 43.152,305.253 43.152 C 304.737 43.152,304.315 42.983,304.315 42.777 C 304.315 42.570,303.977 42.402,303.565 42.402 C 303.152 42.402,302.814 42.211,302.814 41.979 C 302.814 41.697,302.187 41.616,300.938 41.736 C 299.297 41.894,299.062 41.829,299.062 41.221 C 299.062 40.639,298.763 40.525,297.227 40.525 C 295.713 40.525,295.402 40.640,295.445 41.179 C 295.490 41.749,295.195 41.817,293.152 41.708 C 291.630 41.626,290.807 41.726,290.807 41.992 C 290.807 42.217,290.216 42.402,289.493 42.402 C 288.771 42.402,288.180 42.570,288.180 42.777 C 288.180 42.983,287.420 43.152,286.492 43.152 C 285.241 43.152,284.803 43.298,284.803 43.715 C 284.803 44.132,284.365 44.278,283.114 44.278 C 282.186 44.278,281.426 44.447,281.426 44.653 C 281.426 44.859,280.919 45.028,280.300 45.028 C 279.566 45.028,279.174 45.218,279.174 45.573 C 279.174 46.007,278.791 46.073,277.298 45.896 C 276.015 45.744,275.422 45.809,275.422 46.102 C 275.422 46.358,274.747 46.529,273.734 46.529 C 272.483 46.529,272.045 46.675,272.045 47.092 C 272.045 47.509,271.607 47.655,270.356 47.655 C 269.428 47.655,268.668 47.824,268.668 48.030 C 268.668 48.236,268.077 48.405,267.355 48.405 C 266.632 48.405,266.041 48.574,266.041 48.780 C 266.041 48.987,265.281 49.156,264.353 49.156 C 263.102 49.156,262.664 49.302,262.664 49.719 C 262.664 50.136,262.226 50.281,260.976 50.281 C 260.047 50.281,259.287 50.450,259.287 50.657 C 259.287 50.863,258.780 51.032,258.161 51.032 C 257.427 51.032,257.036 51.221,257.036 51.577 C 257.036 52.011,256.652 52.077,255.159 51.900 C 253.876 51.748,253.283 51.813,253.283 52.105 C 253.283 52.395,252.135 52.533,249.719 52.533 C 247.592 52.533,246.154 52.381,246.154 52.158 C 246.154 51.951,245.600 51.782,244.923 51.782 C 244.123 51.782,243.504 51.520,243.152 51.032 C 242.854 50.619,242.311 50.281,241.943 50.281 C 241.576 50.281,241.276 50.028,241.276 49.719 C 241.276 49.409,241.099 49.156,240.884 49.156 C 240.374 49.156,238.649 47.431,238.649 46.921 C 238.649 46.706,238.396 46.529,238.086 46.529 C 237.777 46.529,237.523 46.229,237.523 45.861 C 237.523 45.494,237.186 44.950,236.773 44.653 C 236.360 44.355,236.023 43.968,236.023 43.793 C 236.023 43.341,235.028 42.402,234.548 42.402 C 234.327 42.402,234.146 42.056,234.146 41.634 C 234.146 40.936,232.628 39.024,232.073 39.024 C 231.607 39.024,230.769 37.935,230.769 37.329 C 230.769 36.553,227.571 33.396,226.785 33.396 C 226.338 33.396,226.263 33.141,226.454 32.270 C 226.621 31.510,226.556 31.144,226.253 31.144 C 225.580 31.144,223.265 28.471,223.265 27.694 C 223.265 27.322,223.084 27.017,222.863 27.017 C 222.383 27.017,221.388 26.078,221.388 25.626 C 221.388 25.450,221.051 25.063,220.638 24.765 C 220.225 24.468,219.887 23.924,219.887 23.557 C 219.887 23.190,219.634 22.889,219.325 22.889 C 219.015 22.889,218.762 22.713,218.762 22.497 C 218.762 21.988,217.037 20.263,216.527 20.263 C 216.312 20.263,216.135 19.915,216.135 19.490 C 216.135 19.066,215.375 17.969,214.447 17.054 C 213.518 16.138,212.758 15.135,212.758 14.824 C 212.758 14.513,212.589 14.259,212.383 14.259 C 212.176 14.259,212.008 14.006,212.008 13.696 C 212.008 13.360,211.662 13.133,211.152 13.133 C 210.682 13.133,210.054 12.795,209.756 12.383 C 209.459 11.970,208.915 11.632,208.548 11.632 C 208.180 11.632,207.880 11.463,207.880 11.257 C 207.880 11.051,207.289 10.882,206.567 10.882 C 205.649 10.882,205.253 10.712,205.253 10.319 C 205.253 9.858,204.607 9.756,201.689 9.756 C 198.770 9.756,198.124 9.858,198.124 10.319 M282.927 116.698 C 282.927 116.906,283.927 117.073,285.178 117.073 C 286.429 117.073,287.430 117.240,287.430 117.448 C 287.430 117.655,287.767 117.824,288.180 117.824 C 288.593 117.824,288.931 117.992,288.931 118.199 C 288.931 118.405,289.274 118.574,289.693 118.574 C 290.112 118.574,290.552 118.827,290.671 119.137 C 290.790 119.447,291.182 119.700,291.542 119.700 C 292.142 119.700,293.426 120.762,294.991 122.555 C 295.332 122.945,296.050 123.662,296.586 124.148 C 297.122 124.634,297.561 125.352,297.561 125.743 C 297.561 126.134,297.727 126.454,297.929 126.454 C 298.132 126.454,298.403 126.876,298.533 127.392 C 298.662 127.908,298.919 128.330,299.103 128.330 C 299.287 128.330,299.437 128.668,299.437 129.081 C 299.437 129.493,299.606 129.831,299.812 129.831 C 300.021 129.831,300.188 130.832,300.188 132.083 C 300.188 133.333,300.354 134.334,300.563 134.334 C 300.775 134.334,300.938 135.397,300.938 136.773 C 300.938 138.149,300.775 139.212,300.563 139.212 C 300.356 139.212,300.188 139.972,300.188 140.901 C 300.188 141.829,300.019 142.589,299.812 142.589 C 299.606 142.589,299.437 142.985,299.437 143.470 C 299.437 144.534,298.621 146.243,297.578 147.363 C 297.156 147.816,296.811 148.360,296.811 148.572 C 296.811 149.191,198.553 247.280,197.934 247.280 C 197.626 247.280,197.373 247.448,197.373 247.655 C 197.373 247.861,196.951 248.030,196.435 248.030 C 195.919 248.030,195.497 248.199,195.497 248.405 C 195.497 248.612,195.232 248.780,194.908 248.780 C 194.583 248.780,194.065 249.034,193.755 249.343 C 193.445 249.653,192.782 249.906,192.281 249.906 C 191.780 249.906,191.370 250.075,191.370 250.281 C 191.370 250.511,189.626 250.657,186.889 250.657 C 184.307 250.657,182.310 250.498,182.176 250.281 C 182.049 250.075,181.553 249.906,181.074 249.906 C 180.596 249.906,179.994 249.653,179.737 249.343 C 179.480 249.034,178.953 248.780,178.566 248.780 C 178.178 248.780,177.861 248.612,177.861 248.405 C 177.861 248.199,177.627 248.030,177.341 248.030 C 176.253 248.030,174.127 246.560,172.269 244.523 C 171.733 243.935,170.975 243.175,170.584 242.834 C 170.194 242.493,169.603 241.894,169.271 241.504 C 168.939 241.113,168.347 240.522,167.954 240.190 C 167.561 239.859,166.801 239.106,166.265 238.519 C 165.729 237.931,164.971 237.171,164.581 236.830 C 164.190 236.489,163.599 235.891,163.267 235.500 C 162.936 235.109,162.343 234.518,161.950 234.187 C 161.557 233.855,160.797 233.103,160.261 232.515 C 159.726 231.927,158.967 231.168,158.577 230.826 C 158.186 230.485,157.595 229.887,157.263 229.496 C 156.932 229.105,156.339 228.514,155.946 228.183 C 155.553 227.851,154.794 227.099,154.258 226.511 C 153.722 225.924,152.964 225.164,152.573 224.823 C 152.182 224.482,151.591 223.883,151.260 223.492 C 150.928 223.102,150.335 222.511,149.943 222.179 C 149.550 221.847,148.790 221.095,148.254 220.508 C 147.718 219.920,146.960 219.160,146.569 218.819 C 146.179 218.478,145.588 217.879,145.256 217.489 C 144.924 217.098,144.332 216.507,143.939 216.175 C 143.546 215.844,142.786 215.093,142.250 214.506 C 141.714 213.920,140.783 212.992,140.181 212.443 C 139.579 211.894,138.819 211.125,138.492 210.734 C 138.166 210.344,137.579 209.753,137.188 209.421 C 136.798 209.089,136.207 208.498,135.875 208.108 C 135.543 207.717,134.951 207.126,134.558 206.794 C 134.165 206.463,133.405 205.711,132.869 205.123 C 132.333 204.535,131.575 203.775,131.185 203.434 C 130.794 203.093,130.203 202.495,129.871 202.104 C 129.540 201.713,128.949 201.122,128.558 200.791 C 127.315 199.735,125.704 198.021,125.704 197.756 C 125.704 197.615,125.281 197.274,124.765 196.998 C 124.250 196.722,123.827 196.179,123.827 195.792 C 123.827 195.405,123.405 194.666,122.889 194.150 C 122.373 193.634,121.951 192.966,121.951 192.666 C 121.951 192.366,121.782 192.120,121.576 192.120 C 121.370 192.120,121.201 191.782,121.201 191.370 C 121.201 190.957,121.032 190.619,120.826 190.619 C 120.619 190.619,120.450 189.859,120.450 188.931 C 120.450 188.002,120.281 187.242,120.075 187.242 C 119.850 187.242,119.700 185.741,119.700 183.490 C 119.700 181.238,119.850 179.737,120.075 179.737 C 120.281 179.737,120.450 179.146,120.450 178.424 C 120.450 177.702,120.619 177.111,120.826 177.111 C 121.032 177.111,121.201 176.520,121.201 175.797 C 121.201 175.075,121.370 174.484,121.576 174.484 C 121.782 174.484,121.951 174.236,121.951 173.934 C 121.951 173.631,122.542 172.792,123.265 172.070 C 123.987 171.348,124.578 170.535,124.578 170.265 C 124.578 169.694,125.891 168.480,126.508 168.480 C 126.739 168.480,127.486 167.889,128.167 167.167 C 128.848 166.445,129.670 165.854,129.994 165.854 C 130.317 165.854,130.582 165.685,130.582 165.478 C 130.582 165.272,131.046 165.098,131.614 165.091 C 132.181 165.085,132.973 164.831,133.374 164.528 C 133.774 164.225,134.482 163.977,134.946 163.977 C 135.411 163.977,135.895 163.809,136.023 163.602 C 136.151 163.395,137.840 163.227,139.797 163.227 C 141.909 163.227,143.340 163.379,143.340 163.602 C 143.340 163.809,144.020 163.977,144.852 163.977 C 145.851 163.977,146.438 164.169,146.581 164.540 C 146.700 164.850,147.201 165.103,147.695 165.103 C 148.189 165.103,148.593 165.272,148.593 165.478 C 148.593 165.685,148.931 165.854,149.343 165.854 C 149.756 165.854,150.094 166.023,150.094 166.229 C 150.094 166.435,150.487 166.604,150.968 166.604 C 151.507 166.604,152.028 166.949,152.323 167.501 C 152.587 167.994,153.188 168.604,153.659 168.856 C 154.129 169.107,154.730 169.717,154.994 170.210 C 155.258 170.703,155.600 171.107,155.754 171.107 C 155.908 171.107,156.597 171.709,157.285 172.445 C 157.974 173.181,158.856 174.067,159.247 174.415 C 159.638 174.762,160.228 175.367,160.560 175.757 C 160.892 176.148,161.485 176.739,161.877 177.070 C 162.270 177.402,163.030 178.154,163.566 178.742 C 164.102 179.330,164.860 180.090,165.251 180.431 C 165.641 180.772,166.232 181.370,166.564 181.761 C 166.896 182.152,167.488 182.743,167.881 183.074 C 168.274 183.406,169.034 184.158,169.570 184.746 C 170.106 185.333,170.864 186.093,171.254 186.434 C 171.645 186.775,172.236 187.374,172.568 187.765 C 172.899 188.155,173.492 188.746,173.885 189.078 C 174.278 189.410,175.038 190.162,175.573 190.750 C 176.109 191.337,176.867 192.097,177.258 192.438 C 177.649 192.779,178.240 193.370,178.571 193.752 C 179.671 195.016,186.525 201.876,186.689 201.876 C 186.777 201.876,205.167 183.555,227.555 161.163 C 249.943 138.771,268.481 120.450,268.750 120.450 C 269.020 120.450,269.557 120.028,269.945 119.512 C 270.332 118.996,270.963 118.574,271.347 118.574 C 271.731 118.574,272.045 118.405,272.045 118.199 C 272.045 117.992,272.542 117.824,273.149 117.824 C 273.756 117.824,274.357 117.655,274.484 117.448 C 274.612 117.242,275.466 117.073,276.382 117.073 C 277.299 117.073,278.049 116.904,278.049 116.698 C 278.049 116.486,279.112 116.323,280.488 116.323 C 281.864 116.323,282.927 116.486,282.927 116.698 " stroke="none" fill="#0c2231" fill-rule="evenodd"></path>
      
   </g>
</svg>