<?xml version="1.0" encoding="UTF-8" standalone="no"?>
<svg
   xmlns:dc="http://purl.org/dc/elements/1.1/"
   xmlns:cc="http://creativecommons.org/ns#"
   xmlns:rdf="http://www.w3.org/1999/02/22-rdf-syntax-ns#"
   xmlns:svg="http://www.w3.org/2000/svg"
   xmlns="http://www.w3.org/2000/svg"
   xmlns:sodipodi="http://sodipodi.sourceforge.net/DTD/sodipodi-0.dtd"
   xmlns:inkscape="http://www.inkscape.org/namespaces/inkscape"
   width="114.4"
   height="124.6"
   version="1.1"
   id="svg60"
   sodipodi:docname="Calendar_white.svg"
   inkscape:version="0.92.2 5c3e80d, 2017-08-06">
  <metadata
     id="metadata66">
    <rdf:RDF>
      <cc:Work
         rdf:about="">
        <dc:format>image/svg+xml</dc:format>
        <dc:type
           rdf:resource="http://purl.org/dc/dcmitype/StillImage" />
        <dc:title></dc:title>
      </cc:Work>
    </rdf:RDF>
  </metadata>
  <defs
     id="defs64" />
  <sodipodi:namedview
     pagecolor="#ffffff"
     bordercolor="#666666"
     borderopacity="1"
     objecttolerance="10"
     gridtolerance="10"
     guidetolerance="10"
     inkscape:pageopacity="0"
     inkscape:pageshadow="2"
     inkscape:window-width="1507"
     inkscape:window-height="946"
     id="namedview62"
     showgrid="false"
     fit-margin-top="0"
     fit-margin-left="0"
     fit-margin-right="0"
     fit-margin-bottom="0"
     inkscape:zoom="1.3504346"
     inkscape:cx="144.48429"
     inkscape:cy="123.98906"
     inkscape:window-x="0"
     inkscape:window-y="0"
     inkscape:window-maximized="0"
     inkscape:current-layer="g4" />
  <path
     d="m 0,115.8 v -89 c 0,-2.4 0.9,-4.5 2.6000002,-6.3 1.7,-1.8 3.8,-2.6 6.2,-2.6 H 17.6 V 11.2 C 17.6,8.1 18.7,5.5 20.8,3.3 23,1.1 25.5,0 28.6,0 H 33 c 3,0 5.6,1.1 7.8,3.3 2.2,2.2 3.2,4.8 3.2,7.9 v 6.7 H 70.4 V 11.2 C 70.4,8.1 71.5,5.5 73.6,3.3 75.8,1.1 78.3,0 81.4,0 h 4.4 c 3,0 5.600003,1.1 7.800003,3.3 2.2,2.2 3.2,4.8 3.2,7.9 v 6.7 H 105.6 c 2.4,0 4.4,0.9 6.2,2.6 1.7,1.8 2.6,3.8 2.6,6.3 v 88.9 c 0,2.4 -0.9,4.5 -2.6,6.3 -1.7,1.8 -3.8,2.6 -6.2,2.6 H 8.8000002 c -2.4,0 -4.4,-0.9 -6.2,-2.6 C 0.9,120.2 0,118.2 0,115.8 Z m 8.8000002,0 H 105.6 V 44.599999 H 8.8000002 Z M 26.4,31.299999 c 0,0.6 0.2,1.2 0.6,1.6 0.4,0.4 0.9,0.6 1.6,0.6 H 33 c 0.6,0 1.2,-0.2 1.6,-0.6 0.4,-0.4 0.6,-0.9 0.6,-1.6 V 11.3 C 35.2,10.7 35,10.1 34.6,9.7 34.2,9.3 33.7,9.1 33,9.1 h -4.4 c -0.6,0 -1.2,0.2 -1.6,0.6 -0.4,0.4 -0.6,1 -0.6,1.6 z m 52.8,0 c 0,0.6 0.2,1.2 0.6,1.6 0.4,0.4 0.9,0.6 1.6,0.6 h 4.4 c 0.6,0 1.2,-0.2 1.6,-0.6 0.4,-0.4 0.6,-0.9 0.6,-1.6 V 11.3 C 88,10.7 87.8,10.1 87.4,9.7 87,9.3 86.5,9.1 85.8,9.1 h -4.4 c -0.6,0 -1.2,0.2 -1.6,0.6 -0.4,0.4 -0.6,1 -0.6,1.6 z"
     id="path58"
     inkscape:connector-curvature="0"
     style="fill:#ffffff;fill-opacity:1" />
  <g
     inkscape:groupmode="layer"
     id="layer1"
     inkscape:label="plus layer"
     transform="translate(-8.6853868,-72.389061)"
     style="display:inline">
    <g
       id="g4"
       style="fill:#ffffff"
       transform="matrix(0.13463172,0,0,0.13463172,34.96553,122.37956)" />
  </g>
</svg>
