<?xml version="1.0" encoding="UTF-8" standalone="no"?>
<!-- Created with Inkscape (http://www.inkscape.org/) -->

<svg
   xmlns:dc="http://purl.org/dc/elements/1.1/"
   xmlns:cc="http://creativecommons.org/ns#"
   xmlns:rdf="http://www.w3.org/1999/02/22-rdf-syntax-ns#"
   xmlns:svg="http://www.w3.org/2000/svg"
   xmlns="http://www.w3.org/2000/svg"
   xmlns:sodipodi="http://sodipodi.sourceforge.net/DTD/sodipodi-0.dtd"
   xmlns:inkscape="http://www.inkscape.org/namespaces/inkscape"
   width="133.58817mm"
   height="116.20959mm"
   viewBox="0 0 133.58816 116.20959"
   version="1.1"
   id="svg8"
   inkscape:version="0.92.2 5c3e80d, 2017-08-06"
   sodipodi:docname="car_exit_icon.svg"
   inkscape:export-filename="/Users/olivier/Desktop/hepexport.png"
   inkscape:export-xdpi="200"
   inkscape:export-ydpi="200">
  <defs
     id="defs2" />
  <sodipodi:namedview
     id="base"
     pagecolor="#ffffff"
     bordercolor="#666666"
     borderopacity="1.0"
     inkscape:pageopacity="0.0"
     inkscape:pageshadow="2"
     inkscape:zoom="0.35"
     inkscape:cx="-301.89639"
     inkscape:cy="-6.4149826"
     inkscape:document-units="mm"
     inkscape:current-layer="layer1"
     showgrid="false"
     fit-margin-top="0"
     fit-margin-left="0"
     fit-margin-right="0"
     fit-margin-bottom="0"
     inkscape:window-width="1039"
     inkscape:window-height="896"
     inkscape:window-x="298"
     inkscape:window-y="132"
     inkscape:window-maximized="0" />
  <metadata
     id="metadata5">
    <rdf:RDF>
      <cc:Work
         rdf:about="">
        <dc:format>image/svg+xml</dc:format>
        <dc:type
           rdf:resource="http://purl.org/dc/dcmitype/StillImage" />
        <dc:title />
      </cc:Work>
    </rdf:RDF>
  </metadata>
  <g
     inkscape:label="Calque 1"
     inkscape:groupmode="layer"
     id="layer1"
     transform="translate(-173.61524,-236.92661)">
    <g
       id="g163"
       style="stroke:#0c2231;stroke-opacity:1">
      <path
         sodipodi:nodetypes="cscccssscssazcscscscscscssccccssscccscccssccccccscccscsccccccccccccccccccccsssccc"
         inkscape:connector-curvature="0"
         id="path73"
         d="m 226.47721,351.09993 c -1.62463,-0.52474 -4.37359,-2.88959 -2.57971,-6.54142 l 3.93095,-8.0023 4.20305,-7.97035 4.20305,-7.97035 3.34951,-11.64166 c 3.13674,-10.90212 3.69333,-12.54477 8.76154,-25.85798 2.97661,-7.81897 5.41201,-14.25781 5.41201,-14.30854 0,-0.0909 -15.21474,2.65082 -15.75809,2.83968 -0.15399,0.0535 -3.62417,4.12818 -7.71153,9.05478 -4.08736,4.92661 -3.87063,4.55016 -5.72814,6.65105 -1.33076,1.50514 -4.83055,0.68284 -6.36851,-0.80481 -1.25799,-1.21685 -2.02468,-3.59948 -0.83111,-5.18447 1.19356,-1.585 4.3828,-5.47997 4.3828,-5.47997 l 5.17268,-6.25135 c 3.47367,-4.19804 5.46652,-6.39079 6.06725,-6.67585 0.49201,-0.23348 6.76657,-1.50898 13.94346,-2.83446 14.06655,-2.5979 15.93629,-2.79575 18.47286,-1.95474 3.08957,1.02438 12.35749,4.69799 13.41864,5.31888 2.07527,1.21426 3.31219,3.47367 3.32023,6.06486 0.005,1.54268 -0.94415,4.32625 -4.79152,14.05537 l -0.53598,1.35537 6.399,1.63249 c 3.51945,0.89787 7.19475,1.86656 8.16733,2.15263 2.65369,0.78055 3.88083,2.00546 4.29372,4.28591 0.17572,0.97053 0.20527,0.99219 1.3541,0.99219 0.92372,0 1.35894,0.16479 2.03853,0.77188 l 0.86407,0.77187 0.0927,3.46146 0.0927,3.46146 h 2.47452 c 1.36098,0 2.78671,0.14224 3.16827,0.31609 1.4115,0.64312 1.44781,0.93593 1.44781,11.67363 0,9.57208 -0.0179,9.92208 -0.5412,10.58736 -0.29766,0.37841 -0.98227,0.81052 -1.52135,0.96024 -0.6002,0.1667 -5.31355,0.2728 -12.1588,0.2737 -9.10758,0.001 -11.17865,-0.0635 -11.17865,-0.34927 0,-0.19292 0.31942,-1.23471 0.70981,-2.31511 0.55561,-1.53762 0.71162,-2.45291 0.71816,-4.21331 0.0107,-2.87626 -0.19511,-3.33064 -4.74889,-10.48543 -1.95703,-3.07485 -3.55824,-5.71125 -3.55824,-5.85867 0,-0.46121 0.75204,-0.58923 3.46122,-0.58923 h 2.62419 v -3.24238 -3.24239 l -3.77031,-0.95845 c -2.07367,-0.52714 -3.80725,-0.92621 -3.8524,-0.88682 -0.15429,0.13465 -3.48979,8.97782 -3.48878,9.24958 5.3e-4,0.14909 1.9634,3.35676 4.3619,7.12816 2.39849,3.77139 4.43677,7.26151 4.5295,7.75582 0.0927,0.49431 0.10972,1.33777 0.0377,1.87437 -0.11314,0.84354 -8.73393,25.51292 -9.82451,28.11396 -0.53542,1.27699 -1.86474,2.52534 -3.2542,3.05598 -3.31181,1.26479 -7.13987,-1.17876 -7.43268,-4.74449 -0.10204,-1.24253 0.30584,-2.55437 4.28826,-13.79213 2.42056,-6.83044 4.34038,-12.57699 4.26628,-12.7701 -0.18879,-0.49199 -11.25255,-17.86813 -11.62099,-18.25131 -0.1657,-0.17232 -0.59893,-0.38508 -0.96273,-0.47279 l -0.66146,-0.15948 -3.39983,11.71759 -3.39983,11.71758 -6.37145,12.14998 c -3.50431,6.68249 -6.73586,12.56501 -7.18124,13.07227 -0.44538,0.50725 -1.28705,1.1391 -1.87038,1.4041 -1.7425,0.81886 -3.17156,0.79462 -4.92529,-0.11068 z m 68.02623,-50.19587 v -1.5875 h -4.10104 -4.10104 v 1.5875 1.5875 h 4.10104 4.10104 z M 276.2472,257.93823 c -5.15323,-1.14577 -8.90735,-6.19135 -8.37761,-11.25958 0.46085,-4.40913 3.37015,-7.99474 7.52907,-9.2793 7.52811,-2.32519 15.01427,4.28505 13.5818,11.99267 -0.80833,4.34935 -4.28233,7.82302 -8.627,8.62618 -1.86749,0.34522 -2.2253,0.33825 -4.10626,-0.08 z"
         style="fill:#000000;stroke-width:0.26458332;stroke:#0c2231;stroke-opacity:1" />
      <path
         inkscape:connector-curvature="0"
         id="path140"
         d="m 199.0841,352.48132 c -1.95917,-0.85366 -4.35759,-3.69112 -4.96312,-5.87172 -0.27478,-0.98942 -0.50079,-4.42429 -0.50224,-7.63303 l -0.001,-5.83405 h -10.00125 -10.00125 v -23.33624 -23.33626 h 13.33501 c 7.33425,0 13.33499,-0.0775 13.33499,-0.17226 0,-0.34859 -8.09478,-21.31883 -8.57757,-22.22092 -1.05672,-1.9745 -2.84674,-2.37176 -10.68689,-2.37176 h -7.40554 v -4.7625 -4.76251 l 6.0722,0.0162 c 11.50275,0.0295 15.56101,1.19065 18.69282,5.3483 1.11279,1.47732 3.40685,6.66285 6.90139,15.59999 l 5.23454,13.38709 2.93262,1.39962 c 3.26441,1.55796 5.52157,3.83472 7.02674,7.08772 0.9546,2.06312 1.00958,3.0308 1.14326,20.12886 l 0.1404,17.96154 -4.90293,0.1359 -4.90293,0.1359 -0.23812,7.18269 c -0.23263,7.01702 -0.26981,7.22422 -1.6116,8.98154 -2.41421,3.1619 -7.43159,4.4991 -11.01788,2.93644 z m 5.61782,-39.36993 c 0.98942,-0.27478 2.53009,-1.14155 3.42372,-1.92615 4.19767,-3.68559 3.22134,-11.48011 -1.76069,-14.05641 -3.50892,-1.81453 -8.55016,-0.51541 -10.71926,2.76233 -3.20814,4.84779 -0.88989,11.61802 4.53853,13.25439 1.79906,0.54231 2.45981,0.53731 4.5177,-0.0342 z"
         style="fill:#000000;stroke-width:0.47624996;stroke:#0c2231;stroke-opacity:1" />
    </g>
  </g>
</svg>
