<?xml version="1.0" encoding="UTF-8" standalone="no"?>
<svg
   xmlns:dc="http://purl.org/dc/elements/1.1/"
   xmlns:cc="http://creativecommons.org/ns#"
   xmlns:rdf="http://www.w3.org/1999/02/22-rdf-syntax-ns#"
   xmlns:svg="http://www.w3.org/2000/svg"
   xmlns="http://www.w3.org/2000/svg"
   xmlns:sodipodi="http://sodipodi.sourceforge.net/DTD/sodipodi-0.dtd"
   xmlns:inkscape="http://www.inkscape.org/namespaces/inkscape"
   version="1.1"
   viewBox="0 0 557.93951 90.712486"
   stroke-miterlimit="10"
   id="svg19"
   sodipodi:docname="covoiturer-yacka-dark.svg"
   width="557.93951"
   height="90.712486"
   style="fill:none;stroke:none;stroke-linecap:square;stroke-miterlimit:10"
   inkscape:version="0.92.2 5c3e80d, 2017-08-06">
  <metadata
     id="metadata25">
    <rdf:RDF>
      <cc:Work
         rdf:about="">
        <dc:format>image/svg+xml</dc:format>
        <dc:type
           rdf:resource="http://purl.org/dc/dcmitype/StillImage" />
        <dc:title />
      </cc:Work>
    </rdf:RDF>
  </metadata>
  <defs
     id="defs23" />
  <sodipodi:namedview
     pagecolor="#ffffff"
     bordercolor="#666666"
     borderopacity="1"
     objecttolerance="10"
     gridtolerance="10"
     guidetolerance="10"
     inkscape:pageopacity="0"
     inkscape:pageshadow="2"
     inkscape:window-width="1133"
     inkscape:window-height="681"
     id="namedview21"
     showgrid="false"
     fit-margin-top="0"
     fit-margin-left="0"
     fit-margin-right="0"
     fit-margin-bottom="0"
     inkscape:zoom="0.434375"
     inkscape:cx="175.44737"
     inkscape:cy="-37.012179"
     inkscape:window-x="0"
     inkscape:window-y="0"
     inkscape:window-maximized="0"
     inkscape:current-layer="g17" />
  <clipPath
     id="g11f57e654d1_0_0.0">
    <path
       d="M 0,0 H 960 V 377.95276 H 0 Z"
       id="path2"
       inkscape:connector-curvature="0"
       style="clip-rule:nonzero" />
  </clipPath>
  <g
     clip-path="url(#g11f57e654d1_0_0.0)"
     id="g17"
     transform="translate(-39.198696,-61.251714)">
    <path
       d="M 0,0 H 960 V 377.95276 H 0 Z"
       id="path5"
       inkscape:connector-curvature="0"
       style="fill:#000000;fill-opacity:0;fill-rule:evenodd" />
    <path
       d="M 27.433071,42.09974 H 611.33857 V 171.39109 H 27.433071 Z"
       id="path7"
       inkscape:connector-curvature="0"
       style="fill:#000000;fill-opacity:0;fill-rule:evenodd" />
    <path
       d="m 56.87057,97.56421 q -3.671875,0 -6.875,-1.40625 -3.1875,-1.40625 -5.609375,-3.921875 -2.421875,-2.515625 -3.78125,-5.796875 -1.359375,-3.296875 -1.359375,-7.046875 0,-3.71875 1.328125,-7 1.34375,-3.296875 3.765625,-5.78125 2.421875,-2.5 5.609375,-3.921871 3.203125,-1.4375 6.921875,-1.4375 3.265625,0 5.9375,0.953125 2.687496,0.953125 5.171871,3.046871 0.40625,0.3125 0.46875,0.75 0.07813,0.421875 -0.109375,0.8125 -0.171875,0.375 -0.546875,0.5625 -0.07813,0.359375 -0.453125,0.546875 -0.359375,0.171875 -0.84375,0.140625 -0.46875,-0.04687 -0.921875,-0.421875 -1.765621,-1.53125 -3.859371,-2.28125 -2.078125,-0.75 -4.84375,-0.75 -2.9375,0 -5.5,1.1875 -2.5625,1.171875 -4.515625,3.21875 -1.953125,2.03125 -3.0625,4.703125 -1.109375,2.671875 -1.109375,5.671875 0,3.078125 1.109375,5.75 1.109375,2.671875 3.0625,4.71875 1.953125,2.03125 4.515625,3.1875 2.5625,1.15625 5.5,1.15625 2.5,0 4.71875,-0.8125 2.21875,-0.8125 4.218746,-2.359375 0.546875,-0.453125 1.15625,-0.359375 0.609375,0.09375 1.0625,0.546875 0.453125,0.453125 0.453125,1.171875 0,0.375 -0.109375,0.671875 -0.109375,0.28125 -0.390625,0.609375 -2.3125,2.125 -5.171871,3.015625 -2.84375,0.875 -5.9375,0.875 z m 27.920544,-0.21875 q -3.625,0 -6.484375,-1.625 -2.84375,-1.640625 -4.484375,-4.5 -1.625,-2.859375 -1.625,-6.484375 0,-3.671875 1.625,-6.515625 1.640625,-2.859375 4.484375,-4.484375 2.859375,-1.640625 6.484375,-1.640625 3.640625,0 6.46875,1.640625 2.828125,1.625 4.453125,4.484375 1.640625,2.84375 1.6875,6.515625 0,3.625 -1.65625,6.484375 -1.65625,2.859375 -4.484375,4.5 -2.828125,1.625 -6.46875,1.625 z m 0,-3.1875 q 2.640625,0 4.71875,-1.21875 2.09375,-1.21875 3.265625,-3.34375 1.171875,-2.140625 1.171875,-4.859375 0,-2.71875 -1.171875,-4.875 -1.171875,-2.15625 -3.265625,-3.375 -2.078125,-1.21875 -4.71875,-1.21875 -2.625,0 -4.71875,1.21875 -2.078125,1.21875 -3.28125,3.375 -1.1875,2.15625 -1.1875,4.875 0,2.71875 1.1875,4.859375 1.203125,2.125 3.28125,3.34375 2.09375,1.21875 4.71875,1.21875 z m 26.530276,2.953125 q -1.09375,0 -1.64063,-1.171875 L 99.618262,74.579835 q -0.265625,-0.59375 -0.04687,-1.171875 0.234375,-0.59375 0.906258,-0.90625 0.64062,-0.328125 1.21875,-0.09375 0.59375,0.21875 0.92187,0.8125 l 9.64063,20.90625 h -1.84375 l 9.51562,-20.90625 q 0.26563,-0.625 0.92188,-0.828125 0.65625,-0.21875 1.29687,0.0625 0.64063,0.3125 0.85938,0.921875 0.23437,0.609375 -0.0469,1.15625 l -9.92187,21.40625 q -0.54688,1.171875 -1.71875,1.171875 z m 26.95668,0.234375 q -3.625,0 -6.48437,-1.625 -2.84375,-1.640625 -4.48438,-4.5 -1.625,-2.859375 -1.625,-6.484375 0,-3.671875 1.625,-6.515625 1.64063,-2.859375 4.48438,-4.484375 2.85937,-1.640625 6.48437,-1.640625 3.64063,0 6.46875,1.640625 2.82813,1.625 4.45313,4.484375 1.64062,2.84375 1.6875,6.515625 0,3.625 -1.65625,6.484375 -1.65625,2.859375 -4.48438,4.5 -2.82812,1.625 -6.46875,1.625 z m 0,-3.1875 q 2.64063,0 4.71875,-1.21875 2.09375,-1.21875 3.26563,-3.34375 1.17187,-2.140625 1.17187,-4.859375 0,-2.71875 -1.17187,-4.875 -1.17188,-2.15625 -3.26563,-3.375 -2.07812,-1.21875 -4.71875,-1.21875 -2.625,0 -4.71875,1.21875 -2.07812,1.21875 -3.28125,3.375 -1.1875,2.15625 -1.1875,4.875 0,2.71875 1.1875,4.859375 1.20313,2.125 3.28125,3.34375 2.09375,1.21875 4.71875,1.21875 z m 21.9059,2.953125 q -0.82812,0 -1.29687,-0.46875 -0.46875,-0.484375 -0.46875,-1.296875 V 74.079835 q 0,-0.8125 0.46875,-1.28125 0.46875,-0.484375 1.29687,-0.484375 0.76563,0 1.23438,0.484375 0.48437,0.46875 0.48437,1.28125 V 95.34546 q 0,0.8125 -0.48437,1.296875 -0.46875,0.46875 -1.23438,0.46875 z m -0.0625,-29.515625 q -0.98437,0 -1.71875,-0.71875 -0.71875,-0.71875 -0.71875,-1.765625 0,-1.140621 0.73438,-1.796871 0.75,-0.65625 1.75,-0.65625 0.95312,0 1.70312,0.65625 0.75,0.65625 0.75,1.796871 0,1.046875 -0.73437,1.765625 -0.71875,0.71875 -1.76563,0.71875 z m 20.36547,29.515625 q -2.40625,0 -4.29688,-1.125 -1.875,-1.140625 -2.96875,-3.109375 -1.07812,-1.96875 -1.07812,-4.515625 v -22.15625 q 0,-0.78125 0.46875,-1.28125 0.48437,-0.5 1.25,-0.5 0.78125,0 1.26562,0.5 0.5,0.5 0.5,1.28125 v 22.15625 q 0,2.3125 1.35938,3.796875 1.375,1.46875 3.5,1.46875 h 1.21875 q 0.73437,0 1.1875,0.5 0.45312,0.484375 0.45312,1.265625 0,0.765625 -0.54687,1.25 -0.54688,0.46875 -1.35938,0.46875 z m -11.28125,-20.84375 q -0.6875,0 -1.14063,-0.4375 -0.45312,-0.4375 -0.45312,-1.0625 0,-0.6875 0.45312,-1.109375 0.45313,-0.4375 1.14063,-0.4375 h 11.54687 q 0.6875,0 1.14063,0.4375 0.45312,0.421875 0.45312,1.109375 0,0.625 -0.45312,1.0625 -0.45313,0.4375 -1.14063,0.4375 z M 199.8026,97.37671 q -3.21875,0 -5.76563,-1.328125 -2.53125,-1.34375 -4.01562,-3.921875 -1.46875,-2.578125 -1.46875,-6.296875 V 74.03296 q 0,-0.71875 0.5,-1.21875 0.5,-0.5 1.21875,-0.5 0.78125,0 1.26562,0.5 0.5,0.5 0.5,1.21875 v 11.796875 q 0,2.8125 1.0625,4.625 1.07813,1.8125 2.90625,2.71875 1.84375,0.90625 4.15625,0.90625 2.21875,0 4,-0.859375 1.79688,-0.875 2.84375,-2.359375 1.04688,-1.5 1.04688,-3.40625 h 2.48437 q -0.14062,2.859375 -1.5625,5.109375 -1.42187,2.234375 -3.82812,3.53125 -2.40625,1.28125 -5.34375,1.28125 z m 9.96875,-0.265625 q -0.78125,0 -1.25,-0.46875 -0.46875,-0.484375 -0.46875,-1.296875 v -21.3125 q 0,-0.765625 0.46875,-1.234375 0.46875,-0.484375 1.25,-0.484375 0.76562,0 1.26562,0.484375 0.5,0.46875 0.5,1.234375 v 21.3125 q 0,0.8125 -0.5,1.296875 -0.5,0.46875 -1.26562,0.46875 z M 221.146,81.829835 q 0.14062,-2.796875 1.46875,-5.015625 1.34375,-2.234375 3.48437,-3.5 2.15625,-1.265625 4.79688,-1.265625 2.07812,0 3.20312,0.59375 1.14063,0.578125 0.875,1.71875 -0.1875,0.671875 -0.625,0.90625 -0.42187,0.21875 -1.03125,0.171875 -0.60937,-0.04687 -1.39062,-0.07813 -2.53125,-0.234375 -4.5,0.515625 -1.96875,0.75 -3.125,2.296875 -1.15625,1.53125 -1.15625,3.65625 z m 0.26562,15.28125 q -0.8125,0 -1.26562,-0.453125 -0.45313,-0.453125 -0.45313,-1.265625 V 74.03296 q 0,-0.8125 0.45313,-1.265625 0.45312,-0.453125 1.26562,-0.453125 0.82813,0 1.28125,0.453125 0.45313,0.453125 0.45313,1.265625 v 21.359375 q 0,0.8125 -0.45313,1.265625 -0.45312,0.453125 -1.28125,0.453125 z m 28.4782,0.234375 q -3.67188,0 -6.51563,-1.609375 -2.82812,-1.609375 -4.4375,-4.46875 -1.60937,-2.859375 -1.60937,-6.53125 0,-3.71875 1.51562,-6.546875 1.51563,-2.828125 4.1875,-4.453125 2.6875,-1.640625 6.17188,-1.640625 3.4375,0 6,1.5625 2.56248,1.5625 3.96873,4.328125 1.40625,2.765625 1.40625,6.296875 0,0.71875 -0.45312,1.15625 -0.45313,0.4375 -1.17188,0.4375 h -19.26561 v -2.90625 h 19.62499 l -1.95313,1.40625 q 0.0469,-2.625 -0.95312,-4.703125 -0.99999,-2.09375 -2.84374,-3.265625 -1.82812,-1.1875 -4.35937,-1.1875 -2.57813,0 -4.53125,1.21875 -1.95313,1.21875 -3.01563,3.375 -1.0625,2.15625 -1.0625,4.921875 0,2.765625 1.20313,4.90625 1.20312,2.125 3.28125,3.34375 2.07812,1.21875 4.8125,1.21875 1.625,0 3.28125,-0.5625 1.65625,-0.5625 2.65625,-1.421875 0.48436,-0.40625 1.12498,-0.421875 0.64063,-0.03125 1.09375,0.328125 0.57813,0.546875 0.59375,1.1875 0.0312,0.625 -0.5,1.078125 -1.5,1.265625 -3.81248,2.109375 -2.3125,0.84375 -4.4375,0.84375 z m 18.03459,-15.515625 q 0.14062,-2.796875 1.46875,-5.015625 1.34375,-2.234375 3.48437,-3.5 2.15625,-1.265625 4.79688,-1.265625 2.07812,0 3.20312,0.59375 1.14063,0.578125 0.875,1.71875 -0.1875,0.671875 -0.625,0.90625 -0.42187,0.21875 -1.03125,0.171875 -0.60937,-0.04687 -1.39062,-0.07813 -2.53125,-0.234375 -4.5,0.515625 -1.96875,0.75 -3.125,2.296875 -1.15625,1.53125 -1.15625,3.65625 z m 0.26562,15.28125 q -0.8125,0 -1.26562,-0.453125 -0.45313,-0.453125 -0.45313,-1.265625 V 74.03296 q 0,-0.8125 0.45313,-1.265625 0.45312,-0.453125 1.26562,-0.453125 0.82813,0 1.28125,0.453125 0.45313,0.453125 0.45313,1.265625 v 21.359375 q 0,0.8125 -0.45313,1.265625 -0.45312,0.453125 -1.28125,0.453125 z m 43.24457,0.234375 q -3.48437,0 -6.25,-1.65625 -2.76562,-1.65625 -4.375,-4.515625 -1.60937,-2.859375 -1.60937,-6.4375 0,-3.625 1.65625,-6.484375 1.65625,-2.859375 4.5,-4.5 2.85937,-1.65625 6.4375,-1.65625 3.59375,0 6.42187,1.65625 2.82813,1.640625 4.48438,4.5 1.65625,2.859375 1.70312,6.484375 l -1.40625,1.09375 q 0,3.265625 -1.51562,5.875 -1.51563,2.59375 -4.125,4.125 -2.60938,1.515625 -5.92188,1.515625 z m 0.35938,-3.1875 q 2.64062,0 4.70312,-1.21875 2.0625,-1.21875 3.25,-3.375 1.20313,-2.15625 1.20313,-4.828125 0,-2.71875 -1.20313,-4.84375 -1.1875,-2.140625 -3.25,-3.375 -2.0625,-1.25 -4.70312,-1.25 -2.57813,0 -4.67188,1.25 -2.07812,1.234375 -3.29687,3.375 -1.21875,2.125 -1.21875,4.84375 0,2.671875 1.21875,4.828125 1.21875,2.15625 3.29687,3.375 2.09375,1.21875 4.67188,1.21875 z m 10.84375,2.953125 q -0.78125,0 -1.28125,-0.46875 -0.48438,-0.484375 -0.48438,-1.25 v -7.75 l 0.85938,-3.578125 2.67187,0.671875 v 10.65625 q 0,0.765625 -0.5,1.25 -0.5,0.46875 -1.26562,0.46875 z m 19.35901,0.265625 q -3.21875,0 -5.76563,-1.328125 -2.53125,-1.34375 -4.01562,-3.921875 -1.46875,-2.578125 -1.46875,-6.296875 V 74.03296 q 0,-0.71875 0.5,-1.21875 0.5,-0.5 1.21875,-0.5 0.78125,0 1.26562,0.5 0.5,0.5 0.5,1.21875 v 11.796875 q 0,2.8125 1.0625,4.625 1.07813,1.8125 2.90625,2.71875 1.84375,0.90625 4.15625,0.90625 2.21875,0 4,-0.859375 1.79688,-0.875 2.84375,-2.359375 1.04688,-1.5 1.04688,-3.40625 h 2.48437 q -0.14062,2.859375 -1.5625,5.109375 -1.42187,2.234375 -3.82812,3.53125 -2.40625,1.28125 -5.34375,1.28125 z m 9.96875,-0.265625 q -0.78125,0 -1.25,-0.46875 -0.46875,-0.484375 -0.46875,-1.296875 v -21.3125 q 0,-0.765625 0.46875,-1.234375 0.46875,-0.484375 1.25,-0.484375 0.76562,0 1.26562,0.484375 0.5,0.46875 0.5,1.234375 v 21.3125 q 0,0.8125 -0.5,1.296875 -0.5,0.46875 -1.26562,0.46875 z"
       id="path9"
       inkscape:connector-curvature="0"
       style="fill:#0c2231;fill-rule:nonzero;fill-opacity:1;stroke-width:1;stroke-miterlimit:4;stroke-dasharray:none;stroke:#0c2231;stroke-opacity:1" />
    <path
       d="m 397.29312,107.72047 q -0.78125,0 -1.28125,-0.48437 -0.48438,-0.46875 -0.48438,-1.28126 V 92.626712 q -1.5,2.125 -3.95312,3.421875 -2.4375,1.296875 -5.48438,1.296875 -3.48437,0 -6.25,-1.65625 -2.76562,-1.65625 -4.375,-4.515625 -1.60937,-2.859375 -1.60937,-6.4375 0,-3.625 1.65625,-6.484375 1.65625,-2.859375 4.5,-4.5 2.85937,-1.65625 6.4375,-1.65625 3.54687,0 6.375,1.640625 2.82812,1.625 4.48437,4.453125 1.65625,2.828125 1.75,6.359375 v 21.406253 q 0,0.81251 -0.5,1.28126 -0.5,0.48437 -1.26562,0.48437 z M 386.44937,94.157962 q 2.64062,0 4.70312,-1.21875 2.0625,-1.21875 3.25,-3.375 1.20313,-2.15625 1.20313,-4.828125 0,-2.71875 -1.20313,-4.84375 -1.1875,-2.140625 -3.25,-3.375 -2.0625,-1.25 -4.70312,-1.25 -2.57813,0 -4.67188,1.25 -2.07812,1.234375 -3.29687,3.375 -1.21875,2.125 -1.21875,4.84375 0,2.671875 1.21875,4.828125 1.21875,2.15625 3.29687,3.375 2.09375,1.21875 4.67188,1.21875 z m 31.56262,3.21875 q -3.21875,0 -5.76562,-1.328125 -2.53125,-1.34375 -4.01563,-3.921875 -1.46875,-2.578125 -1.46875,-6.296875 V 74.032962 q 0,-0.71875 0.5,-1.21875 0.5,-0.5 1.21875,-0.5 0.78125,0 1.26563,0.5 0.5,0.5 0.5,1.21875 v 11.796875 q 0,2.8125 1.0625,4.625 1.07812,1.8125 2.90625,2.71875 1.84375,0.90625 4.15625,0.90625 2.21875,0 4,-0.859375 1.79687,-0.875 2.84375,-2.359375 1.04687,-1.5 1.04687,-3.40625 h 2.48438 q -0.14063,2.859375 -1.5625,5.109375 -1.42188,2.234375 -3.82813,3.53125 -2.40625,1.28125 -5.34375,1.28125 z m 9.96875,-0.265625 q -0.78125,0 -1.25,-0.46875 -0.46875,-0.484375 -0.46875,-1.296875 v -21.3125 q 0,-0.765625 0.46875,-1.234375 0.46875,-0.484375 1.25,-0.484375 0.76563,0 1.26563,0.484375 0.5,0.46875 0.5,1.234375 v 21.3125 q 0,0.8125 -0.5,1.296875 -0.5,0.46875 -1.26563,0.46875 z m 21.20276,0.234375 q -3.625,0 -6.48437,-1.625 -2.84375,-1.640625 -4.48438,-4.5 -1.625,-2.859375 -1.625,-6.484375 0,-3.671875 1.625,-6.515625 1.64063,-2.859375 4.48438,-4.484375 2.85937,-1.640625 6.48437,-1.640625 3.64063,0 6.46875,1.640625 2.82813,1.625 4.45313,4.484375 1.64062,2.84375 1.6875,6.515625 0,3.625 -1.65625,6.484375 -1.65625,2.859375 -4.48438,4.5 -2.82812,1.625 -6.46875,1.625 z m 0,-3.1875 q 2.64063,0 4.71875,-1.21875 2.09375,-1.21875 3.26563,-3.34375 1.17187,-2.140625 1.17187,-4.859375 0,-2.71875 -1.17187,-4.875 -1.17188,-2.15625 -3.26563,-3.375 -2.07812,-1.21875 -4.71875,-1.21875 -2.625,0 -4.71875,1.21875 -2.07812,1.21875 -3.28125,3.375 -1.1875,2.15625 -1.1875,4.875 0,2.71875 1.1875,4.859375 1.20313,2.125 3.28125,3.34375 2.09375,1.21875 4.71875,1.21875 z m 29.10904,2.953125 q -2.40625,0 -4.29687,-1.125 -1.875,-1.140625 -2.96875,-3.109375 -1.07813,-1.96875 -1.07813,-4.515625 v -22.15625 q 0,-0.78125 0.46875,-1.28125 0.48438,-0.5 1.25,-0.5 0.78125,0 1.26563,0.5 0.5,0.5 0.5,1.28125 v 22.15625 q 0,2.3125 1.35937,3.796875 1.375,1.46875 3.5,1.46875 h 1.21875 q 0.73438,0 1.1875,0.5 0.45313,0.484375 0.45313,1.265625 0,0.765625 -0.54688,1.25 -0.54687,0.46875 -1.35937,0.46875 z m -11.28125,-20.84375 q -0.6875,0 -1.14062,-0.4375 -0.45313,-0.4375 -0.45313,-1.0625 0,-0.6875 0.45313,-1.109375 0.45312,-0.4375 1.14062,-0.4375 h 11.54688 q 0.6875,0 1.14062,0.4375 0.45313,0.421875 0.45313,1.109375 0,0.625 -0.45313,1.0625 -0.45312,0.4375 -1.14062,0.4375 z m 22.30002,20.84375 q -0.82813,0 -1.29688,-0.46875 -0.46875,-0.484375 -0.46875,-1.296875 V 74.079837 q 0,-0.8125 0.46875,-1.28125 0.46875,-0.484375 1.29688,-0.484375 0.76562,0 1.23437,0.484375 0.48438,0.46875 0.48438,1.28125 v 21.265625 q 0,0.8125 -0.48438,1.296875 -0.46875,0.46875 -1.23437,0.46875 z m -0.0625,-29.515625 q -0.98438,0 -1.71875,-0.71875 -0.71875,-0.71875 -0.71875,-1.765625 0,-1.140621 0.73437,-1.796871 0.75,-0.65625 1.75,-0.65625 0.95313,0 1.70313,0.65625 0.75,0.65625 0.75,1.796871 0,1.046875 -0.73438,1.765625 -0.71875,0.71875 -1.76562,0.71875 z m 21.9436,29.75 q -3.57812,0 -6.4375,-1.65625 -2.84375,-1.65625 -4.5,-4.515625 -1.65625,-2.859375 -1.65625,-6.484375 0,-3.578125 1.60938,-6.4375 1.60937,-2.859375 4.375,-4.5 2.76562,-1.65625 6.25,-1.65625 3.04684,0 5.48434,1.296875 2.45313,1.28125 3.95313,3.40625 V 63.470466 q 0,-0.8125 0.48437,-1.28125 0.5,-0.484375 1.28125,-0.484375 0.76563,0 1.26563,0.484375 0.5,0.46875 0.5,1.28125 v 21.406246 q -0.0937,3.53125 -1.75,6.375 -1.65625,2.828125 -4.48438,4.46875 -2.82812,1.625 -6.37497,1.625 z m 0,-3.1875 q 2.6406,0 4.7031,-1.234375 2.0625,-1.25 3.25,-3.375 1.20312,-2.140625 1.20312,-4.859375 0,-2.671875 -1.20312,-4.828125 -1.1875,-2.15625 -3.25,-3.375 -2.0625,-1.21875 -4.7031,-1.21875 -2.57812,0 -4.67187,1.21875 -2.07813,1.21875 -3.29688,3.375 -1.21875,2.15625 -1.21875,4.828125 0,2.71875 1.21875,4.859375 1.21875,2.125 3.29688,3.375 2.09375,1.234375 4.67187,1.234375 z m 23.26572,2.953125 q -0.82813,0 -1.29688,-0.46875 -0.46875,-0.484375 -0.46875,-1.296875 V 74.079837 q 0,-0.8125 0.46875,-1.28125 0.46875,-0.484375 1.29688,-0.484375 0.76562,0 1.23437,0.484375 0.48438,0.46875 0.48438,1.28125 v 21.265625 q 0,0.8125 -0.48438,1.296875 -0.46875,0.46875 -1.23437,0.46875 z m -0.0625,-29.515625 q -0.98438,0 -1.71875,-0.71875 -0.71875,-0.71875 -0.71875,-1.765625 0,-1.140621 0.73437,-1.796871 0.75,-0.65625 1.75,-0.65625 0.95313,0 1.70313,0.65625 0.75,0.65625 0.75,1.796871 0,1.046875 -0.73438,1.765625 -0.71875,0.71875 -1.76562,0.71875 z m 21.91235,29.75 q -3.67187,0 -6.51562,-1.609375 -2.82813,-1.609375 -4.4375,-4.46875 -1.60938,-2.859375 -1.60938,-6.53125 0,-3.71875 1.51563,-6.546875 1.51562,-2.828125 4.1875,-4.453125 2.6875,-1.640625 6.17187,-1.640625 3.4375,0 6,1.5625 2.5625,1.5625 3.96875,4.328125 1.40625,2.765625 1.40625,6.296875 0,0.71875 -0.45312,1.15625 -0.45313,0.4375 -1.17188,0.4375 h -19.26562 v -2.90625 h 19.625 l -1.95313,1.40625 q 0.0469,-2.625 -0.95312,-4.703125 -1,-2.09375 -2.84375,-3.265625 -1.82813,-1.1875 -4.35938,-1.1875 -2.57812,0 -4.53125,1.21875 -1.95312,1.21875 -3.01562,3.375 -1.0625,2.15625 -1.0625,4.921875 0,2.765625 1.20312,4.90625 1.20313,2.125 3.28125,3.34375 2.07813,1.21875 4.8125,1.21875 1.625,0 3.28125,-0.5625 1.65625,-0.5625 2.65625,-1.421875 0.48438,-0.40625 1.125,-0.421875 0.64063,-0.03125 1.09375,0.328125 0.57813,0.546875 0.59375,1.1875 0.0312,0.625 -0.5,1.078125 -1.5,1.265625 -3.8125,2.109375 -2.3125,0.84375 -4.4375,0.84375 z m 37.84711,-0.234375 q -0.78125,0 -1.28125,-0.5 -0.48437,-0.5 -0.48437,-1.21875 v -11.78125 q 0,-2.8125 -1.07813,-4.625 -1.0625,-1.8125 -2.90625,-2.71875 -1.82812,-0.90625 -4.14062,-0.90625 -2.21875,0 -4.01563,0.859375 -1.78125,0.859375 -2.82812,2.359375 -1.04688,1.484375 -1.04688,3.390625 h -2.48437 q 0.0937,-2.859375 1.53125,-5.09375 1.45312,-2.25 3.85937,-3.53125 2.40625,-1.296875 5.34375,-1.296875 3.21875,0 5.75,1.34375 2.54688,1.328125 4.01563,3.921875 1.48437,2.578125 1.48437,6.296875 v 11.78125 q 0,0.71875 -0.5,1.21875 -0.5,0.5 -1.21875,0.5 z m -19.5,0 q -0.8125,0 -1.29687,-0.46875 -0.46875,-0.484375 -0.46875,-1.25 v -21.3125 q 0,-0.8125 0.46875,-1.28125 0.48437,-0.484375 1.29687,-0.484375 0.78125,0 1.25,0.484375 0.46875,0.46875 0.46875,1.28125 v 21.3125 q 0,0.765625 -0.46875,1.25 -0.46875,0.46875 -1.25,0.46875 z"
       id="path11"
       inkscape:connector-curvature="0"
       style="fill:#0c2231;fill-rule:nonzero;fill-opacity:1;stroke-width:1;stroke-miterlimit:4;stroke-dasharray:none;stroke:#0c2231;stroke-opacity:1" />
    <path
       d="m 51.761196,151.74545 q -3.671875,0 -6.515625,-1.60938 -2.828125,-1.60937 -4.4375,-4.46875 -1.609375,-2.85937 -1.609375,-6.53125 0,-3.71875 1.515625,-6.54687 1.515625,-2.82813 4.1875,-4.45313 2.6875,-1.64062 6.171875,-1.64062 3.4375,0 6,1.5625 2.5625,1.5625 3.96875,4.32812 1.40625,2.76563 1.40625,6.29688 0,0.71875 -0.453125,1.15625 -0.453125,0.4375 -1.171875,0.4375 H 41.558071 v -2.90625 h 19.625 l -1.953125,1.40625 q 0.04687,-2.625 -0.953125,-4.70313 -1,-2.09375 -2.84375,-3.26562 -1.828125,-1.1875 -4.359375,-1.1875 -2.578125,0 -4.53125,1.21875 -1.953125,1.21875 -3.015625,3.375 -1.0625,2.15625 -1.0625,4.92187 0,2.76563 1.203125,4.90625 1.203125,2.125 3.28125,3.34375 2.078125,1.21875 4.8125,1.21875 1.625,0 3.28125,-0.5625 1.65625,-0.5625 2.65625,-1.42187 0.484375,-0.40625 1.125,-0.42188 0.640625,-0.0312 1.09375,0.32813 0.578125,0.54687 0.59375,1.1875 0.03125,0.625 -0.5,1.07812 -1.5,1.26563 -3.8125,2.10938 -2.3125,0.84375 -4.4375,0.84375 z m 37.847103,-0.23438 q -0.78125,0 -1.28125,-0.5 -0.484375,-0.5 -0.484375,-1.21875 v -11.78125 q 0,-2.8125 -1.078125,-4.625 -1.0625,-1.8125 -2.90625,-2.71875 -1.828125,-0.90625 -4.140625,-0.90625 -2.21875,0 -4.015625,0.85938 -1.78125,0.85937 -2.828125,2.35937 -1.046875,1.48438 -1.046875,3.39063 h -2.484375 q 0.09375,-2.85938 1.53125,-5.09375 1.453125,-2.25 3.859375,-3.53125 2.40625,-1.29687 5.34375,-1.29687 3.21875,0 5.75,1.34375 2.546875,1.32812 4.015625,3.92187 1.484375,2.57812 1.484375,6.29687 v 11.78125 q 0,0.71875 -0.5,1.21875 -0.5,0.5 -1.21875,0.5 z m -19.5,0 q -0.8125,0 -1.296875,-0.46875 -0.46875,-0.48437 -0.46875,-1.25 v -21.3125 q 0,-0.81249 0.46875,-1.28124 0.484375,-0.48438 1.296875,-0.48438 0.78125,0 1.25,0.48438 0.46875,0.46875 0.46875,1.28124 v 21.3125 q 0,0.76563 -0.46875,1.25 -0.46875,0.46875 -1.25,0.46875 z m 71.843191,0.45313 q -3.67188,0 -6.875,-1.40625 -3.1875,-1.40625 -5.60938,-3.92188 -2.42188,-2.51562 -3.78125,-5.79687 -1.35938,-3.29688 -1.35938,-7.04688 0,-3.71875 1.32813,-6.99999 1.34375,-3.29688 3.76563,-5.78125 2.42187,-2.5 5.60937,-3.92188 3.20313,-1.4375 6.92188,-1.4375 3.26562,0 5.9375,0.95313 2.6875,0.95312 5.17187,3.04687 0.40625,0.3125 0.46875,0.75 0.0781,0.42188 -0.10937,0.8125 -0.17188,0.375 -0.54688,0.5625 -0.0781,0.35938 -0.45312,0.54688 -0.35938,0.17187 -0.84375,0.14062 -0.46875,-0.0469 -0.92188,-0.42187 -1.76562,-1.53125 -3.85937,-2.28125 -2.07813,-0.75 -4.84375,-0.75 -2.9375,0 -5.5,1.1875 -2.5625,1.17187 -4.51563,3.21875 -1.95312,2.03125 -3.0625,4.70312 -1.10938,2.67187 -1.10938,5.67187 0,3.07813 1.10938,5.75 1.10938,2.67188 3.0625,4.71875 1.95313,2.03125 4.51563,3.1875 2.5625,1.15625 5.5,1.15625 2.5,0 4.71875,-0.8125 2.21875,-0.8125 4.21875,-2.35937 0.54687,-0.45313 1.15625,-0.35938 0.60937,0.0937 1.0625,0.54688 0.45312,0.45312 0.45312,1.17187 0,0.375 -0.10937,0.67188 -0.10938,0.28125 -0.39063,0.60937 -2.3125,2.125 -5.17187,3.01563 -2.84375,0.875 -5.9375,0.875 z m 27.8893,-0.21875 q -3.67188,0 -6.51563,-1.60938 -2.82812,-1.60937 -4.4375,-4.46875 -1.60937,-2.85937 -1.60937,-6.53125 0,-3.71875 1.51562,-6.54687 1.51563,-2.82813 4.1875,-4.45313 2.6875,-1.64062 6.17188,-1.64062 3.4375,0 6,1.5625 2.5625,1.5625 3.96875,4.32812 1.40625,2.76563 1.40625,6.29688 0,0.71875 -0.45313,1.15625 -0.45312,0.4375 -1.17187,0.4375 h -19.26563 v -2.90625 h 19.625 l -1.95312,1.40625 q 0.0469,-2.625 -0.95313,-4.70313 -1,-2.09375 -2.84375,-3.26562 -1.82812,-1.1875 -4.35937,-1.1875 -2.57813,0 -4.53125,1.21875 -1.95313,1.21875 -3.01563,3.375 -1.0625,2.15625 -1.0625,4.92187 0,2.76563 1.20313,4.90625 1.20312,2.125 3.28125,3.34375 2.07812,1.21875 4.8125,1.21875 1.625,0 3.28125,-0.5625 1.65625,-0.5625 2.65625,-1.42187 0.48437,-0.40625 1.125,-0.42188 0.64062,-0.0312 1.09375,0.32813 0.57812,0.54687 0.59375,1.1875 0.0312,0.625 -0.5,1.07812 -1.5,1.26563 -3.8125,2.10938 -2.3125,0.84375 -4.4375,0.84375 z m 37.8471,-0.23438 q -0.78125,0 -1.28125,-0.5 -0.48437,-0.5 -0.48437,-1.21875 v -11.78125 q 0,-2.8125 -1.07813,-4.625 -1.0625,-1.8125 -2.90625,-2.71875 -1.82812,-0.90625 -4.14062,-0.90625 -2.21875,0 -4.01563,0.85938 -1.78125,0.85937 -2.82812,2.35937 -1.04688,1.48438 -1.04688,3.39063 h -2.48437 q 0.0937,-2.85938 1.53125,-5.09375 1.45312,-2.25 3.85937,-3.53125 2.40625,-1.29687 5.34375,-1.29687 3.21875,0 5.75,1.34375 2.54688,1.32812 4.01563,3.92187 1.48437,2.57812 1.48437,6.29687 v 11.78125 q 0,0.71875 -0.5,1.21875 -0.5,0.5 -1.21875,0.5 z m -19.5,0 q -0.8125,0 -1.29687,-0.46875 -0.46875,-0.48437 -0.46875,-1.25 v -21.3125 q 0,-0.81249 0.46875,-1.28124 0.48437,-0.48438 1.29687,-0.48438 0.78125,0 1.25,0.48438 0.46875,0.46875 0.46875,1.28124 v 21.3125 q 0,0.76563 -0.46875,1.25 -0.46875,0.46875 -1.25,0.46875 z m 38.62465,0 q -2.40625,0 -4.29687,-1.125 -1.875,-1.14062 -2.96875,-3.10937 -1.07813,-1.96875 -1.07813,-4.51563 v -22.15624 q 0,-0.78125 0.46875,-1.28125 0.48438,-0.5 1.25,-0.5 0.78125,0 1.26563,0.5 0.5,0.5 0.5,1.28125 v 22.15624 q 0,2.3125 1.35937,3.79688 1.375,1.46875 3.5,1.46875 h 1.21875 q 0.73438,0 1.1875,0.5 0.45313,0.48437 0.45313,1.26562 0,0.76563 -0.54688,1.25 -0.54687,0.46875 -1.35937,0.46875 z m -11.28125,-20.84375 q -0.6875,0 -1.14062,-0.4375 -0.45313,-0.4375 -0.45313,-1.0625 0,-0.6875 0.45313,-1.10937 0.45312,-0.4375 1.14062,-0.4375 h 11.54688 q 0.6875,0 1.14062,0.4375 0.45313,0.42187 0.45313,1.10937 0,0.625 -0.45313,1.0625 -0.45312,0.4375 -1.14062,0.4375 z m 21.25316,5.5625 q 0.14063,-2.79687 1.46875,-5.01562 1.34375,-2.23438 3.48438,-3.5 2.15625,-1.26562 4.79687,-1.26562 2.07813,0 3.20313,0.59375 1.14062,0.57812 0.875,1.71874 -0.1875,0.67188 -0.625,0.90625 -0.42188,0.21875 -1.03125,0.17188 -0.60938,-0.0469 -1.39063,-0.0781 -2.53125,-0.23437 -4.5,0.51563 -1.96875,0.75 -3.125,2.29687 -1.15625,1.53125 -1.15625,3.65625 z m 0.26563,15.28125 q -0.8125,0 -1.26563,-0.45312 -0.45312,-0.45313 -0.45312,-1.26563 v -21.35937 q 0,-0.8125 0.45312,-1.26562 0.45313,-0.45313 1.26563,-0.45313 0.82812,0 1.28125,0.45313 0.45312,0.45312 0.45312,1.26562 v 21.35937 q 0,0.8125 -0.45312,1.26563 -0.45313,0.45312 -1.28125,0.45312 z m 28.47818,0.23438 q -3.67188,0 -6.51563,-1.60938 -2.82812,-1.60937 -4.43748,-4.46875 -1.60938,-2.85937 -1.60938,-6.53125 0,-3.71875 1.51563,-6.54687 1.51562,-2.82813 4.18748,-4.45313 2.6875,-1.64062 6.17188,-1.64062 3.4375,0 6,1.5625 2.5625,1.5625 3.96875,4.32812 1.40625,2.76563 1.40625,6.29688 0,0.71875 -0.45313,1.15625 -0.45312,0.4375 -1.17187,0.4375 h -19.26561 v -2.90625 h 19.62498 l -1.95312,1.40625 q 0.0469,-2.625 -0.95313,-4.70313 -1,-2.09375 -2.84375,-3.26562 -1.82812,-1.1875 -4.35937,-1.1875 -2.57813,0 -4.53125,1.21875 -1.95313,1.21875 -3.01563,3.375 -1.0625,2.15625 -1.0625,4.92187 0,2.76563 1.20313,4.90625 1.20312,2.125 3.28125,3.34375 2.07812,1.21875 4.8125,1.21875 1.625,0 3.28125,-0.5625 1.65625,-0.5625 2.65625,-1.42187 0.48437,-0.40625 1.125,-0.42188 0.64062,-0.0312 1.09375,0.32813 0.57812,0.54687 0.59375,1.1875 0.0312,0.625 -0.5,1.07812 -1.5,1.26563 -3.8125,2.10938 -2.3125,0.84375 -4.4375,0.84375 z m 29.22201,-10.89063 q -0.71875,0 -1.21875,-0.5 -0.5,-0.5 -0.5,-1.21875 0,-0.76562 0.5,-1.26562 0.5,-0.5 1.21875,-0.5 h 10.65625 q 0.78125,0 1.26563,0.5 0.5,0.5 0.5,1.26562 0,0.71875 -0.5,1.21875 -0.48438,0.5 -1.26563,0.5 z m 43.83258,10.65625 q -1.125,0 -1.625,-1.14062 l -13.46875,-31.5 q -0.48437,-1.26562 -0.0625,-2.01562 0.4375,-0.75 1.51563,-0.75 1.14062,0 1.64062,1.14062 l 12.5,29.92187 h -0.98437 L 350.5516,117.3392 q 0.28125,-0.6875 0.6875,-0.95312 0.40625,-0.28125 1.07813,-0.28125 1.04687,0 1.40625,0.79687 0.375,0.79688 -0.0469,1.79688 l -13.5,31.67187 q -0.26562,0.64062 -0.6875,0.89062 -0.40625,0.25 -0.90625,0.25 z m 26.20267,0.23438 q -3.48438,0 -6.25,-1.65625 -2.76563,-1.65625 -4.375,-4.51563 -1.60938,-2.85937 -1.60938,-6.4375 0,-3.625 1.65625,-6.48437 1.65625,-2.85938 4.5,-4.5 2.85938,-1.65625 6.4375,-1.65625 3.59375,0 6.42188,1.65625 2.82812,1.64062 4.48437,4.5 1.65625,2.85937 1.70313,6.48437 l -1.40625,1.09375 q 0,3.26563 -1.51563,5.875 -1.51562,2.59375 -4.125,4.125 -2.60937,1.51563 -5.92187,1.51563 z m 0.35937,-3.1875 q 2.64063,0 4.70313,-1.21875 2.0625,-1.21875 3.25,-3.375 1.20312,-2.15625 1.20312,-4.82813 0,-2.71875 -1.20312,-4.84375 -1.1875,-2.14062 -3.25,-3.375 -2.0625,-1.25 -4.70313,-1.25 -2.57812,0 -4.67187,1.25 -2.07813,1.23438 -3.29688,3.375 -1.21875,2.125 -1.21875,4.84375 0,2.67188 1.21875,4.82813 1.21875,2.15625 3.29688,3.375 2.09375,1.21875 4.67187,1.21875 z m 10.84375,2.95312 q -0.78125,0 -1.28125,-0.46875 -0.48437,-0.48437 -0.48437,-1.25 v -7.75 l 0.85937,-3.57812 2.67188,0.67187 v 10.65625 q 0,0.76563 -0.5,1.25 -0.5,0.46875 -1.26563,0.46875 z m 13.90592,0 q -1.8125,0 -3.23438,-1 -1.42187,-1 -2.21875,-2.76562 -0.79687,-1.76563 -0.79687,-4.07813 V 117.8392 q 0,-0.78125 0.46875,-1.25 0.48437,-0.48437 1.25,-0.48437 0.78125,0 1.25,0.48437 0.48437,0.46875 0.48437,1.25 v 25.82812 q 0,1.95313 0.78125,3.1875 0.79688,1.21875 2.01563,1.21875 h 1.14062 q 0.67188,0 1.07813,0.46875 0.42187,0.46875 0.42187,1.25 0,0.76563 -0.57812,1.25 -0.5625,0.46875 -1.46875,0.46875 z m 32.00116,0.23438 q -3.57813,0 -6.4375,-1.65625 -2.84375,-1.65625 -4.5,-4.51563 -1.65625,-2.85937 -1.65625,-6.48437 0,-3.57813 1.60937,-6.4375 1.60938,-2.85938 4.375,-4.5 2.76563,-1.65625 6.25,-1.65625 3.04688,0 5.48438,1.29688 2.45312,1.28124 3.95312,3.40624 v -13.32812 q 0,-0.8125 0.48438,-1.28125 0.5,-0.48437 1.28125,-0.48437 0.76562,0 1.26562,0.48437 0.5,0.46875 0.5,1.28125 v 21.40625 q -0.0937,3.53125 -1.75,6.375 -1.65625,2.82812 -4.48437,4.46875 -2.82813,1.625 -6.375,1.625 z m 0,-3.1875 q 2.64062,0 4.70312,-1.23438 2.0625,-1.25 3.25,-3.375 1.20313,-2.14062 1.20313,-4.85937 0,-2.67188 -1.20313,-4.82813 -1.1875,-2.15625 -3.25,-3.375 -2.0625,-1.21875 -4.70312,-1.21875 -2.57813,0 -4.67188,1.21875 -2.07812,1.21875 -3.29687,3.375 -1.21875,2.15625 -1.21875,4.82813 0,2.71875 1.21875,4.85937 1.21875,2.125 3.29687,3.375 2.09375,1.23438 4.67188,1.23438 z m 32.01574,3.1875 q -3.67187,0 -6.51562,-1.60938 -2.82813,-1.60937 -4.4375,-4.46875 -1.60938,-2.85937 -1.60938,-6.53125 0,-3.71875 1.51563,-6.54687 1.51562,-2.82813 4.1875,-4.45313 2.6875,-1.64062 6.17187,-1.64062 3.4375,0 6,1.5625 2.5625,1.5625 3.96875,4.32812 1.40625,2.76563 1.40625,6.29688 0,0.71875 -0.45312,1.15625 -0.45313,0.4375 -1.17188,0.4375 h -19.26562 v -2.90625 h 19.625 l -1.95313,1.40625 q 0.0469,-2.625 -0.95312,-4.70313 -1,-2.09375 -2.84375,-3.26562 -1.82813,-1.1875 -4.35938,-1.1875 -2.57812,0 -4.53125,1.21875 -1.95312,1.21875 -3.01562,3.375 -1.0625,2.15625 -1.0625,4.92187 0,2.76563 1.20312,4.90625 1.20313,2.125 3.28125,3.34375 2.07813,1.21875 4.8125,1.21875 1.625,0 3.28125,-0.5625 1.65625,-0.5625 2.65625,-1.42187 0.48438,-0.40625 1.125,-0.42188 0.64063,-0.0312 1.09375,0.32813 0.57813,0.54687 0.59375,1.1875 0.0312,0.625 -0.5,1.07812 -1.5,1.26563 -3.8125,2.10938 -2.3125,0.84375 -4.4375,0.84375 z"
       id="path13"
       inkscape:connector-curvature="0"
       style="fill:#0c2231;fill-rule:nonzero;fill-opacity:1;stroke-width:1;stroke-miterlimit:4;stroke-dasharray:none;stroke:#0c2231;stroke-opacity:1" />
    <path
       d="m 485.99283,151.51108 q -0.71875,0 -1.25,-0.5 -0.51562,-0.5 -0.51562,-1.26563 v -31.875 q 0,-0.71875 0.51562,-1.23437 0.53125,-0.53125 1.25,-0.53125 0.73438,0 1.25,0.53125 0.51563,0.51562 0.51563,1.23437 v 30.28125 h 17.73437 q 0.71875,0 1.23438,0.48438 0.53125,0.46875 0.53125,1.20312 0,0.71875 -0.53125,1.20313 -0.51563,0.46875 -1.23438,0.46875 z m 37.75522,0.23437 q -3.625,0 -6.48437,-1.625 -2.84375,-1.64062 -4.48438,-4.5 -1.625,-2.85937 -1.625,-6.48437 0,-3.67188 1.625,-6.51563 1.64063,-2.85937 4.48438,-4.48437 2.85937,-1.64063 6.48437,-1.64063 3.64063,0 6.46875,1.64063 2.82813,1.625 4.45313,4.48437 1.64062,2.84375 1.6875,6.51563 0,3.625 -1.65625,6.48437 -1.65625,2.85938 -4.48438,4.5 -2.82812,1.625 -6.46875,1.625 z m 0,-3.1875 q 2.64063,0 4.71875,-1.21875 2.09375,-1.21875 3.26563,-3.34375 1.17187,-2.14062 1.17187,-4.85937 0,-2.71875 -1.17187,-4.875 -1.17188,-2.15625 -3.26563,-3.375 -2.07812,-1.21875 -4.71875,-1.21875 -2.625,0 -4.71875,1.21875 -2.07812,1.21875 -3.28125,3.375 -1.1875,2.15625 -1.1875,4.875 0,2.71875 1.1875,4.85937 1.20313,2.125 3.28125,3.34375 2.09375,1.21875 4.71875,1.21875 z m 21.90588,2.95313 q -0.82812,0 -1.29687,-0.46875 -0.46875,-0.48438 -0.46875,-1.29688 v -21.26562 q 0,-0.8125 0.46875,-1.28125 0.46875,-0.48438 1.29687,-0.48438 0.76563,0 1.23438,0.48438 0.48437,0.46875 0.48437,1.28125 v 21.26562 q 0,0.8125 -0.48437,1.29688 -0.46875,0.46875 -1.23438,0.46875 z m -0.0625,-29.51563 q -0.98437,0 -1.71875,-0.71875 -0.71875,-0.71875 -0.71875,-1.76562 0,-1.14063 0.73438,-1.79688 0.75,-0.65625 1.75,-0.65625 0.95312,0 1.70312,0.65625 0.75,0.65625 0.75,1.79688 0,1.04687 -0.73437,1.76562 -0.71875,0.71875 -1.76563,0.71875 z m 12.11542,14.23438 q 0.14063,-2.79688 1.46875,-5.01563 1.34375,-2.23437 3.48438,-3.5 2.15625,-1.26562 4.79687,-1.26562 2.07813,0 3.20313,0.59375 1.14062,0.57812 0.875,1.71875 -0.1875,0.67187 -0.625,0.90625 -0.42188,0.21875 -1.03125,0.17187 -0.60938,-0.0469 -1.39063,-0.0781 -2.53125,-0.23438 -4.5,0.51562 -1.96875,0.75 -3.125,2.29688 -1.15625,1.53125 -1.15625,3.65625 z m 0.26563,15.28125 q -0.8125,0 -1.26563,-0.45313 -0.45312,-0.45312 -0.45312,-1.26562 v -21.35938 q 0,-0.8125 0.45312,-1.26562 0.45313,-0.45313 1.26563,-0.45313 0.82812,0 1.28125,0.45313 0.45312,0.45312 0.45312,1.26562 v 21.35938 q 0,0.8125 -0.45312,1.26562 -0.45313,0.45313 -1.28125,0.45313 z m 28.47821,0.23437 q -3.67188,0 -6.51563,-1.60937 -2.82812,-1.60938 -4.4375,-4.46875 -1.60937,-2.85938 -1.60937,-6.53125 0,-3.71875 1.51562,-6.54688 1.51563,-2.82812 4.1875,-4.45312 2.6875,-1.64063 6.17188,-1.64063 3.4375,0 6,1.5625 2.5625,1.5625 3.96875,4.32813 1.40625,2.76562 1.40625,6.29687 0,0.71875 -0.45313,1.15625 -0.45312,0.4375 -1.17187,0.4375 h -19.26563 v -2.90625 h 19.625 l -1.95312,1.40625 q 0.0469,-2.625 -0.95313,-4.70312 -1,-2.09375 -2.84375,-3.26563 -1.82812,-1.1875 -4.35937,-1.1875 -2.57813,0 -4.53125,1.21875 -1.95313,1.21875 -3.01563,3.375 -1.0625,2.15625 -1.0625,4.92188 0,2.76562 1.20313,4.90625 1.20312,2.125 3.28125,3.34375 2.07812,1.21875 4.8125,1.21875 1.625,0 3.28125,-0.5625 1.65625,-0.5625 2.65625,-1.42188 0.48437,-0.40625 1.125,-0.42187 0.64062,-0.0312 1.09375,0.32812 0.57812,0.54688 0.59375,1.1875 0.0312,0.625 -0.5,1.07813 -1.5,1.26562 -3.8125,2.10937 -2.3125,0.84375 -4.4375,0.84375 z"
       id="path15"
       inkscape:connector-curvature="0"
       style="fill:#0c2231;fill-rule:nonzero;fill-opacity:1;stroke-width:1;stroke-miterlimit:4;stroke-dasharray:none;stroke:#0c2231;stroke-opacity:1" />
  </g>
</svg>
