<?xml version="1.0" standalone="no"?>
<!DOCTYPE svg PUBLIC "-//W3C//DTD SVG 20010904//EN"
 "http://www.w3.org/TR/2001/REC-SVG-20010904/DTD/svg10.dtd">
<svg version="1.0" xmlns="http://www.w3.org/2000/svg"
 width="720.000000pt" height="720.000000pt" viewBox="0 0 720.000000 720.000000"
 preserveAspectRatio="xMidYMid meet">
<metadata>
Created by potrace 1.16, written by Peter Selinger 2001-2019
</metadata>
<g transform="translate(0.000000,720.000000) scale(0.100000,-0.100000)"
fill="#0c2231" stroke="none">
<path d="M3110 7193 c-41 -2 -79 -8 -84 -13 -6 -6 -36 -10 -68 -10 -32 0 -58
-4 -58 -9 0 -8 -73 -25 -162 -38 -21 -3 -38 -9 -38 -14 0 -5 -20 -9 -45 -9
-25 0 -45 -4 -45 -10 0 -5 -16 -10 -35 -10 -19 0 -35 -4 -35 -10 0 -5 -13 -10
-30 -10 -16 0 -30 -4 -30 -10 0 -5 -16 -12 -35 -16 -19 -3 -38 -10 -41 -15 -3
-5 -16 -9 -30 -9 -13 0 -24 -4 -24 -10 0 -5 -16 -10 -35 -10 -19 0 -35 -4 -35
-10 0 -5 -9 -10 -19 -10 -11 0 -23 -4 -26 -10 -3 -5 -17 -10 -31 -10 -14 0
-27 -7 -30 -15 -4 -8 -15 -15 -25 -15 -10 0 -19 -4 -19 -10 0 -5 -11 -10 -25
-10 -14 0 -25 -4 -25 -10 0 -5 -9 -10 -19 -10 -11 0 -23 -4 -26 -10 -3 -5 -15
-10 -26 -10 -10 0 -19 -4 -19 -10 0 -5 -9 -10 -19 -10 -10 0 -21 -7 -25 -15
-3 -8 -15 -15 -26 -15 -11 0 -20 -4 -20 -10 0 -5 -9 -10 -20 -10 -11 0 -20 -4
-20 -10 0 -5 -9 -10 -20 -10 -11 0 -20 -4 -20 -10 0 -5 -9 -10 -19 -10 -10 0
-29 -11 -42 -25 -13 -13 -30 -25 -36 -25 -7 0 -13 -4 -13 -10 0 -5 -8 -10 -18
-10 -10 0 -28 -9 -40 -20 -12 -11 -26 -20 -33 -20 -6 0 -22 -11 -35 -25 -13
-14 -28 -25 -35 -25 -6 0 -24 -13 -39 -30 -15 -16 -36 -30 -45 -30 -18 0 -45
-23 -45 -38 0 -5 -15 -16 -32 -23 -35 -14 -98 -71 -98 -89 0 -5 -9 -10 -21
-10 -28 0 -439 -411 -439 -439 0 -12 -5 -21 -10 -21 -14 0 -80 -66 -80 -81 0
-6 -16 -26 -35 -45 -19 -18 -35 -40 -35 -47 0 -8 -13 -28 -30 -45 -16 -18 -30
-37 -30 -42 0 -6 -11 -21 -25 -34 -14 -13 -25 -29 -25 -35 0 -7 -9 -21 -20
-33 -11 -12 -20 -30 -20 -40 0 -10 -4 -18 -10 -18 -5 0 -10 -6 -10 -12 0 -7
-12 -24 -25 -37 -14 -13 -25 -32 -25 -42 0 -10 -4 -19 -10 -19 -5 0 -10 -9
-10 -20 0 -11 -4 -20 -10 -20 -5 0 -10 -9 -10 -20 0 -11 -4 -20 -10 -20 -5 0
-10 -9 -10 -20 0 -11 -7 -23 -15 -26 -8 -4 -15 -15 -15 -25 0 -10 -4 -19 -10
-19 -5 0 -10 -9 -10 -19 0 -11 -4 -23 -10 -26 -5 -3 -10 -15 -10 -26 0 -10 -4
-19 -10 -19 -5 0 -10 -11 -10 -25 0 -14 -4 -25 -10 -25 -5 0 -10 -9 -10 -19 0
-10 -7 -21 -15 -25 -8 -3 -15 -16 -15 -30 0 -14 -4 -28 -10 -31 -5 -3 -10 -15
-10 -26 0 -10 -4 -19 -10 -19 -5 0 -10 -16 -10 -35 0 -19 -4 -35 -10 -35 -5 0
-10 -11 -10 -24 0 -14 -4 -27 -9 -30 -5 -3 -12 -22 -15 -41 -4 -19 -11 -35
-16 -35 -6 0 -10 -13 -10 -30 0 -16 -4 -30 -10 -30 -5 0 -10 -16 -10 -35 0
-19 -4 -35 -10 -35 -5 0 -10 -20 -10 -45 0 -25 -4 -45 -9 -45 -5 0 -11 -17
-14 -37 -13 -90 -30 -163 -38 -163 -5 0 -9 -26 -9 -58 0 -33 -5 -63 -12 -70
-19 -19 -19 -1125 0 -1143 7 -8 12 -38 12 -71 0 -32 4 -58 9 -58 8 0 25 -73
38 -162 3 -21 9 -38 14 -38 5 0 9 -20 9 -45 0 -25 5 -45 10 -45 6 0 10 -16 10
-35 0 -19 5 -35 10 -35 6 0 10 -13 10 -30 0 -16 4 -30 10 -30 5 0 12 -16 16
-35 3 -19 10 -38 15 -41 5 -3 9 -16 9 -30 0 -13 5 -24 10 -24 6 0 10 -16 10
-35 0 -19 5 -35 10 -35 6 0 10 -9 10 -19 0 -11 5 -23 10 -26 6 -3 10 -17 10
-31 0 -14 7 -27 15 -30 8 -4 15 -15 15 -25 0 -10 5 -19 10 -19 6 0 10 -11 10
-25 0 -14 5 -25 10 -25 6 0 10 -9 10 -19 0 -11 4 -23 10 -26 5 -3 10 -15 10
-26 0 -10 5 -19 10 -19 6 0 10 -9 10 -19 0 -10 7 -21 15 -25 8 -3 15 -15 15
-26 0 -11 5 -20 10 -20 6 0 10 -9 10 -20 0 -11 5 -20 10 -20 6 0 10 -9 10 -20
0 -11 5 -20 10 -20 6 0 10 -9 10 -19 0 -10 11 -29 25 -42 13 -13 25 -30 25
-36 0 -7 5 -13 10 -13 6 0 10 -8 10 -18 0 -10 9 -28 20 -40 11 -12 20 -26 20
-33 0 -6 11 -22 25 -35 14 -13 25 -28 25 -35 0 -6 14 -24 30 -39 17 -15 30
-36 30 -45 0 -18 23 -45 38 -45 5 0 16 -15 23 -32 14 -35 71 -98 89 -98 5 0
10 -9 10 -21 0 -28 411 -439 439 -439 12 0 21 -5 21 -10 0 -18 63 -75 98 -89
17 -7 32 -18 32 -23 0 -15 27 -38 45 -38 9 0 30 -13 45 -30 15 -16 33 -30 39
-30 7 0 22 -11 35 -25 13 -14 29 -25 35 -25 7 0 21 -9 33 -20 12 -11 30 -20
40 -20 10 0 18 -4 18 -10 0 -5 6 -10 13 -10 6 0 23 -12 36 -25 13 -14 32 -25
42 -25 10 0 19 -4 19 -10 0 -5 9 -10 20 -10 11 0 20 -4 20 -10 0 -5 9 -10 20
-10 11 0 20 -4 20 -10 0 -5 9 -10 20 -10 11 0 23 -7 26 -15 4 -8 15 -15 25
-15 10 0 19 -4 19 -10 0 -5 9 -10 19 -10 11 0 23 -5 26 -10 3 -6 15 -10 26
-10 10 0 19 -4 19 -10 0 -5 11 -10 25 -10 14 0 25 -4 25 -10 0 -5 9 -10 19
-10 10 0 21 -7 25 -15 3 -8 16 -15 30 -15 14 0 28 -4 31 -10 3 -5 15 -10 26
-10 10 0 19 -4 19 -10 0 -5 16 -10 35 -10 19 0 35 -4 35 -10 0 -5 11 -10 24
-10 14 0 27 -4 30 -9 3 -5 22 -12 41 -15 19 -4 35 -11 35 -16 0 -6 14 -10 30
-10 17 0 30 -4 30 -10 0 -5 16 -10 35 -10 19 0 35 -4 35 -10 0 -5 20 -10 45
-10 25 0 45 -4 45 -9 0 -5 17 -11 38 -14 89 -13 162 -30 162 -38 0 -5 26 -9
58 -9 33 0 63 -5 71 -13 18 -18 1124 -18 1142 0 8 8 38 13 71 13 32 0 58 4 58
9 0 8 73 25 163 38 20 3 37 9 37 14 0 5 20 9 45 9 25 0 45 5 45 10 0 6 16 10
35 10 19 0 35 5 35 10 0 6 14 10 30 10 17 0 30 4 30 10 0 5 16 12 35 16 19 3
38 10 41 15 3 5 16 9 30 9 13 0 24 5 24 10 0 6 16 10 35 10 19 0 35 5 35 10 0
6 9 10 19 10 11 0 23 5 26 10 3 6 17 10 31 10 14 0 27 7 30 15 4 8 15 15 25
15 10 0 19 5 19 10 0 6 11 10 25 10 14 0 25 5 25 10 0 6 9 10 19 10 11 0 23 5
26 10 3 6 15 10 26 10 10 0 19 5 19 10 0 6 9 10 19 10 10 0 21 7 25 15 3 8 15
15 26 15 11 0 20 5 20 10 0 6 9 10 20 10 11 0 20 5 20 10 0 6 9 10 20 10 11 0
20 5 20 10 0 6 9 10 19 10 10 0 29 11 42 25 13 13 30 25 37 25 6 0 12 5 12 10
0 6 8 10 18 10 10 0 28 9 40 20 12 11 26 20 33 20 6 0 22 11 35 25 13 14 28
25 34 25 5 0 24 14 42 30 17 17 37 30 45 30 7 0 29 16 47 35 19 19 39 35 45
35 15 0 81 66 81 80 0 5 9 10 21 10 28 0 439 411 439 439 0 12 5 21 10 21 18
0 75 63 89 97 7 18 18 33 23 33 15 0 38 27 38 45 0 9 14 30 30 45 17 15 30 33
30 39 0 7 11 22 25 35 14 13 25 29 25 35 0 7 9 21 20 33 11 12 20 30 20 40 0
10 5 18 10 18 6 0 10 6 10 13 0 6 12 23 25 36 14 13 25 32 25 42 0 10 5 19 10
19 6 0 10 9 10 20 0 11 5 20 10 20 6 0 10 9 10 20 0 11 5 20 10 20 6 0 10 9
10 20 0 11 7 23 15 26 8 4 15 15 15 25 0 10 5 19 10 19 6 0 10 9 10 19 0 11 4
23 10 26 6 3 10 15 10 26 0 10 5 19 10 19 6 0 10 11 10 25 0 14 5 25 10 25 6
0 10 9 10 19 0 10 7 21 15 25 8 3 15 16 15 30 0 14 4 28 10 31 6 3 10 15 10
26 0 10 5 19 10 19 6 0 10 16 10 35 0 19 5 35 10 35 6 0 10 11 10 24 0 14 4
27 9 30 5 3 12 22 15 41 4 19 11 35 16 35 6 0 10 14 10 30 0 17 5 30 10 30 6
0 10 16 10 35 0 19 5 35 10 35 6 0 10 20 10 45 0 25 4 45 9 45 5 0 11 17 14
38 13 89 30 162 38 162 5 0 9 26 9 58 0 33 5 63 13 71 9 9 12 137 12 571 0
434 -3 562 -12 572 -8 7 -13 37 -13 70 0 32 -4 58 -9 58 -8 0 -25 73 -38 163
-3 20 -9 37 -14 37 -5 0 -9 20 -9 45 0 25 -4 45 -10 45 -5 0 -10 16 -10 35 0
19 -4 35 -10 35 -5 0 -10 14 -10 30 0 17 -4 30 -10 30 -5 0 -12 16 -16 35 -3
19 -10 38 -15 41 -5 3 -9 16 -9 30 0 13 -4 24 -10 24 -5 0 -10 16 -10 35 0 19
-4 35 -10 35 -5 0 -10 9 -10 19 0 11 -4 23 -10 26 -5 3 -10 17 -10 31 0 14 -7
27 -15 30 -8 4 -15 15 -15 25 0 10 -4 19 -10 19 -5 0 -10 11 -10 25 0 14 -4
25 -10 25 -5 0 -10 9 -10 19 0 11 -4 23 -10 26 -5 3 -10 15 -10 26 0 10 -4 19
-10 19 -5 0 -10 9 -10 19 0 10 -7 21 -15 25 -8 3 -15 15 -15 26 0 11 -4 20
-10 20 -5 0 -10 9 -10 20 0 11 -4 20 -10 20 -5 0 -10 9 -10 20 0 11 -4 20 -10
20 -5 0 -10 9 -10 19 0 10 -11 29 -25 42 -13 13 -25 30 -25 37 0 6 -4 12 -10
12 -5 0 -10 8 -10 18 0 10 -9 28 -20 40 -11 12 -20 26 -20 33 0 6 -11 22 -25
35 -14 13 -25 28 -25 34 0 5 -13 24 -30 42 -16 17 -30 37 -30 45 0 7 -16 29
-35 47 -19 19 -35 39 -35 45 0 15 -66 81 -80 81 -5 0 -10 9 -10 21 0 22 -409
439 -431 439 -7 0 -31 20 -55 45 -23 25 -47 45 -53 45 -6 0 -11 5 -11 10 0 6
-5 10 -12 10 -7 0 -22 10 -33 23 -11 12 -33 29 -50 37 -16 8 -37 23 -46 32 -9
10 -22 18 -28 18 -7 0 -22 11 -35 25 -13 14 -30 25 -37 25 -8 0 -21 9 -29 20
-8 11 -25 20 -37 20 -13 0 -23 5 -23 10 0 6 -6 10 -12 10 -7 0 -24 12 -37 25
-13 14 -32 25 -42 25 -10 0 -19 5 -19 10 0 6 -9 10 -20 10 -11 0 -20 5 -20 10
0 6 -9 10 -20 10 -11 0 -20 5 -20 10 0 6 -9 10 -20 10 -11 0 -23 7 -26 15 -4
8 -15 15 -25 15 -10 0 -19 5 -19 10 0 6 -9 10 -19 10 -11 0 -23 5 -26 10 -3 6
-15 10 -26 10 -10 0 -19 5 -19 10 0 6 -11 10 -25 10 -14 0 -25 5 -25 10 0 6
-9 10 -19 10 -10 0 -21 7 -25 15 -3 8 -16 15 -30 15 -14 0 -28 5 -31 10 -3 6
-15 10 -26 10 -10 0 -19 5 -19 10 0 6 -16 10 -35 10 -19 0 -35 5 -35 10 0 6
-11 10 -24 10 -14 0 -27 4 -30 9 -3 5 -22 12 -41 15 -19 4 -35 11 -35 16 0 6
-13 10 -30 10 -16 0 -30 5 -30 10 0 6 -16 10 -35 10 -19 0 -35 5 -35 10 0 6
-20 10 -45 10 -25 0 -45 4 -45 9 0 5 -17 11 -37 14 -90 13 -163 30 -163 38 0
5 -26 9 -58 9 -33 0 -63 5 -70 12 -10 10 -127 13 -500 14 -268 1 -521 -1 -562
-3z m790 -1733 c63 -5 144 -14 180 -19 36 -6 106 -16 155 -22 50 -7 94 -16
100 -20 5 -5 20 -9 34 -9 14 0 52 -7 85 -15 278 -70 533 -174 761 -308 103
-61 237 -154 243 -169 2 -4 10 -8 17 -8 7 0 15 -3 17 -7 2 -5 32 -33 68 -63
87 -74 104 -91 167 -169 30 -36 59 -73 66 -81 27 -33 77 -112 77 -121 0 -5 3
-9 8 -9 4 0 13 -15 21 -32 7 -18 23 -55 36 -83 12 -27 27 -70 34 -95 7 -25 18
-65 26 -90 7 -25 18 -94 25 -155 9 -89 8 -130 -4 -215 -18 -132 -61 -283 -95
-340 -5 -8 -16 -31 -24 -50 -18 -41 -111 -181 -153 -231 -53 -63 -208 -215
-272 -268 -112 -91 -382 -261 -416 -261 -8 0 -16 -7 -20 -15 -6 -16 2 -45 13
-45 3 0 17 -17 31 -38 55 -82 154 -217 162 -220 4 -2 8 -10 8 -18 0 -8 3 -14
8 -14 4 0 16 -16 26 -35 11 -19 23 -35 27 -35 4 0 10 -8 13 -18 4 -10 14 -27
24 -38 10 -10 58 -75 106 -144 49 -69 100 -138 113 -155 33 -43 36 -47 61 -82
12 -17 22 -34 22 -37 0 -7 -51 20 -115 59 -22 14 -47 28 -55 32 -8 3 -22 12
-30 18 -8 7 -40 25 -70 41 -30 16 -61 34 -68 41 -7 7 -24 16 -38 19 -13 3 -24
10 -24 14 0 4 -11 11 -25 14 -14 4 -25 10 -25 15 0 5 -15 14 -32 21 -18 7 -46
23 -63 34 -16 12 -43 28 -60 36 -16 8 -44 25 -61 37 -17 13 -34 23 -38 23 -4
0 -32 16 -62 35 -30 19 -57 35 -60 35 -3 0 -19 9 -34 20 -16 11 -55 34 -87 51
-32 17 -60 33 -63 37 -3 4 -21 15 -40 25 -19 9 -54 29 -78 43 -42 24 -46 25
-110 14 -37 -7 -87 -15 -112 -20 -25 -4 -58 -12 -75 -18 -65 -22 -426 -52
-628 -52 -228 0 -649 38 -671 60 -5 5 -21 10 -35 10 -39 0 -139 20 -221 45
-41 12 -95 28 -120 35 -25 6 -72 22 -105 35 -33 13 -76 28 -95 35 -36 13 -214
95 -240 111 -8 5 -32 16 -52 25 -21 9 -38 20 -38 24 0 5 -10 12 -22 16 -13 3
-44 22 -71 40 -26 19 -50 34 -55 34 -4 0 -20 11 -36 25 -16 14 -32 25 -36 25
-3 0 -15 8 -26 18 -10 9 -37 30 -59 46 -61 45 -191 169 -260 250 -77 91 -156
222 -205 341 -40 96 -80 298 -80 403 0 165 56 390 132 527 9 16 22 42 28 58 7
15 16 27 21 27 5 0 9 6 9 14 0 7 10 24 23 38 12 13 35 43 51 66 16 23 33 42
37 42 5 0 9 5 9 11 0 15 152 162 220 213 30 22 57 43 60 46 15 15 89 69 110
80 14 7 27 16 30 20 7 9 138 84 178 101 17 8 32 17 32 21 0 5 4 8 10 8 5 0 52
20 104 45 53 25 99 45 103 45 5 0 37 12 73 26 120 48 172 65 325 104 142 36
442 82 605 93 109 8 465 6 570 -3z"/>
</g>
</svg>
