<svg xmlns="http://www.w3.org/2000/svg"  viewBox="0 0 16 16" width="16px" height="16px"><path fill="#0c2231" d="M4.291,14.5c-1.539,0-2.791-1.252-2.791-2.791V4.291C1.5,2.752,2.752,1.5,4.291,1.5h7.418 c1.539,0,2.791,1.252,2.791,2.791v7.418c0,1.539-1.252,2.791-2.791,2.791H4.291z M5.094,3.5C4.215,3.5,3.5,4.215,3.5,5.094v5.813 c0,0.879,0.715,1.594,1.594,1.594h5.813c0.879,0,1.594-0.715,1.594-1.594V5.094c0-0.879-0.715-1.594-1.593-1.594H5.094z"/><path fill="#0c2231" d="M11.709,2C12.972,2,14,3.028,14,4.291v7.418C14,12.972,12.972,14,11.709,14H4.291 C3.028,14,2,12.972,2,11.709V4.291C2,3.028,3.028,2,4.291,2H11.709 M5.094,13h5.812C12.061,13,13,12.061,13,10.906V5.094 C13,3.939,12.061,3,10.907,3H5.094C3.939,3,3,3.939,3,5.094v5.812C3,12.061,3.939,13,5.094,13 M11.709,1H4.291 C2.473,1,1,2.473,1,4.291v7.418C1,13.527,2.473,15,4.291,15h7.418C13.527,15,15,13.527,15,11.709V4.291 C15,2.473,13.527,1,11.709,1L11.709,1z M5.094,12C4.489,12,4,11.511,4,10.906V5.094C4,4.489,4.489,4,5.094,4h5.813 C11.511,4,12,4.489,12,5.094v5.812C12,11.511,11.511,12,10.906,12H5.094L5.094,12z"/><g><rect width="2.889" height="2.889" x="6.556" y="6.556" fill="#0c2231"/><path fill="#0c2231" d="M8.944,7.056v1.889H7.056V7.056H8.944 M9.944,6.056H6.056v3.889h3.889V6.056L9.944,6.056z"/></g></svg>
