<?xml version="1.0" standalone="no"?>
<!DOCTYPE svg PUBLIC "-//W3C//DTD SVG 20010904//EN"
 "http://www.w3.org/TR/2001/REC-SVG-20010904/DTD/svg10.dtd">
<svg version="1.0" xmlns="http://www.w3.org/2000/svg"
 width="1055.000000pt" height="1055.000000pt" viewBox="0 0 1055.000000 1055.000000"
 preserveAspectRatio="xMidYMid meet">
<metadata>
Created by potrace 1.16, written by Peter Selinger 2001-2019
</metadata>
<g transform="translate(0.000000,1055.000000) scale(0.100000,-0.100000)"
fill="#0c2231" stroke="none">
<path d="M5040 10165 c-1088 -132 -1883 -1193 -1769 -2361 87 -893 700 -1650
1510 -1863 150 -39 213 -50 363 -61 790 -55 1535 395 1906 1153 533 1085 105
2429 -939 2948 -332 165 -704 229 -1071 184z"/>
<path d="M4756 5570 c-583 -38 -1165 -168 -1656 -370 -69 -28 -152 -62 -185
-76 -98 -40 -226 -162 -351 -336 -31 -43 -170 -259 -308 -481 -139 -221 -394
-627 -567 -902 -174 -275 -373 -594 -444 -710 -70 -115 -162 -266 -205 -335
-145 -234 -214 -396 -244 -569 -39 -230 -9 -354 161 -669 193 -358 361 -633
432 -709 l30 -33 554 0 554 0 7 108 c35 522 300 1061 722 1472 143 138 242
219 389 316 372 245 783 387 1292 447 l103 12 924 1312 c509 722 921 1315 918
1317 -19 11 -394 90 -573 120 -229 39 -422 61 -644 76 -218 14 -759 20 -909
10z"/>
<path d="M6386 4004 c-483 -685 -879 -1251 -882 -1258 -3 -8 41 -17 153 -29
825 -89 1510 -486 1965 -1137 208 -298 372 -729 393 -1035 3 -44 8 -99 11
-122 l5 -43 512 0 513 0 51 53 c103 106 239 311 454 684 128 223 166 318 189
468 22 146 -5 302 -79 460 -78 165 -444 773 -1036 1720 -210 336 -401 646
-425 690 -182 334 -380 557 -597 672 -67 35 -308 123 -339 123 -6 0 -406 -561
-888 -1246z"/>
<path d="M5055 2100 c-611 -54 -1157 -310 -1508 -708 -232 -263 -370 -584
-393 -914 l-7 -98 2123 0 2122 0 -7 88 c-20 248 -89 469 -213 677 -101 170
-298 386 -465 509 -308 227 -693 379 -1092 431 -148 19 -426 27 -560 15z"/>
</g>
</svg>
