<?xml version="1.0" encoding="UTF-8" standalone="no"?>
<!-- Created with Inkscape (http://www.inkscape.org/) -->

<svg
   xmlns:dc="http://purl.org/dc/elements/1.1/"
   xmlns:cc="http://creativecommons.org/ns#"
   xmlns:rdf="http://www.w3.org/1999/02/22-rdf-syntax-ns#"
   xmlns:svg="http://www.w3.org/2000/svg"
   xmlns="http://www.w3.org/2000/svg"
   xmlns:sodipodi="http://sodipodi.sourceforge.net/DTD/sodipodi-0.dtd"
   xmlns:inkscape="http://www.inkscape.org/namespaces/inkscape"
   width="64.177437mm"
   height="64.12809mm"
   viewBox="0 0 64.177437 64.128091"
   version="1.1"
   id="svg8"
   inkscape:version="0.92.2 5c3e80d, 2017-08-06"
   sodipodi:docname="driver_icon.svg">
  <defs
     id="defs2" />
  <sodipodi:namedview
     id="base"
     pagecolor="#ffffff"
     bordercolor="#666666"
     borderopacity="1.0"
     inkscape:pageopacity="0.0"
     inkscape:pageshadow="2"
     inkscape:zoom="1.24"
     inkscape:cx="247.73005"
     inkscape:cy="-9.8554524"
     inkscape:document-units="mm"
     inkscape:current-layer="layer1"
     showgrid="false"
     fit-margin-top="2.4"
     fit-margin-left="0"
     fit-margin-right="0"
     fit-margin-bottom="2"
     inkscape:window-width="1680"
     inkscape:window-height="1001"
     inkscape:window-x="0"
     inkscape:window-y="44"
     inkscape:window-maximized="1" />
  <metadata
     id="metadata5">
    <rdf:RDF>
      <cc:Work
         rdf:about="">
        <dc:format>image/svg+xml</dc:format>
        <dc:type
           rdf:resource="http://purl.org/dc/dcmitype/StillImage" />
        <dc:title></dc:title>
      </cc:Work>
    </rdf:RDF>
  </metadata>
  <g
     inkscape:label="Calque 1"
     inkscape:groupmode="layer"
     id="layer1"
     transform="translate(-128.28814,-22.473233)">
    <path
       style="fill:#0c2231;fill-opacity:1;stroke-width:0.35277775"
       d="m 133.41011,84.125166 c -0.61411,-0.46449 -0.23848,-0.51795 3.63916,-0.51795 2.48961,0 4.65085,-0.16718 5.09451,-0.39407 1.21595,-0.62184 1.98892,-1.8004 1.99744,-3.04551 l 0.008,-1.14653 h 2.81316 c 2.75995,0 2.82337,-0.0197 3.3527,-1.04334 l 0.53953,-1.04334 -3.3466,-2.92541 c -2.73716,-2.39268 -3.3477,-3.10702 -3.35269,-3.92269 -0.004,-0.62618 -0.38981,-1.38098 -1.0373,-2.02847 -0.95828,-0.95828 -1.2202,-1.0312 -3.70416,-1.0312 -1.47014,0 -2.67297,-0.14449 -2.67297,-0.32109 0,-0.56813 2.64157,-3.67683 4.88913,-5.75369 4.21275,-3.89283 9.56021,-6.31376 15.64159,-7.08138 5.65864,-0.71425 12.22607,0.68437 17.39289,3.70404 2.59773,1.51821 8.30398,6.96059 9.45675,9.01944 l 0.6373,1.13824 h -3.0534 c -2.9609,0 -3.08442,0.0332 -4.07689,1.09564 -0.56292,0.6026 -1.02564,1.35667 -1.02827,1.6757 -0.002,0.31902 -1.51076,1.90249 -3.35139,3.51881 -1.84063,1.61631 -3.3466,3.09518 -3.3466,3.28638 0,0.1912 0.16433,0.6547 0.36519,1.02999 0.3169,0.59213 0.76007,0.68237 3.35139,0.68237 h 2.9862 v 1.40554 c 0,1.05376 0.2573,1.6939 1.02802,2.55764 1.02671,1.15061 1.03339,1.15235 5.20347,1.35056 2.2965,0.10915 -7.7308,0.22317 -22.28289,0.25336 -22.77688,0.0473 -26.55361,-0.0172 -27.14311,-0.46304 z m 37.19728,-15.6778 c 1.84327,-1.61399 3.49846,-3.06642 3.6782,-3.22762 0.50097,-0.44928 -0.65018,-1.51288 -2.98341,-2.75647 -6.061,-3.23048 -12.67869,-3.71733 -18.89825,-1.39029 -2.09496,0.78383 -6.2476,3.36608 -6.0763,3.77845 0.094,0.22632 2.87612,2.75539 7.9209,7.20047 0.7194,0.63388 0.82725,0.6366 2.57468,0.065 2.16588,-0.70842 6.0007,-0.55828 7.61956,0.29832 0.99434,0.52614 1.09558,0.51361 1.93129,-0.23906 0.48507,-0.43687 2.39007,-2.11485 4.23333,-3.72884 z m 8.34496,13.45638 c -0.68294,-0.75464 -0.76583,-2.20677 -0.16051,-2.81209 0.27131,-0.27131 1.65735,-0.42333 3.85973,-0.42333 1.9104,0 3.53323,-0.15666 3.65443,-0.35278 0.13975,-0.22611 -1.03644,-0.35278 -3.27589,-0.35278 -3.8292,0 -4.6616,-0.38607 -4.6616,-2.16208 0,-1.48013 0.59403,-1.71847 4.28306,-1.71847 1.9104,0 3.53323,-0.15666 3.65443,-0.35278 0.1398,-0.22619 -1.04627,-0.35278 -3.30536,-0.35278 -3.82836,0 -4.63213,-0.33668 -4.63213,-1.94027 0,-1.75103 0.65091,-1.94028 6.67329,-1.94028 6.16152,0 6.22506,0.022 7.03508,2.43389 0.49401,1.47094 0.524,6.11125 0.0505,7.81561 -0.19155,0.68952 -0.6731,1.60234 -1.07011,2.02848 -0.68261,0.73269 -1.01528,0.7748 -6.12147,0.7748 -4.78306,0 -5.46631,-0.0737 -5.98348,-0.64514 z m -49.18053,-0.85417 c -1.67748,-1.79471 -2.02283,-8.39688 -0.56948,-10.88695 l 0.69788,-1.19569 5.75459,-0.0971 c 6.24405,-0.10539 6.73036,0.0176 6.73036,1.70263 0,1.74956 -0.73772,2.09867 -4.43492,2.09867 -1.98227,0 -3.32619,0.14253 -3.32619,0.35278 0,0.21118 1.3876,0.35277 3.45723,0.35277 3.7427,0 4.30388,0.23207 4.30388,1.77977 0,1.69569 -0.91071,2.10079 -4.7229,2.10079 -2.19858,0 -3.35424,0.12682 -3.2146,0.35278 0.12121,0.19612 1.74404,0.35277 3.65444,0.35277 3.72074,0 4.28306,0.23367 4.28306,1.77977 0,1.85684 -0.76419,2.10079 -6.58086,2.10079 -5.03153,0 -5.32692,-0.0389 -6.03249,-0.79375 z m 56.05369,-15.52222 c -0.79269,-1.21267 -1.64386,-2.49262 -1.89149,-2.84432 -0.38539,-0.54737 -0.33029,-0.7379 0.38259,-1.32292 1.06725,-0.87582 1.84173,-0.86351 3.00015,0.0477 0.86452,0.68002 0.92952,0.92672 0.92952,3.52777 0,3.51156 -0.44162,3.61951 -2.42077,0.59176 z m -53.31811,-1.29731 c 0,-2.60105 0.065,-2.84775 0.92952,-3.52778 1.22979,-0.96736 2.0864,-0.92231 3.17571,0.167 0.83944,0.83945 0.86215,0.94901 0.34721,1.6757 -0.30303,0.42764 -1.11978,1.61097 -1.81501,2.62961 -0.79649,1.16703 -1.51804,1.85208 -1.95073,1.85208 -0.62267,0 -0.6867,-0.26078 -0.6867,-2.79661 z m 24.60481,-13.08618 c -3.78245,-0.95551 -7.22744,-3.76698 -8.97405,-7.32378 -0.89451,-1.82159 -0.99049,-2.37596 -0.99049,-5.721201 0,-3.348571 0.0954,-3.898539 0.99426,-5.72891 1.32067,-2.689451 3.77944,-5.081745 6.58945,-6.411304 2.03262,-0.961732 2.65592,-1.085438 5.46907,-1.085438 2.8152,0 3.43486,0.123197 5.46806,1.087114 2.77321,1.31475 5.29871,3.782823 6.61819,6.467685 0.86728,1.764744 0.96653,2.347037 0.96653,5.670853 0,3.345241 -0.096,3.899611 -0.99049,5.721201 -2.17003,4.41904 -6.42573,7.26332 -11.25313,7.52099 -1.41518,0.0755 -3.16901,-0.0132 -3.8974,-0.19721 z"
       id="path896"
       inkscape:connector-curvature="0" />
  </g>
</svg>
