<?xml version="1.0" encoding="UTF-8" standalone="no"?>
<svg
   xmlns:dc="http://purl.org/dc/elements/1.1/"
   xmlns:cc="http://creativecommons.org/ns#"
   xmlns:rdf="http://www.w3.org/1999/02/22-rdf-syntax-ns#"
   xmlns:svg="http://www.w3.org/2000/svg"
   xmlns="http://www.w3.org/2000/svg"
   xmlns:sodipodi="http://sodipodi.sourceforge.net/DTD/sodipodi-0.dtd"
   xmlns:inkscape="http://www.inkscape.org/namespaces/inkscape"
   width="23.6111in"
   height="23.6111in"
   viewBox="0 0 1700 1700"
   version="1.1"
   id="svg3"
   sodipodi:docname="event-white.svg"
   inkscape:version="0.92.2 5c3e80d, 2017-08-06">
  <metadata
     id="metadata9">
    <rdf:RDF>
      <cc:Work
         rdf:about="">
        <dc:format>image/svg+xml</dc:format>
        <dc:type
           rdf:resource="http://purl.org/dc/dcmitype/StillImage" />
        <dc:title></dc:title>
      </cc:Work>
    </rdf:RDF>
  </metadata>
  <defs
     id="defs7" />
  <sodipodi:namedview
     pagecolor="#ffffff"
     bordercolor="#666666"
     borderopacity="1"
     objecttolerance="10"
     gridtolerance="10"
     guidetolerance="10"
     inkscape:pageopacity="0"
     inkscape:pageshadow="2"
     inkscape:window-width="1316"
     inkscape:window-height="855"
     id="namedview5"
     showgrid="false"
     inkscape:zoom="0.1041177"
     inkscape:cx="1133.3328"
     inkscape:cy="1133.3328"
     inkscape:window-x="0"
     inkscape:window-y="0"
     inkscape:window-maximized="0"
     inkscape:current-layer="svg3" />
  <path
     id="Copie de moitie-haut"
     fill="none"
     stroke="black"
     stroke-width="1"
     d="M 1629.00,633.00            C 1441.61,820.39 1461.00,802.50 1461.00,802.50              1461.00,802.50 912.00,253.50 912.00,253.50              912.00,253.50 912.35,250.65 1072.00,91.00              1091.50,66.00 1128.00,62.50 1157.50,84.50              1173.50,101.00 1212.12,136.37 1263.00,189.00              1113.50,373.00 1351.00,596.00 1523.50,451.00              1523.50,451.00 1630.50,557.50 1630.50,557.50              1634.00,561.50 1658.00,600.00 1629.00,633.00 Z            M 90.00,1074.00            C 277.39,886.61 868.50,294.50 868.50,294.50              868.50,294.50 1418.50,845.50 1418.50,845.50              1418.50,845.50 806.65,1456.35 647.00,1616.00              627.50,1641.00 591.00,1644.50 561.50,1622.50              545.50,1606.00 506.88,1570.63 456.00,1518.00              605.50,1334.00 368.00,1111.00 195.50,1256.00              195.50,1256.00 88.50,1149.50 88.50,1149.50              85.00,1145.50 61.00,1107.00 90.00,1074.00 Z" />
  <path
     style="fill:#ffffff;fill-opacity:1;fill-rule:evenodd;stroke:#ffffff;stroke-width:9.60451508;stroke-linecap:round;stroke-linejoin:miter;stroke-miterlimit:4;stroke-dasharray:none;stroke-opacity:1"
     d="m 693.52179,2099.8518 -76.12674,-74.6105 25.24429,-45.1668 c 93.30196,-166.9354 -31.44494,-372.2787 -226.16085,-372.2787 -30.96017,0 -62.5745,8.9645 -101.5376,28.7917 l -56.57944,28.7917 -74.43499,-75.537 c -63.12162,-64.0562 -74.43499,-80.4476 -74.43499,-107.8456 0,-29.8738 39.44051,-71.7662 523.40064,-555.9379 l 523.40059,-523.62952 362.5914,362.56187 362.5914,362.56185 -523.3885,523.4547 c -485.38891,485.4501 -525.74998,523.4546 -555.91351,523.4546 -27.63918,0 -43.96042,-11.2077 -108.6517,-74.6104 z"
     id="path11"
     inkscape:connector-curvature="0"
     transform="scale(0.75000038)" />
  <path
     style="fill:#ffffff;fill-opacity:1;fill-rule:evenodd;stroke:#ffffff;stroke-width:9.60451508;stroke-linecap:round;stroke-linejoin:miter;stroke-miterlimit:4;stroke-dasharray:none;stroke-opacity:1"
     d="M 1585.9618,697.65928 1223.1674,334.65613 1341.9031,217.27154 C 1492.0128,68.86996 1490.3269,69.152016 1598.6143,174.32195 l 76.6413,74.43499 -28.9276,56.57944 c -22.1551,43.33291 -28.8783,69.19221 -28.7167,110.45192 0.7724,197.285 228.5005,320.26092 387.6319,209.32592 l 27.6736,-19.29204 75.5749,77.11092 c 107.3245,109.5056 107.5006,108.42075 -42.0803,259.16161 l -117.6553,118.56769 z"
     id="path13"
     inkscape:connector-curvature="0"
     transform="scale(0.75000038)" />
</svg>
