<?xml version="1.0" encoding="UTF-8" standalone="no"?>
<svg
   xmlns:dc="http://purl.org/dc/elements/1.1/"
   xmlns:cc="http://creativecommons.org/ns#"
   xmlns:rdf="http://www.w3.org/1999/02/22-rdf-syntax-ns#"
   xmlns:svg="http://www.w3.org/2000/svg"
   xmlns="http://www.w3.org/2000/svg"
   xmlns:sodipodi="http://sodipodi.sourceforge.net/DTD/sodipodi-0.dtd"
   xmlns:inkscape="http://www.inkscape.org/namespaces/inkscape"
   width="23.6111in"
   height="23.6111in"
   viewBox="0 0 1700 1700"
   version="1.1"
   id="svg3"
   sodipodi:docname="event-2-dark.svg"
   inkscape:version="0.92.2 5c3e80d, 2017-08-06">
  <metadata
     id="metadata9">
    <rdf:RDF>
      <cc:Work
         rdf:about="">
        <dc:format>image/svg+xml</dc:format>
        <dc:type
           rdf:resource="http://purl.org/dc/dcmitype/StillImage" />
        <dc:title></dc:title>
      </cc:Work>
    </rdf:RDF>
  </metadata>
  <defs
     id="defs7" />
  <sodipodi:namedview
     pagecolor="#ffffff"
     bordercolor="#666666"
     borderopacity="1"
     objecttolerance="10"
     gridtolerance="10"
     guidetolerance="10"
     inkscape:pageopacity="0"
     inkscape:pageshadow="2"
     inkscape:window-width="1154"
     inkscape:window-height="946"
     id="namedview5"
     showgrid="false"
     inkscape:zoom="0.1041177"
     inkscape:cx="1133.3328"
     inkscape:cy="1133.3328"
     inkscape:window-x="0"
     inkscape:window-y="0"
     inkscape:window-maximized="0"
     inkscape:current-layer="svg3" />
  <path
     id="event-2"
     fill="none"
     stroke="black"
     stroke-width="1"
     d="M 1669.50,594.00            C 1482.11,781.39 1461.00,802.50 1461.00,802.50              1461.00,802.50 912.00,253.50 912.00,253.50              912.00,253.50 957.85,206.15 1117.50,46.50              1161.00,86.50 1212.12,136.37 1263.00,189.00              1113.50,373.00 1351.00,596.00 1523.50,451.00              1523.50,451.00 1629.50,555.50 1669.50,594.00 Z            M 603.00,1662.50            C 538.00,1601.50 506.88,1570.63 456.00,1518.00              605.50,1334.00 368.00,1111.00 195.50,1256.00              195.50,1256.00 105.00,1167.00 50.00,1112.00              237.39,924.61 868.50,294.50 868.50,294.50              868.50,294.50 1418.50,845.50 1418.50,845.50              1418.50,845.50 659.56,1605.94 603.00,1662.50 Z"
     style="stroke:#0c2231;stroke-opacity:1;fill:#0c2231;fill-opacity:1" />
  <path
     style="fill:#0c2231;fill-opacity:1;fill-rule:evenodd;stroke:#0c2231;stroke-width:9.60451508;stroke-linecap:round;stroke-linejoin:miter;stroke-miterlimit:4;stroke-dasharray:none;stroke-opacity:1"
     d="m 706.56518,2116.3549 -92.38845,-88.8418 29.06966,-56.5794 c 48.86771,-95.1132 37.25522,-192.9275 -32.28317,-271.9272 -79.00819,-89.7581 -194.26221,-114.0173 -296.55422,-62.4201 l -53.26954,26.8697 -94.5528,-88.6279 -94.552798,-88.628 542.631318,-543.33424 542.63132,-543.33432 364.9714,364.97142 364.9715,364.97144 -537.7968,537.861 c -295.7882,295.8236 -540.65251,537.8611 -544.14287,537.8611 -3.49036,0 -47.9209,-39.9788 -98.73455,-88.8417 z"
     id="path819"
     inkscape:connector-curvature="0"
     transform="scale(0.75000038)" />
  <path
     style="fill:#0c2231;fill-opacity:1;fill-rule:evenodd;stroke:#0c2231;stroke-width:9.60451508;stroke-linecap:round;stroke-linejoin:miter;stroke-miterlimit:4;stroke-dasharray:none;stroke-opacity:1"
     d="M 1582.2191,699.56479 1219.6914,336.94293 1353.9982,202.8932 1488.305,68.843466 l 36.2143,33.144324 c 19.9179,18.22938 62.6198,58.41535 94.893,89.30216 l 58.6787,56.15784 -26.5112,49.63761 c -54.2042,101.48762 -43.0605,200.62887 31.6628,281.69408 58.5992,63.57264 103.8009,84.26345 184.8356,84.60726 55.8954,0.23713 75.1205,-4.16408 114.0185,-26.10245 l 46.7869,-26.3877 83.9816,76.66971 c 46.1898,42.16834 88.71,82.36723 94.4894,89.33088 8.1571,9.8288 -20.0408,43.15523 -126.05,148.97531 l -136.5578,136.31411 z"
     id="path821"
     inkscape:connector-curvature="0"
     transform="scale(0.75000038)" />
</svg>
