<?xml version="1.0" encoding="UTF-8" standalone="no"?>
<svg
   xmlns:dc="http://purl.org/dc/elements/1.1/"
   xmlns:cc="http://creativecommons.org/ns#"
   xmlns:rdf="http://www.w3.org/1999/02/22-rdf-syntax-ns#"
   xmlns:svg="http://www.w3.org/2000/svg"
   xmlns="http://www.w3.org/2000/svg"
   xmlns:sodipodi="http://sodipodi.sourceforge.net/DTD/sodipodi-0.dtd"
   xmlns:inkscape="http://www.inkscape.org/namespaces/inkscape"
   width="23.6111in"
   height="23.6111in"
   viewBox="0 0 1700 1700"
   version="1.1"
   id="svg3"
   sodipodi:docname="event-2-white.svg"
   inkscape:version="0.92.2 5c3e80d, 2017-08-06">
  <metadata
     id="metadata9">
    <rdf:RDF>
      <cc:Work
         rdf:about="">
        <dc:format>image/svg+xml</dc:format>
        <dc:type
           rdf:resource="http://purl.org/dc/dcmitype/StillImage" />
        <dc:title></dc:title>
      </cc:Work>
    </rdf:RDF>
  </metadata>
  <defs
     id="defs7" />
  <sodipodi:namedview
     pagecolor="#ffffff"
     bordercolor="#666666"
     borderopacity="1"
     objecttolerance="10"
     gridtolerance="10"
     guidetolerance="10"
     inkscape:pageopacity="0"
     inkscape:pageshadow="2"
     inkscape:window-width="1272"
     inkscape:window-height="773"
     id="namedview5"
     showgrid="false"
     inkscape:zoom="0.1041177"
     inkscape:cx="1133.3328"
     inkscape:cy="1133.3328"
     inkscape:window-x="0"
     inkscape:window-y="0"
     inkscape:window-maximized="0"
     inkscape:current-layer="svg3" />
  <path
     id="event-2"
     fill="none"
     stroke="black"
     stroke-width="1"
     d="M 1669.50,594.00            C 1482.11,781.39 1461.00,802.50 1461.00,802.50              1461.00,802.50 912.00,253.50 912.00,253.50              912.00,253.50 957.85,206.15 1117.50,46.50              1161.00,86.50 1212.12,136.37 1263.00,189.00              1113.50,373.00 1351.00,596.00 1523.50,451.00              1523.50,451.00 1629.50,555.50 1669.50,594.00 Z            M 603.00,1662.50            C 538.00,1601.50 506.88,1570.63 456.00,1518.00              605.50,1334.00 368.00,1111.00 195.50,1256.00              195.50,1256.00 105.00,1167.00 50.00,1112.00              237.39,924.61 868.50,294.50 868.50,294.50              868.50,294.50 1418.50,845.50 1418.50,845.50              1418.50,845.50 659.56,1605.94 603.00,1662.50 Z" />
  <path
     style="fill:#ffffff;fill-opacity:1;fill-rule:evenodd;stroke:#ffffff;stroke-width:9.60451508;stroke-linecap:round;stroke-linejoin:miter;stroke-miterlimit:4;stroke-dasharray:none;stroke-opacity:1"
     d="m 711.85164,2121.0869 -94.5658,-90.9512 25.30041,-52.2152 c 34.92237,-72.0732 40.77889,-120.3578 22.30585,-183.9029 -44.66196,-153.6317 -214.09284,-228.1179 -355.8018,-156.4198 l -54.63153,27.6411 -90.71738,-90.7174 L 73.024009,1483.8041 615.65618,941.23569 1158.2884,398.66727 1518.4657,758.7486 c 198.0976,198.04474 359.9718,362.264 359.7204,364.9316 -0.2516,2.6677 -241.5021,248.6395 -536.1128,546.6041 l -535.65587,541.7539 z"
     id="path11"
     inkscape:connector-curvature="0"
     transform="scale(0.75000038)" />
  <path
     style="fill:#ffffff;fill-opacity:1;fill-rule:evenodd;stroke:#ffffff;stroke-width:9.60451508;stroke-linecap:round;stroke-linejoin:miter;stroke-miterlimit:4;stroke-dasharray:none;stroke-opacity:1"
     d="m 1581.273,696.69724 -359.7035,-359.7994 133.7371,-134.96902 133.7372,-134.969023 92.218,91.872013 92.2181,91.87201 -27.0794,53.6851 c -108.2697,214.64608 116.6483,440.6271 333.1353,334.70985 l 54.8064,-26.81427 90.2622,89.88689 90.2622,89.88688 -131.9661,132.21919 c -72.5814,72.72055 -134.2067,132.21914 -136.9451,132.21914 -2.7385,0 -166.8455,-161.90969 -364.6824,-359.79936 z"
     id="path13"
     inkscape:connector-curvature="0"
     transform="scale(0.75000038)" />
</svg>
