<?xml version="1.0" encoding="iso-8859-1"?>
<!-- Generator: Adobe Illustrator 17.1.0, SVG Export Plug-In . SVG Version: 6.00 Build 0)  -->
<!DOCTYPE svg PUBLIC "-//W3C//DTD SVG 1.1//EN" "http://www.w3.org/Graphics/SVG/1.1/DTD/svg11.dtd">
<svg version="1.1" id="Capa_1" xmlns="http://www.w3.org/2000/svg" xmlns:xlink="http://www.w3.org/1999/xlink" x="0px" y="0px"
	 viewBox="0 0 446 446" style="enable-background:new 0 0 446 446;" xml:space="preserve">

	 <g transform="translate(-795,30) scale(2.8)"
fill="#0c2231" stroke="none">
<path id="XMLID_118_" d="	

	M425.536,9v64.51c0,4.971-4.029,9-9,9h-81.141
	v41.483h7.128c4.971,0,9,4.029,9,9s-4.029,9-9,9h-32.255c-4.971,0-9-4.029-9-9s4.029-9,9-9h7.127V73.701
	c-0.001-0.064-0.002-0.127-0.002-0.191s0-0.128,0.002-0.191V9.191c-0.001-0.064-0.002-0.127-0.002-0.191c0-4.971,4.029-9,9-9h90.143
	C421.507,0,425.536,4.029,425.536,9z M407.536,18h-72.141v46.51h72.141V18z M352.028,214.007H93.985 "/>
</g>
</svg>
