<?xml version="1.0" standalone="no"?>
<!DOCTYPE svg PUBLIC "-//W3C//DTD SVG 20010904//EN"
 "http://www.w3.org/TR/2001/REC-SVG-20010904/DTD/svg10.dtd">
<svg version="1.0" xmlns="http://www.w3.org/2000/svg"
 width="512.000000pt" height="512.000000pt" viewBox="0 0 512.000000 512.000000"
 preserveAspectRatio="xMidYMid meet">
<metadata>
Created by potrace 1.16, written by Peter Selinger 2001-2019
</metadata>
<g transform="translate(0.000000,512.000000) scale(0.100000,-0.100000)"
fill="#0c2231" stroke="none">
<path d="M2305 5113 c-671 -72 -1279 -393 -1707 -903 -301 -358 -488 -764
-571 -1240 -19 -109 -21 -162 -21 -410 0 -248 2 -301 21 -410 94 -540 320
-987 693 -1374 383 -398 866 -650 1430 -749 109 -19 162 -21 410 -21 313 0
407 10 653 73 882 228 1600 946 1828 1828 63 246 73 340 73 653 0 313 -10 407
-73 653 -228 881 -946 1600 -1828 1828 -227 58 -334 71 -613 74 -140 2 -273 1
-295 -2z m600 -362 c407 -68 771 -235 1085 -499 341 -286 604 -700 715 -1128
53 -204 69 -332 69 -564 0 -232 -16 -360 -69 -564 -98 -375 -329 -768 -608
-1033 -336 -319 -731 -515 -1197 -595 -179 -31 -501 -31 -680 0 -466 80 -861
276 -1197 595 -279 265 -510 658 -608 1033 -53 204 -69 332 -69 564 0 232 16
360 69 564 111 428 374 842 715 1128 349 293 764 469 1225 518 126 14 413 3
550 -19z"/>
<path d="M2480 3949 c-288 -25 -542 -205 -664 -471 -46 -99 -65 -175 -72 -288
-5 -87 -4 -99 18 -139 44 -81 138 -111 224 -72 62 28 84 67 99 174 22 152 56
227 143 313 65 65 135 105 227 128 152 40 317 -8 437 -128 189 -188 187 -482
-3 -668 -89 -87 -171 -124 -307 -138 -97 -10 -138 -32 -170 -89 -23 -40 -23
-43 -20 -390 3 -335 4 -351 24 -377 41 -55 70 -69 144 -69 74 0 103 14 144 69
20 26 21 43 24 276 l3 248 72 22 c210 64 387 214 486 412 73 146 86 204 85
373 0 157 -13 221 -70 343 -146 318 -469 502 -824 471z"/>
<path d="M2461 1594 c-86 -43 -127 -132 -109 -234 17 -95 109 -170 208 -170
62 0 140 40 174 89 49 71 50 179 2 252 -32 48 -114 89 -176 89 -30 0 -65 -9
-99 -26z"/>
</g>
</svg>
