<?xml version="1.0" encoding="UTF-8" standalone="no"?>
<!-- Created with Inkscape (http://www.inkscape.org/) -->

<svg
   xmlns:dc="http://purl.org/dc/elements/1.1/"
   xmlns:cc="http://creativecommons.org/ns#"
   xmlns:rdf="http://www.w3.org/1999/02/22-rdf-syntax-ns#"
   xmlns:svg="http://www.w3.org/2000/svg"
   xmlns="http://www.w3.org/2000/svg"
   xmlns:sodipodi="http://sodipodi.sourceforge.net/DTD/sodipodi-0.dtd"
   xmlns:inkscape="http://www.inkscape.org/namespaces/inkscape"
   width="257.27371mm"
   height="375.12173mm"
   viewBox="0 0 257.27371 375.12173"
   version="1.1"
   id="svg8"
   inkscape:version="0.92.2 5c3e80d, 2017-08-06"
   sodipodi:docname="hep_icon.svg">
  <defs
     id="defs2" />
  <sodipodi:namedview
     id="base"
     pagecolor="#ffffff"
     bordercolor="#666666"
     borderopacity="1.0"
     inkscape:pageopacity="0.0"
     inkscape:pageshadow="2"
     inkscape:zoom="0.38"
     inkscape:cx="5.1872042"
     inkscape:cy="715.09519"
     inkscape:document-units="mm"
     inkscape:current-layer="layer1"
     showgrid="false"
     fit-margin-top="0"
     fit-margin-left="0"
     fit-margin-right="0"
     fit-margin-bottom="0"
     inkscape:window-width="1680"
     inkscape:window-height="1001"
     inkscape:window-x="0"
     inkscape:window-y="44"
     inkscape:window-maximized="1" />
  <metadata
     id="metadata5">
    <rdf:RDF>
      <cc:Work
         rdf:about="">
        <dc:format>image/svg+xml</dc:format>
        <dc:type
           rdf:resource="http://purl.org/dc/dcmitype/StillImage" />
        <dc:title />
      </cc:Work>
    </rdf:RDF>
  </metadata>
  <g
     inkscape:label="Calque 1"
     inkscape:groupmode="layer"
     id="layer1"
     transform="translate(63.14499,-23.390054)">
    <g
       id="g289"
       style="fill:#000000;fill-opacity:1;stroke:#0c2231;stroke-opacity:1">
      <path
         inkscape:connector-curvature="0"
         id="path75"
         d="m 51.526767,398.17577 c -2.44106,-0.40323 -5.90698,-2.00897 -7.95017,-3.68318 -2.09158,-1.7139 -4.2282,-4.9839 -5.09934,-7.80433 -0.70404,-2.27943 -0.70882,-3.10656 -0.70882,-122.54591 V 143.89134 l -1.14653,-0.59019 c -0.63059,-0.32461 -22.40135,-17.97863 -48.37947,-39.23117 -41.89807,-34.276549 -47.38739,-38.879929 -48.60034,-40.756615 -5.5857,-8.642153 -2.47787,-19.973643 6.66329,-24.295129 4.58033,-2.165346 9.91323,-2.154784 14.31177,0.02836 1.53303,0.760888 15.37141,11.877135 46.32786,37.21475 l 44.14185,36.129774 13.53731,0.39636 c 7.44552,0.218 21.65158,0.39585 31.56902,0.39522 11.219653,-7e-4 18.749593,0.13951 19.931953,0.37114 1.04512,0.20475 3.24633,0.59548 4.89156,0.86829 3.90998,0.64834 7.36238,2.35433 9.76462,4.82515 1.36667,1.40568 9.06353,13.77532 30.90854,49.67318 15.99879,26.29077 29.40612,48.43639 29.79407,49.2125 1.17517,2.35096 1.61451,4.94117 1.41917,8.36709 -0.15961,2.79932 -0.34563,3.49322 -1.63296,6.09116 -4.11374,8.30186 -13.88574,11.60254 -22.26838,7.52156 -4.33372,-2.10981 -4.74406,-2.6905 -22.01371,-31.15205 -8.71205,-14.35805 -16.05424,-26.33801 -16.31597,-26.62212 -0.39941,-0.43356 -0.47588,15.75849 -0.47588,100.76909 0,100.44484 -0.006,101.3047 -0.70882,103.58057 -1.39804,4.52632 -4.53594,8.09961 -8.88991,10.12342 -9.11385,4.23623 -19.89834,-0.56257 -22.869483,-10.1763 -0.67743,-2.19198 -0.6929,-3.6117 -0.6929,-63.58821 V 261.701 h -10.88436 c -5.9864,0 -11.86015,-0.10199 -13.05278,-0.22664 l -2.16841,-0.22665 v 61.57282 c 0,60.6709 -0.0104,61.60643 -0.70883,63.86773 -1.85514,6.00622 -7.08609,10.50118 -13.40229,11.51658 -2.5758,0.41405 -2.61034,0.41388 -5.29166,-0.0289 z m 25.62065,-297.53683 c -20.65497,-4.104067 -34.44481,-23.809247 -31.09877,-44.438986 3.68446,-22.716235 26.15644,-37.353949 48.4013,-31.527468 14.786963,3.873071 26.059883,16.332824 28.524383,31.527468 3.3617,20.726224 -10.58395,40.520349 -31.319223,44.453756 -3.47246,0.65872 -11.15753,0.65089 -14.50769,-0.0148 z m 14.94879,-11.824278 c 5.85815,-1.361818 11.843473,-5.080431 15.697213,-9.752503 2.16991,-2.630682 2.5107,-4.117143 1.23613,-5.391715 -0.69145,-0.691448 -1.17593,-0.705555 -24.230743,-0.705555 h -23.52518 l -0.81649,0.767048 c -1.66295,1.562266 -0.64408,3.779591 3.61904,7.876008 4.14021,3.978299 10.69485,7.102305 16.59625,7.90993 3.19702,0.437522 7.71233,0.159576 11.42378,-0.703213 z"
         style="fill:#000000;stroke-width:0.35277778;fill-opacity:1;stroke:#0c2231;stroke-opacity:1" />
      <path
         style="fill:#000000;stroke-width:0.80676752;fill-opacity:1;stroke:#0c2231;stroke-opacity:1"
         d="m 164.27734,357.09408 c -3.79995,-1.39635 -6.55493,-4.50858 -7.70252,-8.70128 -0.52657,-1.92387 -0.74204,-17.69308 -0.59526,-43.56545 0.22199,-39.11197 0.28847,-40.64929 1.87217,-43.3453 2.9797,-5.07198 5.84906,-6.07928 17.31695,-6.07928 9.17812,0 10.35831,0.17015 13.12955,1.89309 6.0494,3.76107 5.82949,1.90003 5.82949,49.33664 0,40.92487 -0.0546,42.44572 -1.61352,45.033 -2.95693,4.90711 -6.11645,6.16054 -16.13536,6.40122 -6.2665,0.15062 -9.82279,-0.13538 -12.1015,-0.97264 z"
         id="path280"
         inkscape:connector-curvature="0" />
    </g>
  </g>
</svg>
