<?xml version="1.0" standalone="no"?>
<!DOCTYPE svg PUBLIC "-//W3C//DTD SVG 20010904//EN"
 "http://www.w3.org/TR/2001/REC-SVG-20010904/DTD/svg10.dtd">
<svg version="1.0" xmlns="http://www.w3.org/2000/svg"
 width="720.000000pt" height="720.000000pt" viewBox="0 0 720.000000 720.000000"
 preserveAspectRatio="xMidYMid meet">
<metadata>
Created by potrace 1.16, written by Peter Selinger 2001-2019
</metadata>
<g transform="translate(0.000000,720.000000) scale(0.100000,-0.100000)"
fill="#CED3D6" stroke="none">
<path d="M3110 7193 c-41 -2 -79 -8 -84 -13 -6 -6 -36 -10 -68 -10 -32 0 -58
-4 -58 -9 0 -8 -73 -25 -162 -38 -21 -3 -38 -9 -38 -14 0 -5 -20 -9 -45 -9
-25 0 -45 -4 -45 -10 0 -5 -16 -10 -35 -10 -19 0 -35 -4 -35 -10 0 -5 -13 -10
-30 -10 -16 0 -30 -4 -30 -10 0 -5 -16 -12 -35 -16 -19 -3 -38 -10 -41 -15 -3
-5 -16 -9 -30 -9 -13 0 -24 -4 -24 -10 0 -5 -16 -10 -35 -10 -19 0 -35 -4 -35
-10 0 -5 -9 -10 -19 -10 -11 0 -23 -4 -26 -10 -3 -5 -17 -10 -31 -10 -14 0
-27 -7 -30 -15 -4 -8 -15 -15 -25 -15 -10 0 -19 -4 -19 -10 0 -5 -11 -10 -25
-10 -14 0 -25 -4 -25 -10 0 -5 -9 -10 -19 -10 -11 0 -23 -4 -26 -10 -3 -5 -15
-10 -26 -10 -10 0 -19 -4 -19 -10 0 -5 -9 -10 -19 -10 -10 0 -21 -7 -25 -15
-3 -8 -15 -15 -26 -15 -11 0 -20 -4 -20 -10 0 -5 -9 -10 -20 -10 -11 0 -20 -4
-20 -10 0 -5 -9 -10 -20 -10 -11 0 -20 -4 -20 -10 0 -5 -9 -10 -19 -10 -10 0
-29 -11 -42 -25 -13 -13 -30 -25 -36 -25 -7 0 -13 -4 -13 -10 0 -5 -8 -10 -18
-10 -10 0 -28 -9 -40 -20 -12 -11 -26 -20 -33 -20 -6 0 -22 -11 -35 -25 -13
-14 -28 -25 -35 -25 -6 0 -24 -13 -39 -30 -15 -16 -36 -30 -45 -30 -18 0 -45
-23 -45 -38 0 -5 -15 -16 -32 -23 -35 -14 -98 -71 -98 -89 0 -5 -9 -10 -21
-10 -28 0 -439 -411 -439 -439 0 -12 -5 -21 -10 -21 -14 0 -80 -66 -80 -81 0
-6 -16 -26 -35 -45 -19 -18 -35 -40 -35 -47 0 -8 -13 -28 -30 -45 -16 -18 -30
-37 -30 -42 0 -6 -11 -21 -25 -34 -14 -13 -25 -29 -25 -35 0 -7 -9 -21 -20
-33 -11 -12 -20 -30 -20 -40 0 -10 -4 -18 -10 -18 -5 0 -10 -6 -10 -12 0 -7
-12 -24 -25 -37 -14 -13 -25 -32 -25 -42 0 -10 -4 -19 -10 -19 -5 0 -10 -9
-10 -20 0 -11 -4 -20 -10 -20 -5 0 -10 -9 -10 -20 0 -11 -4 -20 -10 -20 -5 0
-10 -9 -10 -20 0 -11 -7 -23 -15 -26 -8 -4 -15 -15 -15 -25 0 -10 -4 -19 -10
-19 -5 0 -10 -9 -10 -19 0 -11 -4 -23 -10 -26 -5 -3 -10 -15 -10 -26 0 -10 -4
-19 -10 -19 -5 0 -10 -11 -10 -25 0 -14 -4 -25 -10 -25 -5 0 -10 -9 -10 -19 0
-10 -7 -21 -15 -25 -8 -3 -15 -16 -15 -30 0 -14 -4 -28 -10 -31 -5 -3 -10 -15
-10 -26 0 -10 -4 -19 -10 -19 -5 0 -10 -16 -10 -35 0 -19 -4 -35 -10 -35 -5 0
-10 -11 -10 -24 0 -14 -4 -27 -9 -30 -5 -3 -12 -22 -15 -41 -4 -19 -11 -35
-16 -35 -6 0 -10 -13 -10 -30 0 -16 -4 -30 -10 -30 -5 0 -10 -16 -10 -35 0
-19 -4 -35 -10 -35 -5 0 -10 -20 -10 -45 0 -25 -4 -45 -9 -45 -5 0 -11 -17
-14 -37 -13 -90 -30 -163 -38 -163 -5 0 -9 -26 -9 -58 0 -33 -5 -63 -12 -70
-19 -19 -19 -1125 0 -1143 7 -8 12 -38 12 -71 0 -32 4 -58 9 -58 8 0 25 -73
38 -162 3 -21 9 -38 14 -38 5 0 9 -20 9 -45 0 -25 5 -45 10 -45 6 0 10 -16 10
-35 0 -19 5 -35 10 -35 6 0 10 -13 10 -30 0 -16 4 -30 10 -30 5 0 12 -16 16
-35 3 -19 10 -38 15 -41 5 -3 9 -16 9 -30 0 -13 5 -24 10 -24 6 0 10 -16 10
-35 0 -19 5 -35 10 -35 6 0 10 -9 10 -19 0 -11 5 -23 10 -26 6 -3 10 -17 10
-31 0 -14 7 -27 15 -30 8 -4 15 -15 15 -25 0 -10 5 -19 10 -19 6 0 10 -11 10
-25 0 -14 5 -25 10 -25 6 0 10 -9 10 -19 0 -11 4 -23 10 -26 5 -3 10 -15 10
-26 0 -10 5 -19 10 -19 6 0 10 -9 10 -19 0 -10 7 -21 15 -25 8 -3 15 -15 15
-26 0 -11 5 -20 10 -20 6 0 10 -9 10 -20 0 -11 5 -20 10 -20 6 0 10 -9 10 -20
0 -11 5 -20 10 -20 6 0 10 -9 10 -19 0 -10 11 -29 25 -42 13 -13 25 -30 25
-36 0 -7 5 -13 10 -13 6 0 10 -8 10 -18 0 -10 9 -28 20 -40 11 -12 20 -26 20
-33 0 -6 11 -22 25 -35 14 -13 25 -28 25 -35 0 -6 14 -24 30 -39 17 -15 30
-36 30 -45 0 -18 23 -45 38 -45 5 0 16 -15 23 -32 14 -35 71 -98 89 -98 5 0
10 -9 10 -21 0 -28 411 -439 439 -439 12 0 21 -5 21 -10 0 -18 63 -75 98 -89
17 -7 32 -18 32 -23 0 -15 27 -38 45 -38 9 0 30 -13 45 -30 15 -16 33 -30 39
-30 7 0 22 -11 35 -25 13 -14 29 -25 35 -25 7 0 21 -9 33 -20 12 -11 30 -20
40 -20 10 0 18 -4 18 -10 0 -5 6 -10 13 -10 6 0 23 -12 36 -25 13 -14 32 -25
42 -25 10 0 19 -4 19 -10 0 -5 9 -10 20 -10 11 0 20 -4 20 -10 0 -5 9 -10 20
-10 11 0 20 -4 20 -10 0 -5 9 -10 20 -10 11 0 23 -7 26 -15 4 -8 15 -15 25
-15 10 0 19 -4 19 -10 0 -5 9 -10 19 -10 11 0 23 -5 26 -10 3 -6 15 -10 26
-10 10 0 19 -4 19 -10 0 -5 11 -10 25 -10 14 0 25 -4 25 -10 0 -5 9 -10 19
-10 10 0 21 -7 25 -15 3 -8 16 -15 30 -15 14 0 28 -4 31 -10 3 -5 15 -10 26
-10 10 0 19 -4 19 -10 0 -5 16 -10 35 -10 19 0 35 -4 35 -10 0 -5 11 -10 24
-10 14 0 27 -4 30 -9 3 -5 22 -12 41 -15 19 -4 35 -11 35 -16 0 -6 14 -10 30
-10 17 0 30 -4 30 -10 0 -5 16 -10 35 -10 19 0 35 -4 35 -10 0 -5 20 -10 45
-10 25 0 45 -4 45 -9 0 -5 17 -11 38 -14 89 -13 162 -30 162 -38 0 -5 26 -9
58 -9 33 0 63 -5 71 -13 18 -18 1124 -18 1142 0 8 8 38 13 71 13 32 0 58 4 58
9 0 8 73 25 163 38 20 3 37 9 37 14 0 5 20 9 45 9 25 0 45 5 45 10 0 6 16 10
35 10 19 0 35 5 35 10 0 6 14 10 30 10 17 0 30 4 30 10 0 5 16 12 35 16 19 3
38 10 41 15 3 5 16 9 30 9 13 0 24 5 24 10 0 6 16 10 35 10 19 0 35 5 35 10 0
6 9 10 19 10 11 0 23 5 26 10 3 6 17 10 31 10 14 0 27 7 30 15 4 8 15 15 25
15 10 0 19 5 19 10 0 6 11 10 25 10 14 0 25 5 25 10 0 6 9 10 19 10 11 0 23 5
26 10 3 6 15 10 26 10 10 0 19 5 19 10 0 6 9 10 19 10 10 0 21 7 25 15 3 8 15
15 26 15 11 0 20 5 20 10 0 6 9 10 20 10 11 0 20 5 20 10 0 6 9 10 20 10 11 0
20 5 20 10 0 6 9 10 19 10 10 0 29 11 42 25 13 13 30 25 37 25 6 0 12 5 12 10
0 6 8 10 18 10 10 0 28 9 40 20 12 11 26 20 33 20 6 0 22 11 35 25 13 14 28
25 34 25 5 0 24 14 42 30 17 17 37 30 45 30 7 0 29 16 47 35 19 19 39 35 45
35 15 0 81 66 81 80 0 5 9 10 21 10 28 0 439 411 439 439 0 12 5 21 10 21 18
0 75 63 89 97 7 18 18 33 23 33 16 0 38 28 38 48 0 11 6 23 12 25 7 3 -829 6
-1859 6 -1132 1 -1874 5 -1878 10 -3 5 -19 12 -35 16 -17 4 -30 11 -30 17 0 5
-7 16 -15 24 -8 9 -15 24 -15 34 0 10 -4 22 -10 25 -14 8 -14 892 0 900 5 3
10 15 10 26 0 20 20 44 60 72 23 16 173 17 2177 17 l2153 0 0 30 c0 17 4 30 9
30 5 0 11 17 14 38 13 89 30 162 38 162 5 0 9 26 9 58 0 33 5 63 13 71 9 9 12
137 12 571 0 434 -3 562 -12 572 -8 7 -13 37 -13 70 0 32 -4 58 -9 58 -8 0
-25 73 -38 163 -3 20 -9 37 -14 37 -5 0 -9 20 -9 45 0 25 -4 45 -10 45 -5 0
-10 16 -10 35 0 19 -4 35 -10 35 -5 0 -10 14 -10 30 0 17 -4 30 -10 30 -5 0
-12 16 -16 35 -3 19 -10 38 -15 41 -5 3 -9 16 -9 30 0 13 -4 24 -10 24 -5 0
-10 16 -10 35 0 19 -4 35 -10 35 -5 0 -10 9 -10 19 0 11 -4 23 -10 26 -5 3
-10 17 -10 31 0 14 -7 27 -15 30 -8 4 -15 15 -15 25 0 10 -4 19 -10 19 -5 0
-10 11 -10 25 0 14 -4 25 -10 25 -5 0 -10 9 -10 19 0 11 -4 23 -10 26 -5 3
-10 15 -10 26 0 10 -4 19 -10 19 -5 0 -10 9 -10 19 0 10 -7 21 -15 25 -8 3
-15 15 -15 26 0 11 -4 20 -10 20 -5 0 -10 9 -10 20 0 11 -4 20 -10 20 -5 0
-10 9 -10 20 0 11 -4 20 -10 20 -5 0 -10 9 -10 19 0 10 -11 29 -25 42 -13 13
-25 30 -25 37 0 6 -4 12 -10 12 -5 0 -10 8 -10 18 0 10 -9 28 -20 40 -11 12
-20 26 -20 33 0 6 -11 22 -25 35 -14 13 -25 28 -25 34 0 5 -13 24 -30 42 -16
17 -30 37 -30 45 0 7 -16 29 -35 47 -19 19 -35 39 -35 45 0 15 -66 81 -80 81
-5 0 -10 9 -10 21 0 22 -409 439 -431 439 -7 0 -31 20 -55 45 -23 25 -47 45
-53 45 -6 0 -11 5 -11 10 0 6 -5 10 -12 10 -7 0 -22 10 -33 23 -11 12 -33 29
-50 37 -16 8 -37 23 -46 32 -9 10 -22 18 -28 18 -7 0 -22 11 -35 25 -13 14
-30 25 -37 25 -8 0 -21 9 -29 20 -8 11 -25 20 -37 20 -13 0 -23 5 -23 10 0 6
-6 10 -12 10 -7 0 -24 12 -37 25 -13 14 -32 25 -42 25 -10 0 -19 5 -19 10 0 6
-9 10 -20 10 -11 0 -20 5 -20 10 0 6 -9 10 -20 10 -11 0 -20 5 -20 10 0 6 -9
10 -20 10 -11 0 -23 7 -26 15 -4 8 -15 15 -25 15 -10 0 -19 5 -19 10 0 6 -9
10 -19 10 -11 0 -23 5 -26 10 -3 6 -15 10 -26 10 -10 0 -19 5 -19 10 0 6 -11
10 -25 10 -14 0 -25 5 -25 10 0 6 -9 10 -19 10 -10 0 -21 7 -25 15 -3 8 -16
15 -30 15 -14 0 -28 5 -31 10 -3 6 -15 10 -26 10 -10 0 -19 5 -19 10 0 6 -16
10 -35 10 -19 0 -35 5 -35 10 0 6 -11 10 -24 10 -14 0 -27 4 -30 9 -3 5 -22
12 -41 15 -19 4 -35 11 -35 16 0 6 -13 10 -30 10 -16 0 -30 5 -30 10 0 6 -16
10 -35 10 -19 0 -35 5 -35 10 0 6 -20 10 -45 10 -25 0 -45 4 -45 9 0 5 -17 11
-37 14 -90 13 -163 30 -163 38 0 5 -26 9 -58 9 -33 0 -63 5 -70 12 -10 10
-127 13 -500 14 -268 1 -521 -1 -562 -3z m-563 -1525 c74 -31 255 -256 298
-371 10 -26 22 -50 26 -53 5 -3 9 -14 9 -26 0 -11 6 -34 14 -51 19 -41 28
-111 28 -212 0 -116 -22 -221 -70 -328 -12 -27 -22 -50 -22 -52 0 -7 -121
-186 -143 -211 -12 -14 -49 -54 -82 -89 -120 -127 -151 -167 -198 -262 -122
-240 -72 -549 123 -763 89 -97 100 -115 100 -163 0 -40 -5 -51 -35 -81 -68
-68 -147 -58 -229 28 -57 60 -164 219 -197 294 -13 28 -27 52 -31 52 -5 0 -8
13 -8 28 0 16 -7 37 -15 48 -8 10 -15 33 -15 51 0 17 -4 35 -10 38 -6 4 -10
77 -10 186 0 113 4 179 10 179 6 0 10 13 10 30 0 29 7 49 63 167 53 116 141
235 260 355 20 21 37 40 37 43 0 3 10 16 23 28 55 52 121 170 156 279 22 69
30 234 13 254 -5 5 -14 29 -21 54 -31 107 -86 194 -188 297 -71 72 -90 113
-74 161 29 85 102 122 178 90z m671 -2 c35 -18 168 -158 206 -216 16 -25 37
-57 48 -72 10 -15 18 -34 18 -41 0 -8 7 -20 15 -27 8 -7 15 -18 15 -25 0 -8 6
-26 14 -42 22 -45 36 -97 36 -136 0 -20 5 -39 10 -42 6 -3 10 -52 10 -110 0
-58 -4 -107 -10 -110 -5 -3 -10 -26 -10 -50 0 -24 -4 -47 -10 -50 -5 -3 -10
-19 -10 -35 0 -16 -7 -35 -15 -44 -8 -8 -15 -23 -15 -34 0 -11 -7 -25 -15 -32
-8 -7 -15 -21 -15 -31 0 -11 -3 -19 -8 -19 -4 0 -16 -17 -27 -37 -11 -21 -22
-40 -25 -43 -3 -3 -23 -30 -45 -60 -22 -30 -67 -84 -101 -120 -132 -137 -184
-208 -228 -307 -74 -169 -73 -343 3 -524 40 -95 75 -146 168 -248 82 -89 91
-152 30 -211 -54 -53 -149 -49 -206 9 -132 137 -262 365 -287 504 -3 20 -10
40 -15 43 -12 7 -12 344 0 344 5 0 12 19 16 41 21 123 150 351 256 451 16 15
29 29 29 31 0 2 25 30 56 61 74 77 156 207 179 284 10 35 22 65 27 68 4 3 8
53 8 111 0 88 -4 117 -27 181 -41 117 -104 214 -193 299 -23 21 -50 57 -60 80
-17 38 -17 46 -4 70 7 16 14 34 14 41 0 6 5 12 10 12 6 0 10 6 10 14 0 29 104
45 148 22z"/>
<path d="M2960 2075 l0 -295 195 0 195 0 0 295 0 295 -195 0 -195 0 0 -295z"/>
<path d="M3630 2075 l0 -295 1185 0 1185 0 0 295 0 295 -1185 0 -1185 0 0
-295z"/>
<path d="M6270 2075 l0 -295 236 0 c227 0 236 1 241 20 3 11 9 20 14 20 5 0 9
9 9 20 0 11 5 20 10 20 6 0 10 9 10 20 0 11 5 20 10 20 6 0 10 9 10 20 0 11 7
23 15 26 8 4 15 15 15 25 0 10 5 19 10 19 6 0 10 9 10 19 0 11 5 23 10 26 6 3
10 15 10 26 0 10 5 19 10 19 6 0 10 11 10 25 0 14 5 25 10 25 6 0 10 9 10 19
0 10 7 21 15 25 8 3 15 16 15 30 0 14 5 28 10 31 6 3 10 15 10 26 0 10 5 19
10 19 6 0 10 16 10 35 0 19 5 35 10 35 6 0 10 5 10 10 0 6 -130 10 -370 10
l-370 0 0 -295z"/>
</g>
</svg>
