<?xml version="1.0" standalone="no"?>
<!DOCTYPE svg PUBLIC "-//W3C//DTD SVG 20010904//EN"
 "http://www.w3.org/TR/2001/REC-SVG-20010904/DTD/svg10.dtd">
<svg version="1.0" xmlns="http://www.w3.org/2000/svg"
 width="720.000000pt" height="720.000000pt" viewBox="0 0 720.000000 720.000000"
 preserveAspectRatio="xMidYMid meet">
<metadata>
Created by potrace 1.16, written by Peter Selinger 2001-2019
</metadata>
<g transform="translate(0.000000,720.000000) scale(0.100000,-0.100000)"
fill="#CED3D6" stroke="none">
<path d="M3110 7193 c-41 -2 -79 -8 -84 -13 -6 -6 -36 -10 -68 -10 -32 0 -58
-4 -58 -9 0 -8 -73 -25 -162 -38 -21 -3 -38 -9 -38 -14 0 -5 -20 -9 -45 -9
-25 0 -45 -4 -45 -10 0 -5 -16 -10 -35 -10 -19 0 -35 -4 -35 -10 0 -5 -13 -10
-30 -10 -16 0 -30 -4 -30 -10 0 -5 -16 -12 -35 -16 -19 -3 -38 -10 -41 -15 -3
-5 -16 -9 -30 -9 -13 0 -24 -4 -24 -10 0 -5 -16 -10 -35 -10 -19 0 -35 -4 -35
-10 0 -5 -9 -10 -19 -10 -11 0 -23 -4 -26 -10 -3 -5 -17 -10 -31 -10 -14 0
-27 -7 -30 -15 -4 -8 -15 -15 -25 -15 -10 0 -19 -4 -19 -10 0 -5 -11 -10 -25
-10 -14 0 -25 -4 -25 -10 0 -5 -9 -10 -19 -10 -11 0 -23 -4 -26 -10 -3 -5 -15
-10 -26 -10 -10 0 -19 -4 -19 -10 0 -5 -9 -10 -19 -10 -10 0 -21 -7 -25 -15
-3 -8 -15 -15 -26 -15 -11 0 -20 -4 -20 -10 0 -5 -9 -10 -20 -10 -11 0 -20 -4
-20 -10 0 -5 -9 -10 -20 -10 -11 0 -20 -4 -20 -10 0 -5 -9 -10 -19 -10 -10 0
-29 -11 -42 -25 -13 -13 -30 -25 -36 -25 -7 0 -13 -4 -13 -10 0 -5 -10 -10
-23 -10 -12 0 -29 -9 -37 -20 -8 -11 -21 -20 -29 -20 -7 0 -24 -11 -37 -25
-13 -14 -28 -25 -35 -25 -6 0 -19 -8 -28 -18 -9 -9 -29 -24 -46 -32 -16 -8
-39 -25 -50 -37 -11 -13 -26 -23 -33 -23 -7 0 -12 -4 -12 -10 0 -5 -5 -10 -11
-10 -6 0 -30 -20 -53 -45 -24 -25 -48 -45 -55 -45 -22 0 -431 -417 -431 -439
0 -12 -5 -21 -10 -21 -14 0 -80 -66 -80 -81 0 -6 -16 -26 -35 -45 -19 -18 -35
-40 -35 -47 0 -8 -13 -28 -30 -45 -16 -18 -30 -37 -30 -42 0 -6 -11 -21 -25
-34 -14 -13 -25 -29 -25 -35 0 -7 -9 -21 -20 -33 -11 -12 -20 -30 -20 -40 0
-10 -4 -18 -10 -18 -5 0 -10 -6 -10 -12 0 -7 -12 -24 -25 -37 -14 -13 -25 -32
-25 -42 0 -10 -4 -19 -10 -19 -5 0 -10 -9 -10 -20 0 -11 -4 -20 -10 -20 -5 0
-10 -9 -10 -20 0 -11 -4 -20 -10 -20 -5 0 -10 -9 -10 -20 0 -11 -7 -23 -15
-26 -8 -4 -15 -15 -15 -25 0 -10 -4 -19 -10 -19 -5 0 -10 -9 -10 -19 0 -11 -4
-23 -10 -26 -5 -3 -10 -15 -10 -26 0 -10 -4 -19 -10 -19 -5 0 -10 -11 -10 -25
0 -14 -4 -25 -10 -25 -5 0 -10 -9 -10 -19 0 -10 -7 -21 -15 -25 -8 -3 -15 -16
-15 -30 0 -14 -4 -28 -10 -31 -5 -3 -10 -15 -10 -26 0 -10 -4 -19 -10 -19 -5
0 -10 -16 -10 -35 0 -19 -4 -35 -10 -35 -5 0 -10 -11 -10 -24 0 -14 -4 -27 -9
-30 -5 -3 -12 -22 -15 -41 -4 -19 -11 -35 -16 -35 -6 0 -10 -13 -10 -30 0 -16
-4 -30 -10 -30 -5 0 -10 -16 -10 -35 0 -19 -4 -35 -10 -35 -5 0 -10 -20 -10
-45 0 -25 -4 -45 -9 -45 -5 0 -11 -17 -14 -37 -13 -90 -30 -163 -38 -163 -5 0
-9 -26 -9 -58 0 -33 -5 -63 -12 -70 -19 -19 -19 -1125 0 -1143 7 -8 12 -38 12
-71 0 -32 4 -58 9 -58 8 0 25 -73 38 -162 3 -21 9 -38 14 -38 5 0 9 -20 9 -45
0 -25 5 -45 10 -45 6 0 10 -16 10 -35 0 -19 5 -35 10 -35 6 0 10 -13 10 -30 0
-16 4 -30 10 -30 5 0 12 -16 16 -35 3 -19 10 -38 15 -41 5 -3 9 -16 9 -30 0
-13 5 -24 10 -24 6 0 10 -16 10 -35 0 -19 5 -35 10 -35 6 0 10 -9 10 -19 0
-11 5 -23 10 -26 6 -3 10 -17 10 -31 0 -14 7 -27 15 -30 8 -4 15 -15 15 -25 0
-10 5 -19 10 -19 6 0 10 -11 10 -25 0 -14 5 -25 10 -25 6 0 10 -9 10 -19 0
-11 4 -23 10 -26 5 -3 10 -15 10 -26 0 -10 5 -19 10 -19 6 0 10 -9 10 -19 0
-10 7 -21 15 -25 8 -3 15 -15 15 -26 0 -11 5 -20 10 -20 6 0 10 -9 10 -20 0
-11 5 -20 10 -20 6 0 10 -9 10 -20 0 -11 5 -20 10 -20 6 0 10 -9 10 -19 0 -10
11 -29 25 -42 13 -13 25 -30 25 -36 0 -7 5 -13 10 -13 6 0 10 -8 10 -18 0 -10
9 -28 20 -40 11 -12 20 -26 20 -33 0 -6 11 -22 25 -35 14 -13 25 -28 25 -35 0
-6 14 -24 30 -39 17 -15 30 -36 30 -45 0 -18 23 -45 38 -45 5 0 16 -15 23 -32
14 -35 71 -98 89 -98 5 0 10 -9 10 -21 0 -28 411 -439 439 -439 12 0 21 -5 21
-10 0 -14 66 -80 81 -80 6 0 26 -16 45 -35 18 -19 40 -35 47 -35 8 0 28 -14
45 -30 18 -17 37 -30 42 -30 6 0 21 -11 34 -25 13 -14 29 -25 35 -25 7 0 21
-9 33 -20 12 -11 30 -20 40 -20 10 0 18 -4 18 -10 0 -5 6 -10 13 -10 6 0 23
-12 36 -25 13 -14 32 -25 42 -25 10 0 19 -4 19 -10 0 -5 9 -10 20 -10 11 0 20
-4 20 -10 0 -5 9 -10 20 -10 11 0 20 -4 20 -10 0 -5 9 -10 20 -10 11 0 23 -7
26 -15 4 -8 15 -15 25 -15 10 0 19 -4 19 -10 0 -5 9 -10 19 -10 11 0 23 -5 26
-10 3 -6 15 -10 26 -10 10 0 19 -4 19 -10 0 -5 11 -10 25 -10 14 0 25 -4 25
-10 0 -5 9 -10 19 -10 10 0 21 -7 25 -15 3 -8 16 -15 30 -15 14 0 28 -4 31
-10 3 -5 15 -10 26 -10 10 0 19 -4 19 -10 0 -5 16 -10 35 -10 19 0 35 -4 35
-10 0 -5 11 -10 24 -10 14 0 27 -4 30 -9 3 -5 22 -12 41 -15 19 -4 35 -11 35
-16 0 -6 14 -10 30 -10 17 0 30 -4 30 -10 0 -5 16 -10 35 -10 19 0 35 -4 35
-10 0 -5 20 -10 45 -10 25 0 45 -4 45 -9 0 -5 17 -11 38 -14 89 -13 162 -30
162 -38 0 -5 26 -9 58 -9 33 0 63 -5 71 -13 18 -18 1124 -18 1142 0 8 8 38 13
71 13 32 0 58 4 58 9 0 8 73 25 163 38 20 3 37 9 37 14 0 5 20 9 45 9 25 0 45
5 45 10 0 6 16 10 35 10 19 0 35 5 35 10 0 6 14 10 30 10 17 0 30 4 30 10 0 5
16 12 35 16 19 3 38 10 41 15 3 5 16 9 30 9 13 0 24 5 24 10 0 6 16 10 35 10
19 0 35 5 35 10 0 6 9 10 19 10 11 0 23 5 26 10 3 6 17 10 31 10 14 0 27 7 30
15 4 8 15 15 25 15 10 0 19 5 19 10 0 6 11 10 25 10 14 0 25 5 25 10 0 6 9 10
19 10 11 0 23 5 26 10 3 6 15 10 26 10 10 0 19 5 19 10 0 6 9 10 19 10 10 0
21 7 25 15 3 8 15 15 26 15 11 0 20 5 20 10 0 6 9 10 20 10 11 0 20 5 20 10 0
6 9 10 20 10 11 0 20 5 20 10 0 6 9 10 19 10 10 0 29 11 42 25 13 13 30 25 37
25 6 0 12 5 12 10 0 6 8 10 18 10 10 0 28 9 40 20 12 11 26 20 33 20 6 0 22
11 35 25 13 14 28 25 35 25 6 0 24 13 39 30 15 16 36 30 45 30 18 0 45 23 45
38 0 5 15 16 33 23 34 14 97 71 97 89 0 5 9 10 21 10 28 0 439 411 439 439 0
12 5 21 10 21 18 0 75 63 89 97 7 18 18 33 23 33 15 0 38 27 38 45 0 9 14 30
30 45 17 15 30 33 30 39 0 7 11 22 25 35 14 13 25 29 25 35 0 7 9 21 20 33 11
12 20 30 20 40 0 10 5 18 10 18 6 0 10 6 10 13 0 6 12 23 25 36 14 13 25 32
25 42 0 10 5 19 10 19 6 0 10 9 10 20 0 11 5 20 10 20 6 0 10 9 10 20 0 11 5
20 10 20 6 0 10 9 10 20 0 11 7 23 15 26 8 4 15 15 15 25 0 10 5 19 10 19 6 0
10 9 10 19 0 11 4 23 10 26 6 3 10 15 10 26 0 10 5 19 10 19 6 0 10 11 10 25
0 14 5 25 10 25 6 0 10 9 10 19 0 10 7 21 15 25 8 3 15 16 15 30 0 14 4 28 10
31 6 3 10 15 10 26 0 10 5 19 10 19 6 0 10 16 10 35 0 19 5 35 10 35 6 0 10
11 10 24 0 14 4 27 9 30 5 3 12 22 15 41 4 19 11 35 16 35 6 0 10 14 10 30 0
17 5 30 10 30 6 0 10 16 10 35 0 19 5 35 10 35 6 0 10 20 10 45 0 25 4 45 9
45 5 0 11 17 14 38 13 89 30 162 38 162 5 0 9 26 9 58 0 33 5 63 13 71 9 9 12
137 12 571 0 434 -3 562 -12 572 -8 7 -13 37 -13 70 0 32 -4 58 -9 58 -8 0
-25 73 -38 163 -3 20 -9 37 -14 37 -5 0 -9 20 -9 45 0 25 -4 45 -10 45 -5 0
-10 16 -10 35 0 19 -4 35 -10 35 -5 0 -10 14 -10 30 0 17 -4 30 -10 30 -5 0
-12 16 -16 35 -3 19 -10 38 -15 41 -5 3 -9 16 -9 30 0 13 -4 24 -10 24 -5 0
-10 16 -10 35 0 19 -4 35 -10 35 -5 0 -10 9 -10 19 0 11 -4 23 -10 26 -5 3
-10 17 -10 31 0 14 -7 27 -15 30 -8 4 -15 15 -15 25 0 10 -4 19 -10 19 -5 0
-10 11 -10 25 0 14 -4 25 -10 25 -5 0 -10 9 -10 19 0 11 -4 23 -10 26 -5 3
-10 15 -10 26 0 10 -4 19 -10 19 -5 0 -10 9 -10 19 0 10 -7 21 -15 25 -8 3
-15 15 -15 26 0 11 -4 20 -10 20 -5 0 -10 9 -10 20 0 11 -4 20 -10 20 -5 0
-10 9 -10 20 0 11 -4 20 -10 20 -5 0 -10 9 -10 19 0 10 -11 29 -25 42 -13 13
-25 30 -25 37 0 6 -4 12 -10 12 -5 0 -10 8 -10 18 0 10 -9 28 -20 40 -11 12
-20 26 -20 33 0 6 -11 22 -25 35 -14 13 -25 28 -25 34 0 5 -13 24 -30 42 -16
17 -30 37 -30 45 0 7 -16 29 -35 47 -19 19 -35 39 -35 45 0 15 -66 81 -80 81
-5 0 -10 9 -10 21 0 28 -411 439 -439 439 -12 0 -21 5 -21 10 0 18 -63 75 -97
89 -18 7 -33 18 -33 23 0 15 -27 38 -45 38 -9 0 -30 14 -45 30 -15 17 -33 30
-39 30 -7 0 -22 11 -35 25 -13 14 -29 25 -35 25 -7 0 -21 9 -33 20 -12 11 -30
20 -40 20 -10 0 -18 5 -18 10 0 6 -6 10 -12 10 -7 0 -24 12 -37 25 -13 14 -32
25 -42 25 -10 0 -19 5 -19 10 0 6 -9 10 -20 10 -11 0 -20 5 -20 10 0 6 -9 10
-20 10 -11 0 -20 5 -20 10 0 6 -9 10 -20 10 -11 0 -23 7 -26 15 -4 8 -15 15
-25 15 -10 0 -19 5 -19 10 0 6 -9 10 -19 10 -11 0 -23 5 -26 10 -3 6 -15 10
-26 10 -10 0 -19 5 -19 10 0 6 -11 10 -25 10 -14 0 -25 5 -25 10 0 6 -9 10
-19 10 -10 0 -21 7 -25 15 -3 8 -16 15 -30 15 -14 0 -28 5 -31 10 -3 6 -15 10
-26 10 -10 0 -19 5 -19 10 0 6 -16 10 -35 10 -19 0 -35 5 -35 10 0 6 -11 10
-24 10 -14 0 -27 4 -30 9 -3 5 -22 12 -41 15 -19 4 -35 11 -35 16 0 6 -13 10
-30 10 -16 0 -30 5 -30 10 0 6 -16 10 -35 10 -19 0 -35 5 -35 10 0 6 -20 10
-45 10 -25 0 -45 4 -45 9 0 5 -17 11 -37 14 -90 13 -163 30 -163 38 0 5 -26 9
-58 9 -33 0 -63 5 -70 12 -10 10 -127 13 -500 14 -268 1 -521 -1 -562 -3z
m1694 -1742 c10 -4 27 -29 37 -57 18 -47 19 -103 19 -1418 0 -826 -4 -1383 -9
-1405 -6 -20 -15 -64 -22 -98 -6 -35 -16 -63 -20 -63 -5 0 -9 -5 -9 -11 0 -21
-56 -88 -97 -116 -24 -15 -43 -31 -43 -35 0 -5 -6 -8 -14 -8 -8 0 -21 -6 -28
-13 -7 -8 -31 -20 -53 -27 -22 -7 -44 -16 -50 -20 -5 -5 -27 -11 -47 -15 -21
-4 -38 -11 -38 -15 0 -9 -151 -30 -223 -30 -69 0 -197 20 -197 30 0 4 -16 11
-35 14 -19 4 -35 11 -35 15 0 5 -12 14 -28 20 -44 19 -126 105 -158 168 -27
53 -29 67 -29 163 0 97 2 110 30 164 26 52 117 156 136 156 4 0 14 6 21 13 15
15 121 67 137 67 6 0 11 4 11 9 0 5 30 14 68 21 37 7 72 16 78 21 5 4 47 11
92 15 45 4 82 10 82 14 0 4 31 10 70 13 69 6 113 23 158 61 12 11 22 25 22 32
0 7 6 14 13 16 9 4 13 154 15 700 l2 695 -24 26 c-22 24 -33 27 -86 27 -33 0
-68 -4 -78 -10 -9 -5 -51 -14 -92 -19 -119 -15 -274 -42 -290 -51 -9 -4 -48
-11 -88 -15 -40 -4 -72 -10 -72 -14 0 -4 -48 -13 -107 -20 -60 -7 -112 -17
-118 -21 -5 -4 -43 -11 -82 -15 -40 -4 -73 -10 -73 -14 0 -4 -48 -13 -107 -20
-60 -7 -112 -17 -118 -21 -5 -4 -43 -11 -82 -15 -40 -4 -73 -10 -73 -14 0 -4
-49 -13 -110 -21 -60 -7 -110 -17 -110 -21 0 -5 -13 -9 -28 -9 -20 0 -39 -11
-63 -37 l-34 -38 -5 -1039 c-4 -805 -8 -1040 -17 -1043 -7 -3 -15 -20 -19 -38
-3 -19 -12 -39 -20 -46 -8 -6 -14 -18 -14 -26 0 -7 -7 -16 -15 -19 -8 -4 -15
-11 -15 -18 0 -10 -68 -79 -121 -121 -33 -26 -132 -75 -152 -75 -10 0 -17 -4
-17 -9 0 -10 -122 -31 -180 -31 -22 0 -49 -5 -59 -12 -15 -9 -32 -9 -73 0 -29
6 -82 16 -118 23 -36 6 -67 14 -70 18 -3 3 -25 19 -49 35 -25 16 -54 40 -67
55 -12 14 -31 37 -43 50 -12 13 -21 30 -21 36 0 7 -6 18 -14 24 -8 7 -17 30
-21 52 -4 21 -11 39 -16 39 -5 0 -9 47 -9 105 0 63 4 105 10 105 6 0 10 7 10
16 0 30 33 85 79 132 44 45 196 132 232 132 8 0 19 4 25 9 10 10 127 37 224
52 36 6 74 14 85 19 11 5 45 12 75 15 58 7 128 40 141 65 47 91 43 1 47 1189
3 1089 3 1105 23 1130 30 39 93 70 154 77 30 4 55 10 55 14 0 4 46 13 103 20
56 7 107 16 112 20 6 4 39 11 75 15 36 4 70 10 75 14 6 3 60 14 120 24 61 9
142 22 180 29 39 6 72 14 75 18 3 4 52 12 110 19 57 7 111 16 120 21 8 4 44
11 80 15 35 4 71 11 80 16 8 5 47 13 85 18 125 17 270 43 290 51 11 5 49 12
85 16 36 3 70 9 75 13 31 20 252 37 289 22z"/>
</g>
</svg>
