<?xml version="1.0" encoding="UTF-8" standalone="no"?>
<!-- Generator: Adobe Illustrator 19.0.0, SVG Export Plug-In . SVG Version: 6.00 Build 0)  -->

<svg
   xmlns:dc="http://purl.org/dc/elements/1.1/"
   xmlns:cc="http://creativecommons.org/ns#"
   xmlns:rdf="http://www.w3.org/1999/02/22-rdf-syntax-ns#"
   xmlns:svg="http://www.w3.org/2000/svg"
   xmlns="http://www.w3.org/2000/svg"
   xmlns:sodipodi="http://sodipodi.sourceforge.net/DTD/sodipodi-0.dtd"
   xmlns:inkscape="http://www.inkscape.org/namespaces/inkscape"
   version="1.1"
   id="Capa_1"
   x="0px"
   y="0px"
   viewBox="0 0 512 512"
   style="enable-background:new 0 0 512 512;"
   xml:space="preserve"
   sodipodi:docname="logout.svg"
   inkscape:version="0.92.2 5c3e80d, 2017-08-06"><metadata
     id="metadata19"><rdf:RDF><cc:Work
         rdf:about=""><dc:format>image/svg+xml</dc:format><dc:type
           rdf:resource="http://purl.org/dc/dcmitype/StillImage" /></cc:Work></rdf:RDF></metadata><defs
     id="defs17" /><sodipodi:namedview
     pagecolor="#ffffff"
     bordercolor="#666666"
     borderopacity="1"
     objecttolerance="10"
     gridtolerance="10"
     guidetolerance="10"
     inkscape:pageopacity="0"
     inkscape:pageshadow="2"
     inkscape:window-width="1046"
     inkscape:window-height="825"
     id="namedview15"
     showgrid="false"
     inkscape:zoom="0.4609375"
     inkscape:cx="256"
     inkscape:cy="256"
     inkscape:window-x="0"
     inkscape:window-y="0"
     inkscape:window-maximized="0"
     inkscape:current-layer="Capa_1" /><g
     id="g27"
     transform="matrix(-1,0,0,1,511.99981,0)"><g
       id="g6"><g
         id="g4"
         style="fill:#0c2231;stroke:none"><path
           id="path2"
           d="m 360.233,121.189 c 11.046,0 20,-8.954 20,-20 V 49.378 C 380.233,22.151 357.837,0 330.31,0 H 90.923 C 63.396,0 41,22.151 41,49.378 V 462.622 C 41,489.849 63.396,512 90.923,512 H 330.31 c 27.527,0 49.923,-22.151 49.923,-49.378 v -51.811 c 0,-11.045 -8.955,-19.999 -20,-19.999 -11.046,0 -20,8.954 -20,20 v 51.811 c 0,5.171 -4.451,9.378 -9.923,9.378 H 90.923 C 85.451,472.001 81,467.794 81,462.623 V 49.378 C 81,44.207 85.451,40 90.923,40 H 330.31 c 5.472,0 9.923,4.207 9.923,9.378 v 51.811 c 0,11.046 8.954,20 20,20 z"
           inkscape:connector-curvature="0" /></g></g><g
       id="g12"><g
         id="g10"
         style="fill:#0c2231;stroke:none"><path
           id="path8"
           d="M 464.963,241.682 358.521,137.881 c -7.908,-7.713 -20.571,-7.554 -28.281,0.355 -7.712,7.907 -7.553,20.57 0.355,28.281 L 401.845,236 H 210.616 c -11.046,0 -20,8.954 -20,20 0,11.046 8.954,20 20,20 h 191.229 l -71.25,69.482 c -7.908,7.711 -8.067,20.374 -0.355,28.281 7.709,7.907 20.373,8.07 28.281,0.355 L 464.963,270.317 c 8.098,-7.881 8,-20.848 0,-28.635 z"
           inkscape:connector-curvature="0" /></g></g></g></svg>