<svg width="800" height="600" xmlns="http://www.w3.org/2000/svg">
 <g>
  <title>Layer 1</title>
  <defs>
   <style>.cls-1{fill:#ffffff;}</style>
  </defs>
  <g id="svg_9">
   <g id="svg_5" transform="matrix(9.765625,0,0,9.765625,0,0) ">
    <g id="svg_6">
     <path class="cls-1" d="m72.43004,11.88994a8,8 0 0 0 -7.47,-5.17l-48,0a8,8 0 0 0 -7.52,5.33a7.44,7.44 0 0 0 -0.48,2.67l0,32a8,8 0 0 0 5,7.41a7.85,7.85 0 0 0 3,0.59l48,0a7.32,7.32 0 0 0 2.85,-0.56a7.84,7.84 0 0 0 4.15,-3.55a8,8 0 0 0 1,-3.89l0,-32a7.86,7.86 0 0 0 -0.53,-2.83zm-58.14,2.83a2.68,2.68 0 0 1 2.67,-2.67l48,0a2.68,2.68 0 0 1 2.67,2.67l0,0.51l-21.26,16l-4.41,3.41l-1,0.75l-1,-0.78l-4.46,-3.33l-21.21,-15.95l0,-0.61zm0,32l0,-24.72l16.78,12.61l-16.72,12.56a2,2 0 0 1 -0.06,-0.45zm6,2.67l15.23,-11.44l3.84,2.9a2.64,2.64 0 0 0 3.2,0l3.81,-2.88l15.12,11.42l-41.2,0zm47.34,-2.67a2,2 0 0 1 -0.08,0.56l-16.75,-12.67l16.83,-12.72l0,24.83z" id="svg_8"/>
    </g>
   </g>
  </g>
 </g>
</svg>
