<?xml version="1.0" standalone="no"?>
<!DOCTYPE svg PUBLIC "-//W3C//DTD SVG 20010904//EN"
 "http://www.w3.org/TR/2001/REC-SVG-20010904/DTD/svg10.dtd">
<svg version="1.0" xmlns="http://www.w3.org/2000/svg"
 width="161.000000pt" height="161.000000pt" viewBox="0 0 161.000000 161.000000"
 preserveAspectRatio="xMidYMid meet">
<metadata>
Created by potrace 1.16, written by Peter Selinger 2001-2019
</metadata>
<g transform="translate(0.000000,161.000000) scale(0.100000,-0.100000)"
fill="#0c2231" stroke="none">
<path d="M792 1551 c-53 -34 -74 -77 -69 -144 3 -49 8 -62 37 -92 87 -89 228
-55 260 63 15 57 0 109 -45 152 -30 29 -43 34 -92 37 -46 3 -65 0 -91 -16z"/>
<path d="M885 1181 c-59 -26 -101 -66 -125 -116 -24 -49 -70 -258 -70 -317 0
-69 3 -68 -155 -68 -129 0 -145 -2 -169 -21 l-26 -20 0 -280 c0 -174 4 -288
10 -300 8 -14 21 -19 56 -19 103 0 114 26 114 265 l0 185 158 0 c86 0 174 5
194 10 66 19 78 45 156 333 40 146 72 277 72 290 0 13 -9 36 -21 51 -18 23
-27 26 -87 26 -43 0 -81 -7 -107 -19z"/>
<path d="M1183 1078 c-6 -7 -41 -125 -78 -263 -77 -285 -82 -299 -121 -339
-54 -54 -96 -66 -235 -66 -136 0 -154 -6 -147 -52 6 -41 41 -50 181 -44 149 5
204 25 274 96 53 55 60 72 143 382 58 216 66 256 55 273 -15 24 -57 31 -72 13z"/>
</g>
</svg>
