<?xml version="1.0" encoding="UTF-8" standalone="no"?>
<svg
   xmlns:dc="http://purl.org/dc/elements/1.1/"
   xmlns:cc="http://creativecommons.org/ns#"
   xmlns:rdf="http://www.w3.org/1999/02/22-rdf-syntax-ns#"
   xmlns:svg="http://www.w3.org/2000/svg"
   xmlns="http://www.w3.org/2000/svg"
   xmlns:sodipodi="http://sodipodi.sourceforge.net/DTD/sodipodi-0.dtd"
   xmlns:inkscape="http://www.inkscape.org/namespaces/inkscape"
   version="1.0"
   width="99.738014pt"
   height="109.96041pt"
   viewBox="0 0 99.738014 109.96041"
   preserveAspectRatio="xMidYMid meet"
   id="svg12"
   sodipodi:docname="passenger.svg"
   inkscape:version="0.92.2 5c3e80d, 2017-08-06">
  <metadata
     id="metadata18">
    <rdf:RDF>
      <cc:Work
         rdf:about="">
        <dc:format>image/svg+xml</dc:format>
        <dc:type
           rdf:resource="http://purl.org/dc/dcmitype/StillImage" />
        <dc:title></dc:title>
      </cc:Work>
    </rdf:RDF>
  </metadata>
  <defs
     id="defs16" />
  <sodipodi:namedview
     pagecolor="#ffffff"
     bordercolor="#666666"
     borderopacity="1"
     objecttolerance="10"
     gridtolerance="10"
     guidetolerance="10"
     inkscape:pageopacity="0"
     inkscape:pageshadow="2"
     inkscape:window-width="1224"
     inkscape:window-height="669"
     id="namedview14"
     showgrid="false"
     fit-margin-top="0"
     fit-margin-left="0"
     fit-margin-right="0"
     fit-margin-bottom="0"
     inkscape:zoom="0.885"
     inkscape:cx="59.650695"
     inkscape:cy="85.280548"
     inkscape:window-x="0"
     inkscape:window-y="43"
     inkscape:window-maximized="0"
     inkscape:current-layer="svg12" />
  <g
     transform="matrix(0.1,0,0,-0.1,-55.261981,146)"
     id="g10"
     style="fill:#000000;stroke:none">
    <path
       d="m 652,1444 c -53,-37 -66,-110 -29,-165 82,-122 270,-10 202,121 -22,42 -53,60 -105,60 -25,0 -56,-7 -68,-16 z"
       id="path2"
       inkscape:connector-curvature="0" />
    <path
       d="m 740,1173 c -30,-11 -60,-47 -60,-73 0,-56 79,-413 96,-431 25,-28 78,-39 185,-39 61,0 101,-4 111,-12 8,-7 44,-62 78,-121 68,-118 93,-142 135,-131 30,7 57,57 46,84 -25,61 -180,325 -197,337 -12,7 -64,18 -115,24 -52,6 -95,12 -97,13 -1,2 -18,72 -36,157 -29,131 -38,157 -61,176 -25,22 -54,27 -85,16 z"
       id="path4"
       inkscape:connector-curvature="0" />
    <path
       d="m 560,1024 c -11,-12 -10,-41 5,-157 26,-208 50,-315 76,-343 27,-29 88,-41 251,-50 141,-7 158,-2 158,46 0,15 -7,33 -15,40 -9,7 -67,16 -139,21 -144,10 -173,19 -187,56 -6,16 -22,107 -36,203 -14,96 -30,181 -36,188 -13,17 -62,15 -77,-4 z"
       id="path6"
       inkscape:connector-curvature="0" />
    <path
       d="m 1457,844 c -4,-4 -7,-15 -7,-23 0,-9 -13,-22 -30,-28 l -30,-11 V 581 c 0,-188 1,-201 19,-211 29,-15 93,-12 119,6 21,15 22,20 22,203 0,169 -2,190 -18,204 -10,10 -24,17 -30,17 -6,0 -12,10 -14,22 -3,22 -19,33 -31,22 z"
       id="path8"
       inkscape:connector-curvature="0" />
  </g>
</svg>
