<?xml version="1.0" encoding="UTF-8" standalone="no"?>
<svg
   xmlns:dc="http://purl.org/dc/elements/1.1/"
   xmlns:cc="http://creativecommons.org/ns#"
   xmlns:rdf="http://www.w3.org/1999/02/22-rdf-syntax-ns#"
   xmlns:svg="http://www.w3.org/2000/svg"
   xmlns="http://www.w3.org/2000/svg"
   xmlns:sodipodi="http://sodipodi.sourceforge.net/DTD/sodipodi-0.dtd"
   xmlns:inkscape="http://www.inkscape.org/namespaces/inkscape"
   version="1.1"
   id="mdi-seat-passenger"
   width="16"
   height="19.504999"
   viewBox="0 0 16 19.504999"
   sodipodi:docname="passenger4.svg"
   inkscape:version="0.92.2 5c3e80d, 2017-08-06">
  <metadata
     id="metadata9">
    <rdf:RDF>
      <cc:Work
         rdf:about="">
        <dc:format>image/svg+xml</dc:format>
        <dc:type
           rdf:resource="http://purl.org/dc/dcmitype/StillImage" />
        <dc:title></dc:title>
      </cc:Work>
    </rdf:RDF>
  </metadata>
  <defs
     id="defs7" />
  <sodipodi:namedview
     pagecolor="#ffffff"
     bordercolor="#666666"
     borderopacity="1"
     objecttolerance="10"
     gridtolerance="10"
     guidetolerance="10"
     inkscape:pageopacity="0"
     inkscape:pageshadow="2"
     inkscape:window-width="796"
     inkscape:window-height="480"
     id="namedview5"
     showgrid="false"
     fit-margin-top="0"
     fit-margin-left="0"
     fit-margin-right="0"
     fit-margin-bottom="0"
     inkscape:zoom="9.8333333"
     inkscape:cx="8"
     inkscape:cy="9.5000015"
     inkscape:window-x="0"
     inkscape:window-y="43"
     inkscape:window-maximized="0"
     inkscape:current-layer="mdi-seat-passenger"
     scale-x="1" />
  <path
     d="m 5,17.005 h 6 v 2 H 5 c -2.76,0 -5,-2.24 -5,-5 v -9 h 2 v 9 c 0,1.66 1.34,3 3,3 M 6.42,3.415 c 0.78,-0.78 0.78,-2.05 0,-2.83 -0.78,-0.78 -2.05,-0.78 -2.83,0 -0.78,0.78 -0.78,2.05 0,2.83 0.78,0.79 2.04,0.79 2.83,0 m 1.08,3.59 c 0,-1.1 -0.9,-2 -2,-2 H 5 c -1.1,0 -2,0.9 -2,2 v 6 c 0,1.66 1.34,3 3,3 h 5.07 l 3.5,3.5 1.43,-1.43 -5.07,-5.07 H 7.5 Z"
     id="path2"
     inkscape:connector-curvature="0" />
</svg>
