<?xml version="1.0" standalone="no"?>
<!DOCTYPE svg PUBLIC "-//W3C//DTD SVG 20010904//EN"
 "http://www.w3.org/TR/2001/REC-SVG-20010904/DTD/svg10.dtd">
<svg version="1.0" xmlns="http://www.w3.org/2000/svg"
 width="512.000000pt" height="512.000000pt" viewBox="0 0 512.000000 512.000000"
 preserveAspectRatio="xMidYMid meet">
<metadata>
Created by potrace 1.16, written by Peter Selinger 2001-2019
</metadata>
<g transform="translate(-127.000000,660.000000) scale(0.1500000,-0.1500000)"
fill="#0c2231" stroke="none">
<path d="M2365 4234 c-38 -8 -113 -36 -165 -61 -81 -39 -108 -59 -186 -137
-78 -78 -98 -105 -137 -186 -102 -212 -102 -418 0 -630 39 -81 59 -108 137
-186 77 -78 105 -98 186 -137 53 -26 125 -52 163 -59 37 -7 67 -16 67 -20 0
-5 38 -8 85 -8 47 0 85 3 85 8 0 4 30 13 68 20 37 7 109 33 162 59 81 39 109
59 186 137 78 78 98 105 137 186 26 54 52 128 61 172 33 159 13 304 -61 458
-39 81 -59 108 -137 186 -78 78 -105 98 -186 137 -153 74 -307 94 -465 61z"/>
<path d="M2395 2634 c-505 -55 -941 -335 -1159 -744 -81 -153 -129 -323 -142
-509 -7 -95 4 -136 47 -177 l30 -29 1377 -3 c1351 -2 1378 -2 1409 17 70 43
83 105 60 283 -18 132 -65 284 -125 405 -89 176 -254 363 -428 485 -165 116
-409 217 -614 254 -83 15 -375 26 -455 18z"/>
</g>
</svg>
