<?xml version="1.0" standalone="no"?>
<!DOCTYPE svg PUBLIC "-//W3C//DTD SVG 20010904//EN"
 "http://www.w3.org/TR/2001/REC-SVG-20010904/DTD/svg10.dtd">
<svg version="1.0" xmlns="http://www.w3.org/2000/svg"
 width="512.000000pt" height="512.000000pt" viewBox="0 0 512.000000 512.000000"
 preserveAspectRatio="xMidYMid meet">
<metadata>
Created by potrace 1.16, written by Peter Selinger 2001-2019
</metadata>
<g transform="translate(0.000000,512.000000) scale(0.100000,-0.100000)"
fill="#ffffff" stroke="none">
<path d="M2275 5114 c-16 -2 -86 -11 -155 -20 -69 -9 -127 -19 -130 -23 -3 -4
-52 -17 -110 -30 -58 -13 -107 -26 -110 -30 -3 -4 -32 -15 -64 -24 -33 -9 -62
-20 -65 -24 -3 -5 -39 -19 -78 -31 -40 -13 -73 -27 -73 -31 0 -4 -22 -15 -50
-25 -27 -10 -50 -21 -50 -26 0 -4 -21 -15 -47 -25 -27 -10 -57 -25 -68 -35
-11 -9 -35 -23 -52 -30 -18 -7 -33 -16 -33 -20 0 -4 -15 -15 -32 -23 -18 -9
-42 -23 -53 -31 -11 -9 -43 -34 -72 -56 -29 -22 -55 -40 -57 -40 -6 0 -37 -27
-105 -92 -28 -27 -54 -48 -58 -48 -10 0 -143 -134 -143 -144 0 -4 -21 -29 -47
-57 -66 -68 -93 -99 -93 -105 0 -2 -18 -28 -40 -57 -22 -29 -47 -61 -56 -72
-8 -11 -22 -35 -31 -52 -8 -18 -19 -33 -23 -33 -4 0 -13 -15 -20 -32 -7 -18
-21 -42 -30 -53 -10 -11 -25 -41 -35 -67 -10 -27 -21 -48 -25 -48 -5 0 -16
-22 -26 -50 -10 -27 -21 -50 -25 -50 -4 0 -18 -33 -31 -72 -12 -40 -26 -76
-31 -79 -4 -3 -15 -32 -24 -65 -9 -32 -20 -61 -24 -64 -4 -3 -17 -52 -30 -110
-13 -58 -26 -107 -30 -110 -4 -3 -15 -63 -25 -135 -27 -187 -27 -683 0 -870
10 -71 21 -132 25 -135 4 -3 17 -52 30 -110 13 -58 26 -107 30 -110 4 -3 15
-32 24 -64 9 -33 20 -62 24 -65 5 -3 19 -39 31 -78 13 -40 27 -73 31 -73 5 0
14 -21 21 -46 7 -25 21 -54 30 -63 9 -9 25 -37 35 -64 10 -26 22 -47 26 -47 5
0 16 -18 25 -40 9 -22 19 -40 23 -40 4 0 14 -15 23 -32 9 -18 23 -42 32 -53 9
-11 34 -45 56 -75 53 -74 77 -102 133 -160 26 -27 47 -53 47 -57 0 -10 134
-143 144 -143 4 0 29 -21 57 -47 68 -66 99 -93 105 -93 2 0 28 -18 57 -40 29
-22 61 -47 72 -56 11 -8 35 -22 52 -31 18 -8 33 -19 33 -23 0 -4 15 -13 33
-20 17 -7 41 -21 52 -30 11 -10 41 -25 68 -35 26 -10 47 -21 47 -25 0 -5 23
-16 50 -26 28 -10 50 -21 50 -25 0 -4 33 -18 73 -31 39 -12 75 -26 78 -31 3
-4 32 -15 65 -24 32 -9 61 -20 64 -24 3 -4 52 -17 110 -30 58 -13 107 -26 110
-30 3 -4 64 -15 135 -25 187 -27 683 -27 870 0 72 10 132 21 135 25 3 4 52 17
110 30 58 13 107 26 110 30 3 4 32 15 64 24 33 9 62 20 65 24 3 5 39 19 79 31
39 13 72 27 72 31 0 4 23 15 50 25 28 10 50 21 50 26 0 4 21 15 48 25 26 10
56 25 67 35 11 9 35 23 53 30 17 7 32 16 32 20 0 4 15 15 33 23 17 9 41 23 52
31 11 9 43 34 72 56 29 22 55 40 57 40 6 0 37 27 105 93 28 26 53 47 57 47 10
0 144 133 144 143 0 4 21 30 48 58 65 68 92 99 92 105 0 2 18 28 40 57 22 29
47 61 56 72 8 11 22 35 31 53 8 17 19 32 23 32 4 0 13 15 20 32 7 18 21 42 30
53 10 11 25 41 35 67 10 27 21 48 25 48 5 0 16 23 26 50 10 28 21 50 25 50 4
0 18 33 31 73 12 39 26 75 31 78 4 3 15 32 24 65 9 32 20 61 24 64 4 3 17 52
30 110 13 58 26 107 30 110 4 3 15 64 25 135 15 104 19 191 19 435 0 244 -4
331 -19 435 -10 72 -21 132 -25 135 -4 3 -17 52 -30 110 -13 58 -26 107 -30
110 -4 3 -15 32 -24 64 -9 33 -20 62 -24 65 -5 3 -19 39 -31 79 -13 39 -27 72
-31 72 -4 0 -15 23 -25 50 -10 28 -21 50 -26 50 -4 0 -15 21 -25 48 -10 26
-25 56 -35 67 -9 11 -23 35 -30 53 -7 17 -16 32 -20 32 -4 0 -15 15 -23 33 -9
17 -23 41 -31 52 -9 11 -34 43 -56 72 -22 29 -40 55 -40 57 0 6 -27 37 -92
105 -27 28 -48 53 -48 57 0 10 -133 144 -143 144 -4 0 -30 21 -57 48 -58 55
-86 79 -160 132 -30 22 -64 47 -75 56 -11 9 -35 23 -52 32 -18 9 -33 19 -33
23 0 4 -18 14 -40 23 -22 9 -40 20 -40 25 0 4 -21 16 -47 26 -27 10 -55 26
-64 35 -9 9 -38 23 -63 30 -25 7 -46 16 -46 21 0 4 -33 18 -72 31 -40 12 -76
26 -79 31 -3 4 -32 15 -65 24 -32 9 -61 20 -64 24 -3 4 -52 17 -110 30 -58 13
-107 26 -110 30 -3 4 -59 15 -125 24 -89 13 -195 19 -410 20 -159 2 -303 1
-320 -1z"/>
</g>
<g transform="translate(0.000000,512.000000) scale(0.100000,-0.100000)"
fill="#0c2231" stroke="none">
<path d="M2365 4234 c-38 -8 -113 -36 -165 -61 -81 -39 -108 -59 -186 -137
-78 -78 -98 -105 -137 -186 -102 -212 -102 -418 0 -630 39 -81 59 -108 137
-186 77 -78 105 -98 186 -137 53 -26 125 -52 163 -59 37 -7 67 -16 67 -20 0
-5 38 -8 85 -8 47 0 85 3 85 8 0 4 30 13 68 20 37 7 109 33 162 59 81 39 109
59 186 137 78 78 98 105 137 186 26 54 52 128 61 172 33 159 13 304 -61 458
-39 81 -59 108 -137 186 -78 78 -105 98 -186 137 -153 74 -307 94 -465 61z"/>
<path d="M2395 2634 c-505 -55 -941 -335 -1159 -744 -81 -153 -129 -323 -142
-509 -7 -95 4 -136 47 -177 l30 -29 1377 -3 c1351 -2 1378 -2 1409 17 70 43
83 105 60 283 -18 132 -65 284 -125 405 -89 176 -254 363 -428 485 -165 116
-409 217 -614 254 -83 15 -375 26 -455 18z"/>
</g>
</svg>
