<?xml version="1.0" standalone="no"?>
<!DOCTYPE svg PUBLIC "-//W3C//DTD SVG 20010904//EN"
 "http://www.w3.org/TR/2001/REC-SVG-20010904/DTD/svg10.dtd">
<svg version="1.0" xmlns="http://www.w3.org/2000/svg"
 width="720.000000pt" height="720.000000pt" viewBox="0 0 720.000000 720.000000"
 preserveAspectRatio="xMidYMid meet">
<metadata>
Created by potrace 1.16, written by Peter Selinger 2001-2019
</metadata>
<g transform="translate(0.000000,720.000000) scale(0.100000,-0.100000)"
fill="#f0999c" stroke="none">
<path d="M3108 7193 c-43 -2 -78 -8 -78 -13 0 -6 -29 -10 -65 -10 -51 0 -65
-3 -65 -15 0 -12 -13 -15 -55 -15 -30 0 -55 -4 -55 -10 0 -5 -20 -10 -45 -10
-25 0 -45 -4 -45 -10 0 -5 -20 -10 -45 -10 -25 0 -45 -4 -45 -10 0 -5 -16 -10
-35 -10 -19 0 -35 -4 -35 -10 0 -5 -13 -10 -30 -10 -20 0 -30 -5 -30 -15 0
-10 -11 -15 -35 -15 -19 0 -35 -4 -35 -10 0 -5 -13 -10 -30 -10 -16 0 -30 -4
-30 -10 0 -5 -16 -10 -35 -10 -19 0 -35 -4 -35 -10 0 -5 -9 -10 -20 -10 -11 0
-20 -4 -20 -10 0 -5 -14 -10 -30 -10 -18 0 -33 -6 -36 -15 -4 -8 -15 -15 -25
-15 -10 0 -19 -4 -19 -10 0 -5 -11 -10 -25 -10 -14 0 -25 -4 -25 -10 0 -5 -9
-10 -20 -10 -11 0 -20 -4 -20 -10 0 -5 -11 -10 -25 -10 -14 0 -25 -4 -25 -10
0 -5 -9 -10 -20 -10 -11 0 -20 -7 -20 -15 0 -9 -9 -15 -25 -15 -14 0 -25 -4
-25 -10 0 -5 -9 -10 -20 -10 -11 0 -20 -4 -20 -10 0 -5 -9 -10 -20 -10 -11 0
-20 -4 -20 -10 0 -5 -8 -10 -17 -10 -22 -1 -53 -23 -53 -39 0 -6 -9 -11 -20
-11 -11 0 -20 -4 -20 -10 0 -5 -10 -10 -23 -10 -12 0 -29 -9 -37 -20 -8 -11
-21 -20 -29 -20 -7 0 -24 -11 -37 -25 -13 -14 -28 -25 -35 -25 -6 0 -19 -8
-28 -18 -9 -9 -29 -24 -46 -32 -36 -18 -55 -35 -55 -49 0 -6 -9 -11 -20 -11
-11 0 -20 -4 -20 -10 0 -5 -5 -10 -11 -10 -6 0 -30 -20 -53 -45 -24 -25 -48
-45 -55 -45 -14 0 -101 -86 -101 -100 0 -5 -5 -10 -10 -10 -14 0 -100 -86
-100 -100 0 -5 -5 -10 -10 -10 -14 0 -100 -86 -100 -100 0 -5 -5 -10 -10 -10
-19 0 -100 -89 -100 -110 0 -11 -5 -20 -10 -20 -15 0 -80 -67 -80 -82 -1 -15
-24 -48 -34 -48 -14 0 -36 -28 -36 -45 0 -9 -13 -30 -30 -45 -16 -15 -30 -33
-30 -39 0 -7 -11 -22 -25 -35 -14 -13 -25 -29 -25 -35 0 -7 -9 -21 -20 -33
-11 -12 -20 -30 -20 -40 0 -10 -4 -18 -10 -18 -5 0 -10 -9 -10 -20 0 -11 -5
-20 -11 -20 -16 0 -38 -31 -39 -52 0 -10 -4 -18 -10 -18 -5 0 -10 -9 -10 -20
0 -11 -4 -20 -10 -20 -5 0 -10 -9 -10 -20 0 -11 -4 -20 -10 -20 -5 0 -10 -11
-10 -25 0 -16 -6 -25 -15 -25 -8 0 -15 -9 -15 -20 0 -11 -4 -20 -10 -20 -5 0
-10 -11 -10 -25 0 -14 -4 -25 -10 -25 -5 0 -10 -9 -10 -20 0 -11 -4 -20 -10
-20 -5 0 -10 -11 -10 -25 0 -14 -4 -25 -10 -25 -5 0 -10 -9 -10 -19 0 -10 -7
-21 -15 -25 -9 -3 -15 -18 -15 -36 0 -16 -4 -30 -10 -30 -5 0 -10 -9 -10 -20
0 -11 -4 -20 -10 -20 -5 0 -10 -16 -10 -35 0 -19 -4 -35 -10 -35 -5 0 -10 -13
-10 -30 0 -16 -4 -30 -10 -30 -5 0 -10 -16 -10 -35 0 -24 -5 -35 -15 -35 -10
0 -15 -10 -15 -30 0 -16 -4 -30 -10 -30 -5 0 -10 -16 -10 -35 0 -19 -4 -35
-10 -35 -5 0 -10 -20 -10 -45 0 -25 -4 -45 -10 -45 -5 0 -10 -20 -10 -45 0
-25 -4 -45 -10 -45 -5 0 -10 -25 -10 -55 0 -42 -3 -55 -15 -55 -12 0 -15 -14
-15 -64 0 -43 -4 -66 -12 -68 -10 -4 -13 -126 -13 -568 0 -442 3 -564 13 -567
8 -3 12 -26 12 -69 0 -50 3 -64 15 -64 12 0 15 -13 15 -55 0 -30 5 -55 10 -55
6 0 10 -20 10 -45 0 -25 5 -45 10 -45 6 0 10 -20 10 -45 0 -25 5 -45 10 -45 6
0 10 -16 10 -35 0 -19 5 -35 10 -35 6 0 10 -13 10 -30 0 -20 5 -30 15 -30 10
0 15 -11 15 -35 0 -19 5 -35 10 -35 6 0 10 -13 10 -30 0 -16 5 -30 10 -30 6 0
10 -16 10 -35 0 -19 5 -35 10 -35 6 0 10 -9 10 -20 0 -11 5 -20 10 -20 6 0 10
-14 10 -30 0 -18 6 -33 15 -36 8 -4 15 -15 15 -25 0 -10 5 -19 10 -19 6 0 10
-11 10 -25 0 -14 5 -25 10 -25 6 0 10 -9 10 -20 0 -11 5 -20 10 -20 6 0 10
-11 10 -25 0 -14 5 -25 10 -25 6 0 10 -9 10 -20 0 -11 7 -20 15 -20 9 0 15 -9
15 -25 0 -14 5 -25 10 -25 6 0 10 -9 10 -20 0 -11 5 -20 10 -20 6 0 10 -9 10
-20 0 -11 5 -20 10 -20 6 0 10 -8 10 -17 1 -22 23 -53 39 -53 6 0 11 -9 11
-20 0 -11 5 -20 10 -20 6 0 10 -8 10 -18 0 -10 9 -28 20 -40 11 -12 20 -26 20
-33 0 -6 11 -22 25 -35 14 -13 25 -28 25 -35 0 -6 14 -24 30 -39 17 -15 30
-36 30 -45 0 -17 22 -45 36 -45 10 0 33 -33 34 -48 0 -15 65 -82 80 -82 5 0
10 -9 10 -20 0 -21 81 -110 100 -110 5 0 10 -5 10 -10 0 -14 86 -100 100 -100
5 0 10 -5 10 -10 0 -14 86 -100 100 -100 5 0 10 -5 10 -10 0 -19 89 -100 110
-100 11 0 20 -5 20 -10 0 -15 67 -80 82 -80 15 -1 48 -24 48 -34 0 -14 28 -36
45 -36 9 0 30 -13 45 -30 15 -16 33 -30 39 -30 7 0 22 -11 35 -25 13 -14 29
-25 35 -25 7 0 21 -9 33 -20 12 -11 30 -20 40 -20 10 0 18 -4 18 -10 0 -5 9
-10 20 -10 11 0 20 -5 20 -11 0 -16 31 -38 53 -39 9 0 17 -4 17 -10 0 -5 9
-10 20 -10 11 0 20 -4 20 -10 0 -5 9 -10 20 -10 11 0 20 -4 20 -10 0 -5 11
-10 25 -10 16 0 25 -6 25 -15 0 -8 9 -15 20 -15 11 0 20 -4 20 -10 0 -5 11
-10 25 -10 14 0 25 -4 25 -10 0 -5 9 -10 20 -10 11 0 20 -4 20 -10 0 -5 11
-10 25 -10 14 0 25 -4 25 -10 0 -5 9 -10 19 -10 10 0 21 -7 25 -15 3 -9 18
-15 36 -15 16 0 30 -4 30 -10 0 -5 9 -10 20 -10 11 0 20 -4 20 -10 0 -5 16
-10 35 -10 19 0 35 -4 35 -10 0 -5 14 -10 30 -10 17 0 30 -4 30 -10 0 -5 16
-10 35 -10 24 0 35 -5 35 -15 0 -10 10 -15 30 -15 17 0 30 -4 30 -10 0 -5 16
-10 35 -10 19 0 35 -4 35 -10 0 -5 20 -10 45 -10 25 0 45 -4 45 -10 0 -5 20
-10 45 -10 25 0 45 -4 45 -10 0 -5 25 -10 55 -10 42 0 55 -3 55 -15 0 -12 14
-15 64 -15 43 0 66 -4 69 -12 6 -19 1128 -19 1135 0 2 8 25 12 68 12 50 0 64
3 64 15 0 12 13 15 55 15 30 0 55 5 55 10 0 6 20 10 45 10 25 0 45 5 45 10 0
6 20 10 45 10 25 0 45 5 45 10 0 6 16 10 35 10 19 0 35 5 35 10 0 6 14 10 30
10 20 0 30 5 30 15 0 10 11 15 35 15 19 0 35 5 35 10 0 6 14 10 30 10 17 0 30
5 30 10 0 6 16 10 35 10 19 0 35 5 35 10 0 6 9 10 20 10 11 0 20 5 20 10 0 6
14 10 30 10 18 0 33 6 36 15 4 8 15 15 25 15 10 0 19 5 19 10 0 6 11 10 25 10
14 0 25 5 25 10 0 6 9 10 20 10 11 0 20 5 20 10 0 6 11 10 25 10 14 0 25 5 25
10 0 6 9 10 20 10 11 0 20 7 20 15 0 9 9 15 25 15 14 0 25 5 25 10 0 6 9 10
20 10 11 0 20 5 20 10 0 6 9 10 20 10 11 0 20 5 20 10 0 6 8 10 18 10 21 1 52
23 52 39 0 6 9 11 20 11 11 0 20 5 20 10 0 6 8 10 18 10 10 0 28 9 40 20 12
11 26 20 33 20 6 0 22 11 35 25 13 14 28 25 35 25 6 0 24 13 39 30 15 16 36
30 45 30 17 0 45 22 45 36 0 10 33 33 48 34 15 0 82 65 82 80 0 5 9 10 20 10
21 0 110 81 110 100 0 5 5 10 10 10 14 0 100 86 100 100 0 5 5 10 10 10 14 0
100 86 100 100 0 5 5 10 10 10 19 0 100 89 100 110 0 11 5 20 10 20 15 0 80
67 80 82 1 15 24 48 34 48 14 0 36 28 36 45 0 9 14 30 30 45 17 15 30 33 30
39 0 7 11 22 25 35 14 13 25 29 25 35 0 7 9 21 20 33 11 12 20 30 20 40 0 10
5 18 10 18 6 0 10 9 10 20 0 11 5 20 11 20 16 0 38 31 39 53 0 9 5 17 10 17 6
0 10 9 10 20 0 11 5 20 10 20 6 0 10 9 10 20 0 11 5 20 10 20 6 0 10 11 10 25
0 16 6 25 15 25 8 0 15 9 15 20 0 11 5 20 10 20 6 0 10 11 10 25 0 14 5 25 10
25 6 0 10 9 10 20 0 11 5 20 10 20 6 0 10 11 10 25 0 14 5 25 10 25 6 0 10 9
10 19 0 10 7 21 15 25 9 3 15 18 15 36 0 16 5 30 10 30 6 0 10 9 10 20 0 11 5
20 10 20 6 0 10 16 10 35 0 19 5 35 10 35 6 0 10 14 10 30 0 17 5 30 10 30 6
0 10 16 10 35 0 24 5 35 15 35 10 0 15 10 15 30 0 17 5 30 10 30 6 0 10 16 10
35 0 19 5 35 10 35 6 0 10 20 10 45 0 25 5 45 10 45 6 0 10 20 10 45 0 25 5
45 10 45 6 0 10 25 10 55 0 42 3 55 15 55 12 0 15 14 15 64 0 43 4 66 13 68 9
4 12 126 12 568 0 442 -3 564 -12 567 -9 3 -13 26 -13 69 0 50 -3 64 -15 64
-12 0 -15 13 -15 55 0 30 -4 55 -10 55 -5 0 -10 20 -10 45 0 25 -4 45 -10 45
-5 0 -10 20 -10 45 0 25 -4 45 -10 45 -5 0 -10 16 -10 35 0 19 -4 35 -10 35
-5 0 -10 14 -10 30 0 20 -5 30 -15 30 -10 0 -15 11 -15 35 0 19 -4 35 -10 35
-5 0 -10 14 -10 30 0 17 -4 30 -10 30 -5 0 -10 16 -10 35 0 19 -4 35 -10 35
-5 0 -10 9 -10 20 0 11 -4 20 -10 20 -5 0 -10 14 -10 30 0 18 -6 33 -15 36 -8
4 -15 15 -15 25 0 10 -4 19 -10 19 -5 0 -10 11 -10 25 0 14 -4 25 -10 25 -5 0
-10 9 -10 20 0 11 -4 20 -10 20 -5 0 -10 11 -10 25 0 14 -4 25 -10 25 -5 0
-10 9 -10 20 0 11 -7 20 -15 20 -9 0 -15 9 -15 25 0 14 -4 25 -10 25 -5 0 -10
9 -10 20 0 11 -4 20 -10 20 -5 0 -10 9 -10 20 0 11 -4 20 -10 20 -5 0 -10 8
-10 18 -1 21 -23 52 -39 52 -6 0 -11 9 -11 20 0 11 -4 20 -10 20 -5 0 -10 8
-10 18 0 10 -9 28 -20 40 -11 12 -20 26 -20 33 0 6 -11 22 -25 35 -14 13 -25
28 -25 35 0 6 -14 24 -30 39 -16 15 -30 36 -30 45 0 17 -22 45 -36 45 -10 0
-33 33 -34 48 0 15 -65 82 -80 82 -5 0 -10 9 -10 20 0 21 -81 110 -100 110 -5
0 -10 5 -10 10 0 14 -86 100 -100 100 -5 0 -10 5 -10 10 0 14 -86 100 -100
100 -5 0 -10 5 -10 10 0 19 -89 100 -110 100 -11 0 -20 5 -20 10 0 15 -67 80
-82 80 -15 1 -48 24 -48 34 0 14 -28 36 -45 36 -9 0 -30 14 -45 30 -15 17 -33
30 -39 30 -7 0 -22 11 -35 25 -13 14 -29 25 -35 25 -7 0 -21 9 -33 20 -12 11
-30 20 -40 20 -10 0 -18 5 -18 10 0 6 -9 10 -20 10 -11 0 -20 5 -20 11 0 16
-31 38 -52 39 -10 0 -18 5 -18 10 0 6 -9 10 -20 10 -11 0 -20 5 -20 10 0 6 -9
10 -20 10 -11 0 -20 5 -20 10 0 6 -11 10 -25 10 -16 0 -25 6 -25 15 0 8 -9 15
-20 15 -11 0 -20 5 -20 10 0 6 -11 10 -25 10 -14 0 -25 5 -25 10 0 6 -9 10
-20 10 -11 0 -20 5 -20 10 0 6 -11 10 -25 10 -14 0 -25 5 -25 10 0 6 -9 10
-19 10 -10 0 -21 7 -25 15 -3 9 -18 15 -36 15 -16 0 -30 5 -30 10 0 6 -9 10
-20 10 -11 0 -20 5 -20 10 0 6 -16 10 -35 10 -19 0 -35 5 -35 10 0 6 -13 10
-30 10 -16 0 -30 5 -30 10 0 6 -16 10 -35 10 -24 0 -35 5 -35 15 0 10 -10 15
-30 15 -16 0 -30 5 -30 10 0 6 -16 10 -35 10 -19 0 -35 5 -35 10 0 6 -20 10
-45 10 -25 0 -45 5 -45 10 0 6 -20 10 -45 10 -25 0 -45 5 -45 10 0 6 -25 10
-55 10 -42 0 -55 3 -55 15 0 12 -14 15 -64 15 -42 0 -66 4 -68 12 -4 10 -115
13 -494 14 -269 1 -524 -1 -566 -3z m542 -1801 c0 -5 53 -12 118 -16 64 -4
135 -11 157 -16 105 -25 251 -64 255 -70 3 -3 25 -12 50 -19 25 -7 77 -28 117
-47 39 -19 76 -34 82 -34 6 0 11 -4 11 -8 0 -5 18 -17 40 -27 22 -10 40 -21
40 -24 0 -3 13 -12 29 -19 16 -7 42 -24 57 -37 16 -14 33 -25 39 -25 5 0 18
-9 30 -20 11 -11 40 -36 65 -56 97 -78 270 -258 270 -281 0 -6 7 -13 15 -17 8
-3 20 -16 25 -28 6 -13 24 -41 40 -63 16 -22 29 -46 30 -52 0 -7 4 -13 8 -13
5 0 17 -18 27 -40 10 -22 22 -40 27 -40 4 0 8 -5 8 -11 0 -6 15 -43 34 -82 19
-40 40 -92 47 -117 7 -25 16 -47 19 -50 6 -4 45 -150 70 -255 5 -22 12 -93 16
-157 4 -65 11 -118 16 -118 4 0 8 -22 8 -50 0 -27 -4 -50 -8 -50 -5 0 -12 -53
-16 -117 -4 -65 -11 -136 -16 -158 -25 -105 -64 -251 -70 -255 -3 -3 -12 -25
-19 -50 -7 -25 -28 -77 -47 -117 -19 -39 -34 -76 -34 -82 0 -6 -4 -11 -8 -11
-5 0 -17 -18 -27 -40 -10 -22 -21 -40 -24 -40 -3 0 -12 -13 -19 -29 -7 -16
-24 -42 -37 -57 -14 -16 -25 -33 -25 -39 0 -5 -9 -18 -20 -30 -11 -11 -36 -40
-56 -65 -56 -70 -132 -148 -209 -212 -38 -32 -79 -67 -90 -78 -12 -11 -25 -20
-30 -20 -6 0 -23 -11 -39 -25 -15 -13 -41 -30 -57 -37 -16 -7 -29 -16 -29 -19
0 -3 -18 -14 -40 -24 -22 -10 -40 -22 -40 -27 0 -4 -5 -8 -11 -8 -6 0 -43 -15
-82 -34 -40 -19 -92 -40 -117 -47 -25 -7 -47 -16 -50 -19 -4 -6 -150 -45 -255
-70 -22 -5 -93 -12 -157 -16 -65 -4 -118 -11 -118 -16 0 -4 -22 -8 -50 -8 -27
0 -50 4 -50 8 0 5 -53 12 -117 16 -65 4 -136 11 -158 16 -105 25 -251 64 -255
70 -3 3 -25 12 -50 19 -25 7 -77 28 -117 47 -39 19 -76 34 -82 34 -6 0 -11 4
-11 8 0 5 -18 17 -40 27 -22 10 -40 22 -40 27 0 4 -6 8 -12 8 -7 1 -31 14 -53
30 -22 16 -50 34 -63 40 -12 5 -25 17 -28 25 -4 8 -11 15 -17 15 -23 0 -203
173 -281 270 -20 25 -45 54 -56 65 -11 12 -20 25 -20 30 0 6 -11 23 -25 39
-13 15 -30 41 -37 57 -7 16 -16 29 -19 29 -3 0 -14 18 -24 40 -10 22 -22 40
-27 40 -4 0 -8 5 -8 11 0 6 -15 43 -34 82 -19 40 -40 92 -47 117 -7 25 -16 47
-19 50 -6 4 -45 150 -70 255 -5 22 -12 93 -16 158 -5 88 -10 117 -21 117 -9 0
-13 15 -13 50 0 35 4 50 13 50 11 0 16 29 21 118 4 64 11 135 16 157 25 105
64 251 70 255 3 3 12 25 19 50 7 25 28 77 47 117 19 39 34 76 34 82 0 6 4 11
8 11 5 0 17 18 27 40 10 22 22 40 27 40 4 0 8 6 8 13 1 6 14 30 30 52 16 22
34 50 40 63 5 12 17 25 25 28 8 4 15 11 15 16 0 29 289 318 318 318 5 0 12 7
16 15 3 8 16 20 28 25 13 6 41 24 63 40 22 16 46 29 53 30 6 0 12 4 12 8 0 5
18 17 40 27 22 10 40 22 40 27 0 4 5 8 11 8 6 0 43 15 82 34 40 19 92 40 117
47 25 7 47 16 50 19 4 6 150 45 255 70 22 5 93 12 158 16 64 4 117 11 117 16
0 4 23 8 50 8 28 0 50 -4 50 -8z"/>
</g>
</svg>
