<svg height="512" viewBox="0 0 64 64" width="512" xmlns="http://www.w3.org/2000/svg"><g fill="#CED3D6"><path d="m-22.414 31h60.828v2h-60.828z" transform="matrix(.164 -.986 .986 .164 -24.88 34.63)"/><path d="m-18.414 31h60.828v2h-60.828z" transform="matrix(.165 -.986 .986 .165 -21.538 38.571)"/><path d="m55 1.586h2v60.828h-2z" transform="matrix(.986 -.165 .165 .986 -4.502 9.651)"/><path d="m51 1.586h2v60.828h-2z" transform="matrix(.986 -.164 .164 .986 -4.553 8.984)"/><path d="m32 2a9.011 9.011 0 0 0 -9 9c0 6.279 7.883 16.2 8.219 16.625a1 1 0 0 0 1.562 0c.336-.42 8.219-10.346 8.219-16.625a9.011 9.011 0 0 0 -9-9zm0 23.353c-1.974-2.653-7-9.842-7-14.353a7 7 0 0 1 14 0c0 4.507-5.027 11.7-7 14.353z"/><path d="m32 6a5 5 0 1 0 5 5 5.006 5.006 0 0 0 -5-5zm0 8a3 3 0 1 1 3-3 3 3 0 0 1 -3 3z"/><path d="m31 30h2v4h-2z"/><path d="m31 38h2v4h-2z"/><path d="m31 46h2v4h-2z"/><path d="m31 54h2v4h-2z"/></g></svg>