<?xml version="1.0" standalone="no"?>
<!DOCTYPE svg PUBLIC "-//W3C//DTD SVG 20010904//EN"
 "http://www.w3.org/TR/2001/REC-SVG-20010904/DTD/svg10.dtd">
<svg version="1.0" xmlns="http://www.w3.org/2000/svg"
 width="512.000000pt" height="512.000000pt" viewBox="0 0 512.000000 512.000000"
 preserveAspectRatio="xMidYMid meet">
<metadata>
Created by potrace 1.16, written by Peter Selinger 2001-2019
</metadata>
<g transform="translate(0.000000,512.000000) scale(0.100000,-0.100000)"
fill="#ffffff" stroke="none">
<path d="M2205 5101 c-108 -39 -200 -123 -252 -229 -26 -56 -27 -63 -34 -292
-6 -199 -10 -244 -27 -292 -65 -182 -239 -298 -429 -286 -70 5 -86 11 -301
117 -258 127 -306 141 -419 122 -168 -29 -234 -90 -397 -369 -139 -237 -156
-280 -163 -388 -7 -99 7 -166 55 -257 47 -91 101 -137 284 -243 84 -49 167
-102 186 -118 175 -153 175 -458 0 -612 -18 -16 -107 -72 -198 -124 -184 -107
-258 -171 -302 -261 -50 -102 -56 -234 -15 -330 19 -47 242 -423 284 -482 79
-108 222 -174 360 -165 73 5 86 10 297 115 122 61 238 116 260 123 24 8 70 11
120 8 136 -7 258 -79 336 -196 54 -81 61 -124 69 -392 7 -243 7 -246 36 -305
37 -78 132 -172 210 -211 l60 -29 335 0 335 0 60 29 c78 39 173 133 210 211
29 59 29 63 36 295 7 256 14 293 71 383 92 145 285 226 447 187 30 -7 126 -55
232 -116 100 -57 201 -111 225 -119 144 -49 304 -16 417 85 35 31 79 95 161
234 62 105 123 210 135 233 48 95 65 256 37 358 -37 142 -114 228 -291 329
-204 118 -245 151 -302 246 -79 131 -68 331 27 462 47 67 89 98 279 208 88 51
163 103 193 133 114 114 154 298 95 439 -22 53 -244 426 -289 486 -73 98 -201
162 -323 162 -94 0 -153 -23 -338 -131 -223 -129 -257 -142 -367 -137 -69 3
-98 10 -152 35 -75 35 -143 93 -188 161 -54 81 -61 124 -69 392 -7 243 -7 246
-36 305 -37 78 -132 172 -210 211 l-60 29 -320 2 c-289 3 -325 1 -370 -16z
m580 -1726 c235 -68 425 -226 531 -440 66 -134 87 -224 87 -375 0 -151 -21
-241 -87 -375 -106 -213 -293 -369 -531 -441 -79 -23 -107 -27 -225 -27 -118
0 -146 4 -225 27 -292 88 -503 299 -591 591 -23 79 -27 107 -27 225 0 117 4
147 27 223 100 333 362 564 699 618 89 14 244 2 342 -26z"/>
</g>
</svg>
