<?xml version="1.0" encoding="iso-8859-1"?>
<!-- Generator: Adobe Illustrator 17.1.0, SVG Export Plug-In . SVG Version: 6.00 Build 0)  -->
<!DOCTYPE svg PUBLIC "-//W3C//DTD SVG 1.1//EN" "http://www.w3.org/Graphics/SVG/1.1/DTD/svg11.dtd">
<svg version="1.1" id="Capa_1" xmlns="http://www.w3.org/2000/svg" xmlns:xlink="http://www.w3.org/1999/xlink" x="0px" y="0px"
	 viewBox="0 0 446.012 446.012" style="enable-background:new 0 0 446.012 446.012;" xml:space="preserve">
	  <g transform="translate(-15, -650) scale(2.6)"
fill="#0c2231" stroke="none">

<path id="XMLID_118_" d="	M81.099,313.907c0-4.971,4.029-9,9-9h2.147c4.971,0,9,4.029,9,9s-4.029,9-9,9h-2.147
	C85.128,322.907,81.099,318.878,81.099,313.907z 
	M58.47,313.906c0,11.236,16.831,44.313,24.018,58.438c0,0,7.65,15.326,8.165,15.938c0.319,0.458,0.804,0.209,1.041,0.001
	c0.515-0.612,1.364-2.394,1.94-3.602c0.344-0.721,6.227-12.338,6.227-12.338c7.187-14.121,24.016-47.191,24.016-58.438
	c0-18.032-14.67-32.702-32.702-32.702C73.141,281.204,58.47,295.874,58.47,313.906z"/>
</g>

</svg>
