<svg version="1.2" baseProfile="tiny-ps" xmlns="http://www.w3.org/2000/svg" viewBox="0 0 1210 872" width="1210" height="872">
	<title>nf7_(17)-ai</title>
	<style>
		tspan { white-space:pre }
		.shp0 { fill: #ffffff } 
	</style>
	<g id="Layer 1">
		<path id="&lt;Compound Path&gt;" fill-rule="evenodd" class="shp0" d="M452.97 829.54C426.82 829.54 400.64 826.92 375.22 821.74C350.45 816.69 326.07 809.17 302.72 799.36C279.83 789.78 257.75 777.84 237.06 764.02C216.6 750.32 197.32 734.55 179.83 717.21C162.32 699.88 146.42 680.81 132.53 660.53C118.54 640.07 106.53 618.22 96.79 595.53C86.9 572.41 79.31 548.27 74.21 523.72C68.98 498.54 66.32 472.63 66.32 446.73C66.32 420.84 68.98 394.9 74.21 369.73C79.31 345.22 86.89 321.04 96.79 297.92C106.53 275.25 118.54 253.4 132.53 232.92C146.39 212.63 162.31 193.58 179.83 176.24C197.32 158.93 216.6 143.19 237.06 129.46C257.75 115.61 279.84 103.71 302.72 94.12C326.03 84.3 350.42 76.81 375.22 71.75C400.64 66.57 426.81 63.94 452.97 63.94C479.12 63.94 505.27 66.57 530.7 71.75C555.46 76.79 579.86 84.31 603.18 94.12C626.07 103.7 648.15 115.61 668.84 129.46C689.32 143.16 708.55 158.93 726.07 176.24C743.57 193.58 759.46 212.64 773.33 232.92C787.33 253.4 799.34 275.26 809.04 297.92C818.93 321.04 826.53 345.18 831.64 369.73C836.87 394.9 839.51 420.83 839.51 446.73C839.51 472.65 836.88 498.54 831.64 523.72C826.51 548.27 818.93 572.41 809.04 595.53C799.34 618.2 787.33 640.09 773.33 660.53C759.46 680.82 743.55 699.88 726.07 717.21C708.56 734.54 689.3 750.29 668.84 764.02C648.15 777.84 626.06 789.77 603.18 799.36C579.86 809.18 555.46 816.67 530.7 821.74C505.27 826.94 479.11 829.54 452.97 829.54ZM453.22 687.62C514.22 687.62 572.67 665 617.78 623.88C663.08 582.6 690.71 526.33 695.52 465.5C698.06 433.28 694.2 401.52 684.01 371.08C674.22 341.7 658.91 314.78 638.66 291.06C618.09 267.03 593.46 247.49 565.38 233.01C536.32 218.02 504.87 209.09 471.94 206.55C465.53 206.06 459.1 205.81 452.68 205.81C391.68 205.81 333.22 228.44 288.16 269.52C242.88 310.84 215.24 367.11 210.46 427.94C207.88 460.19 211.78 491.95 221.93 522.39C231.77 551.74 247.05 578.66 267.34 602.41C287.9 626.45 312.54 645.96 340.58 660.44C369.62 675.46 401.07 684.34 434 686.88C440.38 687.36 446.84 687.62 453.22 687.62Z" />
		<path id="&lt;Path&gt;" class="shp0" d="M619.28 829.54C605.29 829.54 591.31 828.79 577.43 827.3C588.41 823.76 599.24 819.76 609.87 815.29C633.82 805.23 656.86 792.83 678.45 778.38C699.86 764.04 719.93 747.62 738.23 729.49C756.5 711.38 773.07 691.52 787.59 670.29C802.2 648.94 814.75 626.11 824.93 602.33C835.26 578.18 843.19 552.97 848.55 527.25C854.07 500.8 856.79 473.74 856.79 446.73C856.79 419.72 854.06 392.65 848.56 366.21C843.2 340.49 835.26 315.27 824.93 291.12C814.74 267.33 802.2 244.52 787.6 223.16C773.08 201.93 756.51 182.05 738.22 163.96C719.91 145.85 699.85 129.43 678.45 115.1C656.85 100.65 633.83 88.24 609.86 78.19C599.21 73.72 588.35 69.7 577.34 66.15C591.25 64.65 605.26 63.9 619.28 63.9C645.51 63.9 671.73 66.52 697.16 71.68C722 76.72 746.4 84.22 769.74 93.97C792.63 103.55 814.75 115.42 835.4 129.25C855.88 142.95 875.11 158.66 892.63 175.97C910.12 193.28 926.02 212.34 939.84 232.59C953.78 253.05 965.79 274.94 975.49 297.63C985.37 320.75 992.95 344.92 998.04 369.49C1003.25 394.7 1005.88 420.67 1005.88 446.63C1005.88 472.6 1003.22 498.56 998.04 523.79C992.95 548.38 985.37 572.55 975.49 595.66C965.83 618.35 953.8 640.24 939.84 660.7C925.99 680.98 910.12 700.04 892.63 717.35C875.12 734.66 855.9 750.36 835.4 764.08C814.75 777.9 792.62 789.74 769.74 799.35C746.43 809.1 722.02 816.63 697.16 821.64C671.73 826.94 645.53 829.54 619.28 829.54Z" />
		<path id="&lt;Path&gt;" class="shp0" d="M785.66 829.54C771.66 829.54 757.67 828.79 743.79 827.3C754.83 823.77 765.73 819.77 776.42 815.28C800.38 805.24 823.43 792.88 845.01 778.43C866.41 764.11 886.48 747.74 904.78 729.63C923.06 711.55 939.62 691.67 954.11 670.44C968.7 649.07 981.24 626.24 991.39 602.44C1001.7 578.27 1009.65 553.03 1014.96 527.28C1020.43 500.78 1023.16 473.69 1023.16 446.63C1023.16 419.58 1020.45 392.48 1014.96 365.99C1009.63 340.25 1001.71 315.01 991.38 290.84C981.22 267.05 968.69 244.23 954.12 222.86C939.64 201.62 923.05 181.76 904.78 163.68C886.48 145.58 866.41 129.2 845.01 114.88C823.42 100.44 800.38 88.05 776.41 78.03C765.81 73.6 755.02 69.62 744.08 66.11C757.87 64.64 771.76 63.9 785.66 63.9C811.89 63.9 838.11 66.52 863.54 71.68C888.38 76.72 912.78 84.22 936.12 93.97C959.01 103.55 981.13 115.42 1001.76 129.25C1022.22 142.95 1041.5 158.66 1058.99 175.97C1076.47 193.28 1092.38 212.34 1106.2 232.59C1120.16 253.05 1132.15 274.94 1141.85 297.63C1151.73 320.75 1159.31 344.92 1164.4 369.49C1169.61 394.7 1172.24 420.67 1172.24 446.63C1172.24 472.6 1169.61 498.56 1164.4 523.79C1159.31 548.38 1151.73 572.55 1141.85 595.66C1132.19 618.35 1120.16 640.24 1106.2 660.7C1092.35 680.98 1076.47 700.04 1058.99 717.35C1041.5 734.66 1022.25 750.36 1001.76 764.08C981.11 777.9 959.01 789.74 936.12 799.35C912.81 809.1 888.4 816.63 863.54 821.64C838.07 826.94 811.86 829.54 785.66 829.54Z" />
	</g>
	<g id="Master Layer 2">
		<path id="Layer" class="shp0" d="M468 467.49C468 469.7 468 471.68 468 473.66C468 520.32 468.01 566.98 467.99 613.64C467.99 621.41 465.05 625.42 457.99 627.51C452.14 629.24 445.79 627.29 442.94 622.23C441.64 619.93 441.08 616.93 441.08 614.24C440.97 567.25 441 520.26 441 473.26C441 471.31 441 469.35 441 467.28C418.57 464.61 397.71 458.71 378.44 447.58C356.08 434.67 338.92 416.84 329.61 392.79C319.28 366.08 322.61 340.05 337.74 315.66C339.92 312.14 342.17 308.59 344.92 305.54C346.16 304.17 348.72 303.99 350.69 303.27C350.65 305.17 351.3 307.46 350.46 308.89C345.57 317.28 342.73 326.3 340.98 335.78C339.01 346.4 339.84 356.78 342.58 367.15C348.76 390.58 363.07 407.84 382.89 421.06C407.98 437.8 435.9 442.71 465.29 439.89C498.54 436.71 526.48 422.82 546.76 395.65C559.79 378.19 563.94 358.42 561.22 336.73C558.82 317.59 550.17 302.11 536.86 288.74C535.36 287.23 532.4 285.42 535.24 283.19C536.36 282.32 539.7 283.01 541.2 284.11C554.34 293.7 565.45 305.26 573.06 319.76C583.32 339.32 586.93 359.88 581.69 381.71C575.28 408.41 559.28 428.02 536.95 443.04C517.96 455.81 496.89 462.94 474.31 465.93C472.37 466.19 470.48 466.87 468 467.49Z" />
	</g>
</svg>