<?xml version="1.0" encoding="UTF-8" standalone="no"?>
<svg
   xmlns:dc="http://purl.org/dc/elements/1.1/"
   xmlns:cc="http://creativecommons.org/ns#"
   xmlns:rdf="http://www.w3.org/1999/02/22-rdf-syntax-ns#"
   xmlns:svg="http://www.w3.org/2000/svg"
   xmlns="http://www.w3.org/2000/svg"
   xmlns:sodipodi="http://sodipodi.sourceforge.net/DTD/sodipodi-0.dtd"
   xmlns:inkscape="http://www.inkscape.org/namespaces/inkscape"
   version="1.1"
   viewBox="0 0 180.87929 46.187504"
   stroke-miterlimit="10"
   id="svg13"
   sodipodi:docname="yacka.fr.svg"
   width="180.87929"
   height="46.187504"
   style="fill:none;stroke:none;stroke-linecap:square;stroke-miterlimit:10"
   inkscape:version="0.92.2 5c3e80d, 2017-08-06">
  <metadata
     id="metadata19">
    <rdf:RDF>
      <cc:Work
         rdf:about="">
        <dc:format>image/svg+xml</dc:format>
        <dc:type
           rdf:resource="http://purl.org/dc/dcmitype/StillImage" />
        <dc:title></dc:title>
      </cc:Work>
    </rdf:RDF>
  </metadata>
  <defs
     id="defs17" />
  <sodipodi:namedview
     pagecolor="#ffffff"
     bordercolor="#666666"
     borderopacity="1"
     objecttolerance="10"
     gridtolerance="10"
     guidetolerance="10"
     inkscape:pageopacity="0"
     inkscape:pageshadow="2"
     inkscape:window-width="796"
     inkscape:window-height="480"
     id="namedview15"
     showgrid="false"
     fit-margin-top="0"
     fit-margin-left="0"
     fit-margin-right="0"
     fit-margin-bottom="0"
     inkscape:zoom="0.434375"
     inkscape:cx="94.69258"
     inkscape:cy="-81.644678"
     inkscape:window-x="0"
     inkscape:window-y="0"
     inkscape:window-maximized="0"
     inkscape:current-layer="g11" />
  <clipPath
     id="g11f5e7e871f_0_0.0">
    <path
       d="M 0,0 H 960 V 377.95276 H 0 Z"
       id="path2"
       inkscape:connector-curvature="0"
       style="clip-rule:nonzero" />
  </clipPath>
  <g
     clip-path="url(#g11f5e7e871f_0_0.0)"
     id="g11"
     transform="translate(-37.28307,-61.144196)">
    <path
       d="M 0,0 H 960 V 377.95276 H 0 Z"
       id="path5"
       inkscape:connector-curvature="0"
       style="fill:#000000;fill-opacity:0;fill-rule:evenodd" />
    <path
       d="M 27.433071,42.09974 H 236 v 74.3307 H 27.433071 Z"
       id="path7"
       inkscape:connector-curvature="0"
       style="fill:#000000;fill-opacity:0;fill-rule:evenodd" />
    <path
       d="m 44.77682,107.3317 q -0.359375,0 -0.8125,-0.17188 -1.546875,-0.6875 -0.875,-2.17188 L 57.729945,72.706692 q 0.6875,-1.453125 2.1875,-0.8125 1.53125,0.625 0.859375,2.125 l -14.6875,32.281258 q -0.453125,1.03125 -1.3125,1.03125 z m 5.03125,-11.546883 q -0.6875,0.3125 -1.28125,0.109375 -0.578125,-0.203125 -0.9375,-0.890625 l -10.109375,-20.9375 q -0.328125,-0.671875 -0.109375,-1.265625 0.234375,-0.59375 0.921875,-0.90625 0.671875,-0.3125 1.265625,-0.109375 0.59375,0.203125 0.90625,0.875 l 9.9375,20.9375 q 0.359375,0.6875 0.21875,1.28125 -0.140625,0.578125 -0.8125,0.90625 z m 25.558163,1 q -3.484375,0 -6.25,-1.65625 -2.765625,-1.65625 -4.375,-4.515625 -1.609371,-2.859375 -1.609371,-6.4375 0,-3.625 1.656246,-6.484375 1.65625,-2.859375 4.5,-4.5 2.859375,-1.65625 6.4375,-1.65625 3.59375,0 6.421875,1.65625 2.828125,1.640625 4.484375,4.5 1.65625,2.859375 1.703125,6.484375 l -1.40625,1.09375 q 0,3.265625 -1.515625,5.875 -1.515625,2.59375 -4.125,4.125 -2.609375,1.515625 -5.921875,1.515625 z m 0.359375,-3.1875 q 2.640625,0 4.703125,-1.21875 2.0625,-1.21875 3.25,-3.375 1.203125,-2.15625 1.203125,-4.828125 0,-2.71875 -1.203125,-4.84375 -1.1875,-2.140625 -3.25,-3.375 -2.0625,-1.25 -4.703125,-1.25 -2.578125,0 -4.671875,1.25 -2.078125,1.234375 -3.296875,3.375 -1.21875,2.125 -1.21875,4.84375 0,2.671875 1.21875,4.828125 1.21875,2.15625 3.296875,3.375 2.09375,1.21875 4.671875,1.21875 z m 10.84375,2.953125 q -0.78125,0 -1.28125,-0.46875 -0.484375,-0.484375 -0.484375,-1.25 v -7.75 l 0.859375,-3.578125 2.671875,0.671875 v 10.65625 q 0,0.765625 -0.5,1.25 -0.5,0.46875 -1.265625,0.46875 z m 19.624652,0.234375 q -3.57813,0 -6.375002,-1.65625 -2.78125,-1.65625 -4.390625,-4.515625 -1.609375,-2.859375 -1.609375,-6.4375 0,-3.625 1.53125,-6.484375 1.546875,-2.859375 4.21875,-4.5 2.687502,-1.65625 6.171872,-1.65625 2.76563,0 5.09375,1.09375 2.34375,1.078125 4.10938,3.25 0.5,0.546875 0.35937,1.15625 -0.14062,0.609375 -0.76562,1.0625 -0.5,0.375 -1.125,0.265625 -0.60938,-0.125 -1.0625,-0.671875 -2.625,-2.984375 -6.60938,-2.984375 -2.54687,0 -4.46875,1.21875 -1.921872,1.21875 -2.984372,3.359375 -1.0625,2.125 -1.0625,4.890625 0,2.71875 1.125,4.859375 1.140625,2.125 3.171872,3.34375 2.04688,1.21875 4.67188,1.21875 1.76562,0 3.23437,-0.46875 1.48438,-0.46875 2.60938,-1.46875 0.54687,-0.453125 1.125,-0.5 0.59375,-0.04687 1.09375,0.359375 0.54687,0.5 0.60937,1.140625 0.0781,0.625 -0.42187,1.078125 -3.3125,3.046875 -8.25,3.046875 z m 18.76712,-8.53125 -2.125,-2.3125 15.50001,-14 q 0.53125,-0.5 1.125,-0.46875 0.59375,0.01563 1.09375,0.5625 0.5,0.53125 0.46875,1.15625 -0.0156,0.609375 -0.5625,1.0625 z m -1.14063,8.296875 q -0.76562,0 -1.25,-0.46875 -0.46875,-0.484375 -0.46875,-1.25 V 62.878571 q 0,-0.78125 0.46875,-1.25 0.48438,-0.484375 1.25,-0.484375 0.78125,0 1.25,0.484375 0.48438,0.46875 0.48438,1.25 v 31.953121 q 0,0.765625 -0.48438,1.25 -0.46875,0.46875 -1.25,0.46875 z m 16.78126,-0.234375 q -0.59375,0.5 -1.23437,0.4375 -0.625,-0.0625 -1.07813,-0.65625 l -10.10937,-12.421875 2.4375,-2.171875 10.20312,12.546875 q 0.45313,0.546875 0.40625,1.171875 -0.0469,0.609375 -0.625,1.09375 z m 16.08292,0.46875 q -3.48438,0 -6.25,-1.65625 -2.76563,-1.65625 -4.375,-4.515625 -1.60938,-2.859375 -1.60938,-6.4375 0,-3.625 1.65625,-6.484375 1.65625,-2.859375 4.5,-4.5 2.85938,-1.65625 6.4375,-1.65625 3.59375,0 6.42188,1.65625 2.82812,1.640625 4.48437,4.5 1.65625,2.859375 1.70313,6.484375 l -1.40625,1.09375 q 0,3.265625 -1.51563,5.875 -1.51562,2.59375 -4.125,4.125 -2.60937,1.515625 -5.92187,1.515625 z m 0.35937,-3.1875 q 2.64063,0 4.70313,-1.21875 2.0625,-1.21875 3.25,-3.375 1.20312,-2.15625 1.20312,-4.828125 0,-2.71875 -1.20312,-4.84375 -1.1875,-2.140625 -3.25,-3.375 -2.0625,-1.25 -4.70313,-1.25 -2.57812,0 -4.67187,1.25 -2.07813,1.234375 -3.29688,3.375 -1.21875,2.125 -1.21875,4.84375 0,2.671875 1.21875,4.828125 1.21875,2.15625 3.29688,3.375 2.09375,1.21875 4.67187,1.21875 z m 10.84375,2.953125 q -0.78125,0 -1.28125,-0.46875 -0.48437,-0.484375 -0.48437,-1.25 v -7.75 l 0.85937,-3.578125 2.67188,0.671875 v 10.65625 q 0,0.765625 -0.5,1.25 -0.5,0.46875 -1.26563,0.46875 z m 9.37465,0.71875 q -1.07812,0 -1.85937,-0.765625 -0.76563,-0.765625 -0.76563,-1.859375 0,-1.125 0.79688,-1.890625 0.79687,-0.78125 1.82812,-0.78125 1.09375,0 1.85938,0.796875 0.78125,0.796875 0.78125,1.875 0,1.046875 -0.75,1.84375 -0.75,0.78125 -1.89063,0.78125 z m 12.0565,-0.71875 q -0.67187,0 -1.17187,-0.46875 -0.5,-0.484375 -0.5,-1.296875 V 71.800442 q 0,-3.171875 1.07812,-5.578125 1.09375,-2.406246 3.21875,-3.734371 2.14063,-1.34375 5.21875,-1.34375 0.78125,0 1.26563,0.453125 0.5,0.453125 0.5,1.140625 0,0.671875 -0.5,1.125 -0.48438,0.453121 -1.26563,0.453121 -2.03125,0 -3.375,0.9375 -1.32812,0.921875 -2,2.578125 -0.65625,1.65625 -0.65625,3.78125 v 23.171875 q 0,0.8125 -0.48437,1.296875 -0.46875,0.46875 -1.32813,0.46875 z m -4.57812,-20.84375 q -0.71875,0 -1.15625,-0.4375 -0.42188,-0.4375 -0.42188,-1.0625 0,-0.6875 0.42188,-1.109375 0.4375,-0.4375 1.15625,-0.4375 h 11.84375 q 0.71875,0 1.14062,0.4375 0.4375,0.421875 0.4375,1.109375 0,0.625 -0.4375,1.0625 -0.42187,0.4375 -1.14062,0.4375 z m 19.54323,5.5625 q 0.14062,-2.796875 1.46875,-5.015625 1.34375,-2.234375 3.48437,-3.5 2.15625,-1.265625 4.79688,-1.265625 2.07812,0 3.20312,0.59375 1.14063,0.578125 0.875,1.71875 -0.1875,0.671875 -0.625,0.90625 -0.42187,0.21875 -1.03125,0.171875 -0.60937,-0.04687 -1.39062,-0.07813 -2.53125,-0.234375 -4.5,0.515625 -1.96875,0.75 -3.125,2.296875 -1.15625,1.53125 -1.15625,3.65625 z m 0.26562,15.28125 q -0.8125,0 -1.26562,-0.453125 -0.45313,-0.453125 -0.45313,-1.265625 V 73.472317 q 0,-0.8125 0.45313,-1.265625 0.45312,-0.453125 1.26562,-0.453125 0.82813,0 1.28125,0.453125 0.45313,0.453125 0.45313,1.265625 v 21.359375 q 0,0.8125 -0.45313,1.265625 -0.45312,0.453125 -1.28125,0.453125 z"
       id="path9"
       inkscape:connector-curvature="0"
       style="fill:#83dc56;fill-rule:nonzero" />
  </g>
</svg>
